<svg width="65" height="65" viewBox="0 0 65 65" fill="none" xmlns="http://www.w3.org/2000/svg">
<g filter="url(#filter0_d_102_2599)">
<rect x="12" y="8" width="45" height="45" rx="22.5" fill="white" shape-rendering="crispEdges"/>
<rect x="12.5" y="8.5" width="44" height="44" rx="22" stroke="black" stroke-opacity="0.12" shape-rendering="crispEdges"/>
<path d="M40.3662 31.1221C40.3564 29.3301 41.167 27.9776 42.8076 26.9815C41.8896 25.668 40.5029 24.9453 38.6719 24.8037C36.9385 24.667 35.0439 25.8145 34.3506 25.8145C33.6182 25.8145 31.9385 24.8526 30.6201 24.8526C27.8955 24.8965 25 27.0254 25 31.3565C25 32.6358 25.2344 33.9574 25.7031 35.3213C26.3281 37.1133 28.584 41.5078 30.9375 41.4346C32.168 41.4053 33.0371 40.5606 34.6387 40.5606C36.1914 40.5606 36.9971 41.4346 38.3691 41.4346C40.7422 41.4004 42.7832 37.4063 43.3789 35.6094C40.1953 34.1104 40.3662 31.2149 40.3662 31.1221ZM37.6025 23.1045C38.9355 21.5225 38.8135 20.0821 38.7744 19.5645C37.5977 19.6328 36.2354 20.3653 35.459 21.2686C34.6045 22.2354 34.1016 23.4317 34.209 24.7793C35.4834 24.877 36.6455 24.2227 37.6025 23.1045Z" fill="black"/>
</g>
<defs>
<filter id="filter0_d_102_2599" x="0" y="0" width="65" height="65" filterUnits="userSpaceOnUse" color-interpolation-filters="sRGB">
<feFlood flood-opacity="0" result="BackgroundImageFix"/>
<feColorMatrix in="SourceAlpha" type="matrix" values="0 0 0 0 0 0 0 0 0 0 0 0 0 0 0 0 0 0 127 0" result="hardAlpha"/>
<feOffset dx="-2" dy="2"/>
<feGaussianBlur stdDeviation="5"/>
<feComposite in2="hardAlpha" operator="out"/>
<feColorMatrix type="matrix" values="0 0 0 0 1 0 0 0 0 1 0 0 0 0 1 0 0 0 0.35 0"/>
<feBlend mode="normal" in2="BackgroundImageFix" result="effect1_dropShadow_102_2599"/>
<feBlend mode="normal" in="SourceGraphic" in2="effect1_dropShadow_102_2599" result="shape"/>
</filter>
</defs>
</svg>
