<?xml version="1.0" encoding="UTF-8"?>
<svg id="Layer_1" data-name="Layer 1" xmlns="http://www.w3.org/2000/svg" viewBox="0 0 290.75 186.9">
  <defs>
    <style>
      .cls-1 {
        fill: #f58148;
      }
    </style>
  </defs>
  <path class="cls-1" d="M67.22,111.59h-16.94v21.94h-16.84c-5.23,0-9.18,1.29-11.84,3.87-2.67,2.58-4,6.29-4,11.12,0,2.73.44,5.15,1.32,7.25.88,2.1,2.1,3.86,3.65,5.27s3.39,2.49,5.52,3.22c2.13.73,4.45,1.1,6.95,1.1,2.63,0,4.75-.4,6.35-1.2-.13-.83-.23-1.57-.3-2.2-.07-.63-.1-1.27-.1-1.9,0-1.4.17-2.84.52-4.32.35-1.48.88-2.83,1.6-4.05.72-1.22,1.63-2.21,2.75-2.97,1.12-.77,2.46-1.15,4.02-1.15.97,0,1.88.17,2.75.5.87.33,1.62.84,2.27,1.52.65.68,1.17,1.54,1.55,2.57.38,1.03.57,2.23.57,3.6s-.18,2.62-.55,3.77c-.37,1.15-.84,2.22-1.42,3.2-.58.98-1.24,1.9-1.97,2.75-.73.85-1.45,1.62-2.15,2.32.73,1.6,1.51,3.03,2.32,4.3.82,1.27,1.67,2.4,2.55,3.4.88,1,1.77,1.9,2.67,2.7s1.8,1.55,2.7,2.25l-6.15,6.45c-1.77-1.57-3.27-3.12-4.52-4.67-1.25-1.55-2.3-3.01-3.15-4.37-.85-1.37-1.54-2.6-2.07-3.7-.53-1.1-.97-1.98-1.3-2.65-2.3.9-5.13,1.35-8.5,1.35-4.33,0-8.11-.71-11.34-2.12-3.23-1.42-5.92-3.31-8.07-5.7-2.15-2.38-3.76-5.1-4.82-8.17-1.07-3.07-1.6-6.25-1.6-9.55s.55-6.45,1.65-9.07c1.1-2.62,2.63-4.81,4.6-6.6,1.97-1.78,4.31-3.13,7.02-4.05,2.72-.92,5.69-1.37,8.92-1.37h10.24v-14.64H0v-7.35h67.22v7.35Z"/>
  <path class="cls-1" d="M58.87,105.64h-7.25l-4.55-8.55c-1.93-3.63-3.69-6.51-5.27-8.65-1.58-2.13-3.08-3.76-4.5-4.87-1.42-1.12-2.81-1.83-4.17-2.15-1.37-.32-2.8-.47-4.3-.47h-9.7v-8.1h9.15c1.93,0,3.68.16,5.25.47,1.57.32,3.06.88,4.47,1.7,1.42.82,2.8,1.95,4.15,3.4,1.35,1.45,2.79,3.32,4.32,5.6,1.53,2.28,3.21,5.01,5.02,8.2,1.82,3.18,3.89,6.94,6.22,11.27l1.15,2.15Z"/>
  <path class="cls-1" d="M127.38,111.59h-10.49v67.17h-8.2v-17.84l-.2-.05c-.67.63-1.45,1.29-2.35,1.97-.9.68-1.93,1.3-3.1,1.85-1.17.55-2.47,1.01-3.92,1.38s-3.07.55-4.87.55c-3.3,0-6.31-.63-9.02-1.9-2.72-1.27-5.06-2.96-7.02-5.07-1.97-2.12-3.49-4.55-4.57-7.3-1.08-2.75-1.62-5.62-1.62-8.62s.54-5.79,1.62-8.37c1.08-2.58,2.57-4.82,4.47-6.72,1.9-1.9,4.11-3.39,6.65-4.47,2.53-1.08,5.25-1.62,8.15-1.62.8,0,1.81.07,3.02.2,1.22.13,2.52.43,3.92.9,1.4.47,2.85,1.14,4.35,2.02,1.5.88,2.93,2.07,4.3,3.57l.2-.05v-17.59h-44.98v-7.35h63.67v7.35ZM108.89,138.52c-2.1-2.53-4.38-4.57-6.85-6.12-2.47-1.55-5.26-2.32-8.4-2.32-2.47,0-4.56.47-6.27,1.4-1.72.93-3.12,2.11-4.22,3.52-1.1,1.42-1.9,2.99-2.4,4.72-.5,1.73-.75,3.4-.75,5,0,1.73.28,3.45.85,5.15.57,1.7,1.41,3.22,2.52,4.57,1.12,1.35,2.51,2.45,4.17,3.3,1.67.85,3.61,1.27,5.85,1.27s4.4-.44,6.3-1.32c1.9-.88,3.53-2.01,4.9-3.37,1.37-1.37,2.42-2.9,3.17-4.6.75-1.7,1.12-3.35,1.12-4.95v-6.25Z"/>
  <path class="cls-1" d="M153.97,111.59h-10.5v67.17h-8.2v-67.17h-11.39v-7.35h30.09v7.35Z"/>
  <path class="cls-1" d="M227.09,111.59h-10.5v67.22h-8.2v-46.83c-1.77-.63-3.43-.95-5-.95s-2.93.29-4.1.87c-1.17.58-2.14,1.36-2.92,2.32-.78.97-1.37,2.1-1.77,3.4-.4,1.3-.6,2.67-.6,4.1,0,.57.03,1.14.08,1.72.05.58.11,1.16.17,1.72h-7.65c-.27-1.93-.58-3.78-.92-5.55s-.85-3.32-1.5-4.65c-.65-1.33-1.49-2.39-2.52-3.17-1.03-.78-2.37-1.17-4-1.17s-2.91.32-4.02.95c-1.12.63-2.04,1.52-2.77,2.65-.73,1.13-1.27,2.46-1.62,3.97-.35,1.52-.53,3.16-.53,4.92,0,3.8.65,7.21,1.95,10.22,1.3,3.02,3.06,5.72,5.27,8.12,2.22,2.4,4.78,4.54,7.7,6.42,2.92,1.88,5.99,3.61,9.22,5.17l-4.05,6.9c-1.2-.53-2.74-1.33-4.62-2.4-1.88-1.07-3.88-2.38-6-3.95-2.12-1.57-4.24-3.4-6.37-5.5-2.13-2.1-4.06-4.45-5.77-7.05-1.72-2.6-3.11-5.46-4.17-8.6-1.07-3.13-1.6-6.51-1.6-10.14,0-2.8.4-5.41,1.2-7.82.8-2.42,1.94-4.51,3.42-6.3,1.48-1.78,3.27-3.18,5.37-4.2s4.43-1.52,7-1.52c1.93,0,3.6.27,5,.82,1.4.55,2.61,1.23,3.62,2.05,1.02.82,1.86,1.7,2.52,2.65.67.95,1.25,1.84,1.75,2.67l.25-.05c.63-1.4,1.39-2.58,2.27-3.55.88-.97,1.85-1.75,2.9-2.35,1.05-.6,2.16-1.04,3.32-1.32,1.17-.28,2.33-.42,3.5-.42,1.03,0,2.06.09,3.07.27,1.02.18,1.99.44,2.92.77v-12.44h-57.92v-7.35h76.61v7.35Z"/>
  <path class="cls-1" d="M290.75,111.59h-10.5v67.17h-8.2v-23.39l-.2-.05c-.9.73-1.97,1.46-3.22,2.17-1.25.72-2.64,1.35-4.17,1.9s-3.18,1-4.95,1.35c-1.77.35-3.62.52-5.55.52-3.87,0-7.17-.7-9.92-2.1-2.75-1.4-5.05-3.27-6.9-5.62-1.85-2.35-3.31-5.03-4.37-8.05-1.07-3.01-1.83-6.15-2.3-9.42,2.2-.3,4.08-.82,5.65-1.55,1.57-.73,2.83-1.61,3.8-2.62.97-1.02,1.67-2.12,2.12-3.32.45-1.2.67-2.4.67-3.6,0-.8-.08-1.7-.23-2.7-.15-1-.41-2.07-.77-3.22-.37-1.15-.85-2.36-1.45-3.62-.6-1.27-1.35-2.55-2.25-3.85h-14.44v-7.35h67.17v7.35ZM246.87,111.59c1.2,2.03,2.14,4.26,2.82,6.67s1.02,4.79,1.02,7.12c0,1.7-.22,3.35-.67,4.95-.45,1.6-1.14,3.09-2.07,4.47-.93,1.38-2.09,2.62-3.47,3.7-1.38,1.08-2.99,1.94-4.82,2.57.53,2.23,1.27,4.14,2.2,5.72.93,1.58,2.03,2.88,3.3,3.9,1.27,1.02,2.68,1.76,4.25,2.22,1.57.47,3.25.7,5.05.7s3.44-.2,5.12-.6c1.68-.4,3.28-.97,4.8-1.72,1.52-.75,2.92-1.66,4.22-2.72,1.3-1.07,2.45-2.27,3.45-3.6v-33.38h-25.19Z"/>
  <path class="cls-1" d="M86.01,104.2c.34,0-.03.18,0,0,.57-2.93,5.75-25.25,19.68-35.44,0,0,1.77-1.52,0-2.36s-2.58-4.07,2.06-4.46c.33-.03.59-.16.59-.34v-18.43h1.62v1.63c0,.16.21.3.51.33l42.63,5.1c.68.08.69.58.01.67l-42.21,5.45c-.3.04-.5.18-.5.33v5.2c0,.14.15.26.39.32,1.35.31,5.47,1.55.74,4.35-.07.04-.12.08-.14.13-.12.25-.39,1.14,1.17,2.03.03.02.06.04.08.06.75.73,14.88,14.58,16.03,22.74,0,0,1.47,2.21,2.65-.3,1.17-2.5,13.17-21.49,22.74-27.8.07-.05.11-.09.13-.15.33-1.27,4.57-16.91,14.48-19.98.23-.07.35-.19.32-.33-.24-.88-.79-4.19,4.45-5.04.28-.05.48-.17.48-.32V0h2.21v3.6c0,.16.22.3.53.34l74.31,7.74c.68.07.72.57.05.66l-74.27,10.96c-.28.04-.48.17-.48.33l-.28,13.65c0,.18.24.33.58.34,1.84.09,7.28.74,6.23,5.29-.02.1.03.21.18.28,1.64.81,11.7,6.29,13.76,19.3,0,.05.03.1.09.14,1.18,1,16.41,14.12,23.21,29.56,0,0,1.18,1.6,2.65-.61,0,0,10.61-20.33,16.8-23.38,0,0,1.92-1.29-1.03-1.98s-2.94-3.56,1.75-3.86c.34-.02.61-.16.61-.33l.58-19.11h1.77l-.13,1.63c-.01.16.2.31.5.35l42.63,5.61c.67.09.67.58,0,.66l-42.51,5.55c-.29.04-.49.17-.5.32l-.27,4.81c0,.15.17.28.44.33,1.76.31,7.74,1.62,1.9,4.57,0,0-1.77.69-.15,1.6s21.39,19.7,20.21,37.04c-.01.19-.05-1.09.33-1.09h22.66c.37,0,1.37.92,2.46-.13v7.21c-14.46.26-18.82.05-19.18.05l-209.74.08C61.46,111.53,0,111.72,0,111.53v-7.15c0-.19,51.5-.06,51.86-.06l34.15-.14Z"/>
</svg>