<?xml version="1.0" encoding="UTF-8"?>
<svg id="Layer_1" data-name="Layer 1" xmlns="http://www.w3.org/2000/svg" viewBox="0 0 290.75 212.34">
  <defs>
    <style>
      .cls-1, .cls-2 {
        fill: #f58148;
      }

      .cls-2 {
        font-family: NirmalaUI, 'Nirmala UI';
        font-size: 102.35px;
      }
    </style>
  </defs>
  <text class="cls-2" transform="translate(1.75 178.75)"><tspan x="0" y="0">देवालय</tspan></text>
  <path class="cls-1" d="M86.01,104.2c.34,0-.03.18,0,0,.57-2.93,5.75-25.25,19.68-35.44,0,0,1.77-1.52,0-2.36s-2.58-4.07,2.06-4.46c.33-.03.59-.16.59-.34v-18.43h1.62v1.63c0,.16.21.3.51.33l42.63,5.1c.68.08.69.58.01.67l-42.21,5.45c-.3.04-.5.18-.5.33v5.2c0,.14.15.26.39.32,1.35.31,5.47,1.55.74,4.35-.07.04-.12.08-.14.13-.12.25-.39,1.14,1.17,2.03.03.02.06.04.08.06.75.73,14.88,14.58,16.03,22.74,0,0,1.47,2.21,2.65-.3,1.17-2.5,13.17-21.49,22.74-27.8.07-.05.11-.09.13-.15.33-1.27,4.57-16.91,14.48-19.98.23-.07.35-.19.32-.33-.24-.88-.79-4.19,4.45-5.04.28-.05.48-.17.48-.32V0h2.21v3.6c0,.16.22.3.53.34l74.31,7.74c.68.07.72.57.05.66l-74.27,10.96c-.28.04-.48.17-.48.33l-.28,13.65c0,.18.24.33.58.34,1.84.09,7.28.74,6.23,5.29-.02.1.03.21.18.28,1.64.81,11.7,6.29,13.76,19.3,0,.05.03.1.09.14,1.18,1,16.41,14.12,23.21,29.56,0,0,1.18,1.6,2.65-.61,0,0,10.61-20.33,16.8-23.38,0,0,1.92-1.29-1.03-1.98s-2.94-3.56,1.75-3.86c.34-.02.61-.16.61-.33l.58-19.11h1.77l-.13,1.63c-.01.16.2.31.5.35l42.63,5.61c.67.09.67.58,0,.66l-42.51,5.55c-.29.04-.49.17-.5.32l-.27,4.81c0,.15.17.28.44.33,1.76.31,7.74,1.62,1.9,4.57,0,0-1.77.69-.15,1.6s21.39,19.7,20.21,37.04c-.01.19-.05-1.09.33-1.09h22.66c.37,0,1.37.92,2.46-.13v7.21c-14.46.26-18.82.05-19.18.05l-209.74.08c-.37,0-61.82.19-61.82,0v-7.15c0-.19,51.5-.06,51.86-.06l34.15-.14Z"/>
</svg>