<svg width="65" height="65" viewBox="0 0 65 65" fill="none" xmlns="http://www.w3.org/2000/svg">
<g filter="url(#filter0_d_102_2600)">
<rect x="12" y="8" width="45" height="45" rx="22.5" fill="white" shape-rendering="crispEdges"/>
<rect x="12.5" y="8.5" width="44" height="44" rx="22" stroke="black" stroke-opacity="0.12" shape-rendering="crispEdges"/>
<path d="M44 30.7339C44 36.4395 40.0287 40.5 34.1639 40.5C28.541 40.5 24 36.0323 24 30.5C24 24.9677 28.541 20.5 34.1639 20.5C36.9016 20.5 39.2049 21.4879 40.9795 23.1169L38.2131 25.7339C34.5943 22.2984 27.8648 24.879 27.8648 30.5C27.8648 33.9879 30.6967 36.8145 34.1639 36.8145C38.1885 36.8145 39.6967 33.9758 39.9344 32.504H34.1639V29.0645H43.8402C43.9344 29.5766 44 30.0685 44 30.7339Z" fill="url(#paint0_angular_102_2600)"/>
</g>
<defs>
<filter id="filter0_d_102_2600" x="0" y="0" width="65" height="65" filterUnits="userSpaceOnUse" color-interpolation-filters="sRGB">
<feFlood flood-opacity="0" result="BackgroundImageFix"/>
<feColorMatrix in="SourceAlpha" type="matrix" values="0 0 0 0 0 0 0 0 0 0 0 0 0 0 0 0 0 0 127 0" result="hardAlpha"/>
<feOffset dx="-2" dy="2"/>
<feGaussianBlur stdDeviation="5"/>
<feComposite in2="hardAlpha" operator="out"/>
<feColorMatrix type="matrix" values="0 0 0 0 1 0 0 0 0 1 0 0 0 0 1 0 0 0 0.35 0"/>
<feBlend mode="normal" in2="BackgroundImageFix" result="effect1_dropShadow_102_2600"/>
<feBlend mode="normal" in="SourceGraphic" in2="effect1_dropShadow_102_2600" result="shape"/>
</filter>
<radialGradient id="paint0_angular_102_2600" cx="0" cy="0" r="1" gradientUnits="userSpaceOnUse" gradientTransform="translate(34 30.5) rotate(78.2614) scale(39.3224)">
<stop offset="0.126637" stop-color="#1A420C" stop-opacity="0.81"/>
<stop offset="0.311229" stop-color="#DCBE21"/>
<stop offset="0.551078" stop-color="#F52113" stop-opacity="0.83"/>
<stop offset="0.791667" stop-color="#0019FF" stop-opacity="0.71"/>
<stop offset="0.917777" stop-color="#0B300A"/>
</radialGradient>
</defs>
</svg>
