<svg width="20" height="20" viewBox="0 0 20 20" fill="none" xmlns="http://www.w3.org/2000/svg">
<path d="M11.8752 6.25C11.7095 6.25 11.5505 6.31585 11.4333 6.43306C11.3161 6.55027 11.2502 6.70924 11.2502 6.875C11.2502 7.04076 11.3161 7.19973 11.4333 7.31694C11.5505 7.43415 11.7095 7.5 11.8752 7.5H15.6252C15.791 7.5 15.95 7.43415 16.0672 7.31694C16.1844 7.19973 16.2502 7.04076 16.2502 6.875C16.2502 6.70924 16.1844 6.55027 16.0672 6.43306C15.95 6.31585 15.791 6.25 15.6252 6.25H11.8752ZM11.8752 8.75C11.7095 8.75 11.5505 8.81585 11.4333 8.93306C11.3161 9.05027 11.2502 9.20924 11.2502 9.375C11.2502 9.54076 11.3161 9.69973 11.4333 9.81694C11.5505 9.93415 11.7095 10 11.8752 10H15.6252C15.791 10 15.95 9.93415 16.0672 9.81694C16.1844 9.69973 16.2502 9.54076 16.2502 9.375C16.2502 9.20924 16.1844 9.05027 16.0672 8.93306C15.95 8.81585 15.791 8.75 15.6252 8.75H11.8752ZM11.2502 11.875C11.2502 11.7092 11.3161 11.5503 11.4333 11.4331C11.5505 11.3158 11.7095 11.25 11.8752 11.25H14.3752C14.541 11.25 14.7 11.3158 14.8172 11.4331C14.9344 11.5503 15.0002 11.7092 15.0002 11.875C15.0002 12.0408 14.9344 12.1997 14.8172 12.3169C14.7 12.4342 14.541 12.5 14.3752 12.5H11.8752C11.7095 12.5 11.5505 12.4342 11.4333 12.3169C11.3161 12.1997 11.2502 12.0408 11.2502 11.875ZM8.26273 8.125C8.26273 9.16 7.36398 10 6.25023 10C5.13648 10 4.23773 9.16 4.23773 8.125C4.23773 7.09 5.13648 6.25 6.25023 6.25C7.36398 6.25 8.26273 7.09 8.26273 8.125ZM6.25023 10H6.20023C5.05023 10 4.05023 10.7313 3.77523 11.775C3.67523 12.1438 3.97523 12.5025 4.38148 12.5025H8.13148C8.53898 12.5025 8.83773 12.145 8.73898 11.775C8.46023 10.7325 7.46398 10 6.31398 10H6.26398H6.25023Z" fill="black"/>
<path fill-rule="evenodd" clip-rule="evenodd" d="M0.40875 4.55016C0 5.35266 0 6.40016 0 8.50016V11.5002C0 13.6002 0 14.6502 0.40875 15.4502C0.769548 16.1541 1.34234 16.7269 2.04625 17.0877C2.84875 17.4964 3.89625 17.4964 5.99625 17.4964H13.9962C16.0962 17.4964 17.1462 17.4964 17.9463 17.0877C18.6512 16.7282 19.2243 16.1551 19.5837 15.4502C19.9925 14.6477 19.9925 13.6002 19.9925 11.5002V8.50016C19.9925 6.40016 19.9925 5.35016 19.5837 4.55016C19.2243 3.84523 18.6512 3.27206 17.9463 2.91266C17.1438 2.50391 16.0962 2.50391 13.9962 2.50391H5.99625C3.89625 2.50391 2.84625 2.50391 2.04625 2.91266C1.34234 3.27345 0.769548 3.84625 0.40875 4.55016ZM14.0338 3.75266H6.03375C4.9625 3.75266 4.23375 3.75266 3.67125 3.80016C3.12375 3.84391 2.8425 3.92516 2.6475 4.02516C2.17712 4.26484 1.79468 4.64727 1.555 5.11766C1.455 5.31266 1.37375 5.59266 1.33 6.14141C1.28375 6.70391 1.2825 7.42891 1.2825 8.50391V11.5039C1.2825 12.5752 1.28375 13.3039 1.33 13.8664C1.375 14.4139 1.45625 14.6952 1.555 14.8902C1.795 15.3602 2.1775 15.7427 2.6475 15.9827C2.8425 16.0827 3.12375 16.1639 3.67125 16.2077C4.23375 16.2527 4.95875 16.2539 6.03375 16.2539H14.0338C15.105 16.2539 15.8337 16.2539 16.3962 16.2077C16.9438 16.1627 17.225 16.0814 17.42 15.9827C17.89 15.7427 18.2725 15.3602 18.5125 14.8902C18.6125 14.6952 18.6938 14.4139 18.7375 13.8652C18.7838 13.3027 18.785 12.5777 18.785 11.5027V8.50266C18.785 7.43266 18.7838 6.70266 18.7375 6.14016C18.6925 5.59391 18.6112 5.31266 18.5125 5.11766C18.2728 4.64727 17.8904 4.26484 17.42 4.02516C17.225 3.92516 16.9438 3.84391 16.3962 3.80016C15.8337 3.75391 15.1088 3.75266 14.0338 3.75266Z" fill="black"/>
</svg>
