<svg width="20" height="20" viewBox="0 0 20 20" fill="none" xmlns="http://www.w3.org/2000/svg">
<path d="M14 10H15.4C15.5591 10 15.7117 10.0632 15.8243 10.1757C15.9368 10.2883 16 10.4409 16 10.6V17.4C16 17.5591 15.9368 17.7117 15.8243 17.8243C15.7117 17.9368 15.5591 18 15.4 18H4.6C4.44087 18 4.28826 17.9368 4.17574 17.8243C4.06321 17.7117 4 17.5591 4 17.4V10.6C4 10.4409 4.06321 10.2883 4.17574 10.1757C4.28826 10.0632 4.44087 10 4.6 10H6M14 10V6C14 4.667 13.2 2 10 2C6.8 2 6 4.667 6 6V10M14 10H6" stroke="black" stroke-width="1.5" stroke-linecap="round" stroke-linejoin="round"/>
</svg>
