<svg width="23" height="24" viewBox="0 0 23 24" fill="none" xmlns="http://www.w3.org/2000/svg">
<path fill-rule="evenodd" clip-rule="evenodd" d="M12.208 0.904491L22.608 10.7059C22.8076 10.894 22.92 11.1514 22.92 11.4201V23.4997C22.92 23.7758 22.6872 23.9997 22.4 23.9997H15.12C14.8329 23.9997 14.6 23.7758 14.6 23.4997V18C14.6 16.4023 13.3012 15.0963 11.6634 15.0051L11.48 15C9.81845 15 8.46023 16.2489 8.36534 17.8237L8.36004 18V23.4997C8.36002 23.7758 8.12722 23.9996 7.84004 23.9997L0.560039 24C0.304761 24 0.0924385 23.8231 0.0483987 23.5899L0.0400391 23.5V11.4201C0.0400391 11.1514 0.152493 10.894 0.352059 10.7059L10.7521 0.904491C11.1565 0.523373 11.8036 0.523373 12.208 0.904491Z" fill="#262626"/>
</svg>
