<?xml version="1.0" standalone="no"?>
<!DOCTYPE svg PUBLIC "-//W3C//DTD SVG 20010904//EN"
 "http://www.w3.org/TR/2001/REC-SVG-20010904/DTD/svg10.dtd">
<svg version="1.0" xmlns="http://www.w3.org/2000/svg"
 width="80.000000pt" height="80.000000pt" viewBox="0 0 80.000000 80.000000"
 preserveAspectRatio="xMidYMid meet">

<g transform="translate(0.000000,80.000000) scale(0.100000,-0.100000)"
fill="#000000" stroke="none">
<path d="M124 710 c-53 -21 -54 -30 -54 -367 l0 -313 25 -16 c34 -22 48 -15
162 86 l93 81 105 -85 c110 -89 139 -101 168 -68 15 16 17 53 17 315 0 208 -4
304 -12 322 -23 50 -49 55 -275 54 -114 0 -218 -4 -229 -9z m446 -60 c19 -19
20 -33 20 -306 0 -161 -4 -283 -9 -280 -5 3 -53 42 -107 86 -65 53 -107 80
-124 80 -17 0 -56 -27 -125 -87 l-100 -86 -3 289 c-2 285 -2 289 19 307 19 15
45 17 215 17 181 0 195 -1 214 -20z"/>
</g>
</svg>
