<svg width="25" height="24" viewBox="0 0 25 24" fill="none" xmlns="http://www.w3.org/2000/svg">
<g clip-path="url(#clip0_21_25698)">
<path d="M20.2428 14.7271C20.2916 14.7269 20.3404 14.7266 20.3907 14.7264C20.4691 14.7263 20.4691 14.7263 20.5491 14.7262C20.6034 14.7261 20.6577 14.726 20.7136 14.7258C20.8284 14.7256 20.9432 14.7255 21.0581 14.7255C21.2329 14.7254 21.4077 14.7247 21.5825 14.7239C21.6942 14.7238 21.806 14.7237 21.9177 14.7237C21.9696 14.7234 22.0216 14.7231 22.0751 14.7228C22.6102 14.7242 22.9695 14.7838 23.3568 15.1153C23.6892 15.4369 23.679 15.7548 23.6784 16.1667C23.6788 16.2264 23.6793 16.286 23.6798 16.3456C23.6811 16.5071 23.6814 16.6686 23.6815 16.83C23.6816 16.9311 23.6819 17.0322 23.6822 17.1333C23.6835 17.4865 23.6841 17.8397 23.684 18.193C23.6839 18.5213 23.6854 18.8495 23.6876 19.1778C23.6894 19.4604 23.6901 19.7431 23.6901 20.0257C23.69 20.1941 23.6904 20.3626 23.6919 20.531C23.6932 20.6897 23.6932 20.8483 23.6922 21.0069C23.6921 21.0648 23.6924 21.1226 23.6933 21.1805C23.6986 21.5687 23.6345 21.8672 23.3798 22.1924C23.0835 22.4548 22.7219 22.5592 22.3034 22.571C22.1944 22.5718 22.0854 22.5719 21.9764 22.5714C21.9183 22.5715 21.8602 22.5716 21.8003 22.5717C21.6467 22.5718 21.4931 22.5714 21.3395 22.5707C21.2458 22.5704 21.1522 22.5707 21.0585 22.5711C20.8774 22.5718 20.6962 22.5718 20.5151 22.5714C20.432 22.5718 20.432 22.5718 20.3472 22.5721C19.8549 22.5686 19.5175 22.4977 19.1559 22.2005C19.0162 22.0638 18.8797 21.8981 18.8797 21.7086C17.9515 21.696 17.1716 21.8167 16.2904 22.0664C16.1715 22.0989 16.0527 22.1312 15.9337 22.1634C15.716 22.2224 15.4984 22.2818 15.2811 22.3418C14.6834 22.5069 14.0832 22.6645 13.4827 22.8215C13.2902 22.8719 13.0979 22.9226 12.9056 22.9735C12.8147 22.9976 12.7238 23.0216 12.6329 23.0456C12.5223 23.0747 12.4118 23.104 12.3014 23.1334C11.2607 23.4065 10.5564 23.2969 9.59706 22.8691C9.52145 22.8359 9.44582 22.8028 9.37016 22.7697C9.17183 22.6829 8.97389 22.5954 8.77605 22.5077C8.57807 22.4201 8.3798 22.3331 8.18152 22.246C8.14294 22.229 8.10437 22.2121 8.06463 22.1947C7.98746 22.1608 7.91028 22.1269 7.83311 22.093C7.71806 22.0425 7.60306 21.9919 7.48806 21.9412C7.06453 21.755 6.63947 21.5725 6.21031 21.3963C5.54665 21.123 4.89011 20.8368 4.23281 20.5521C4.07207 20.4826 3.9112 20.4132 3.75021 20.3441C3.55265 20.2592 3.35531 20.174 3.15814 20.0884C3.08398 20.0563 3.00974 20.0244 2.93542 19.9926C2.26083 19.7036 1.73802 19.4306 1.43873 18.7979C1.28224 18.3244 1.37542 17.8469 1.633 17.4188C1.86937 17.0756 2.23711 16.8146 2.67721 16.6938C2.86558 16.662 3.04775 16.6497 3.23937 16.6457C3.27214 16.6446 3.30491 16.6436 3.33868 16.6424C3.91329 16.646 4.47589 16.9511 4.98285 17.1633C5.17562 17.2439 5.36875 17.3239 5.56193 17.4038C5.60085 17.4199 5.63978 17.436 5.67988 17.4526C6.07041 17.6138 6.46369 17.7695 6.85804 17.9234C6.88937 17.9357 6.9207 17.9479 6.95298 17.9605C7.1242 18.0273 7.29552 18.0939 7.46695 18.1603C7.47254 18.1274 7.47813 18.0944 7.48389 18.0605C7.49163 18.0171 7.49938 17.9738 7.50737 17.9291C7.51487 17.8862 7.52237 17.8432 7.5301 17.799C7.6097 17.4699 7.89236 17.2129 8.20925 17.0313C8.5854 16.8823 8.95821 16.8971 9.36278 16.9024C9.48774 16.9039 9.61266 16.9044 9.73763 16.9046C10.0927 16.9052 10.4477 16.9066 10.8027 16.911C11.0207 16.9137 11.2386 16.9143 11.4566 16.9137C11.5389 16.9139 11.6212 16.9148 11.7035 16.9164C12.2914 16.9279 12.6402 16.8339 13.101 16.5141C13.2797 16.3972 13.4874 16.319 13.6894 16.2375C13.7574 16.2098 13.7574 16.2098 13.8266 16.1816C15.4369 15.5408 17.1747 15.3734 18.9261 15.4991C18.939 15.4621 18.9519 15.4252 18.9652 15.3871C19.0893 15.0866 19.3235 14.9455 19.6468 14.8114C19.845 14.7454 20.0316 14.7279 20.2428 14.7271ZM19.6771 15.5797C19.5768 15.7265 19.5696 15.846 19.5688 16.0132C19.5684 16.0615 19.5681 16.1098 19.5678 16.1596C19.5676 16.2127 19.5675 16.2658 19.5674 16.3205C19.5671 16.377 19.5668 16.4334 19.5665 16.4898C19.5655 16.6752 19.565 16.8606 19.5645 17.046C19.5644 17.1098 19.5642 17.1736 19.564 17.2375C19.5631 17.5374 19.5624 17.8373 19.562 18.1372C19.5616 18.4833 19.5604 18.8294 19.5585 19.1755C19.5571 19.4431 19.5564 19.7106 19.5562 19.9782C19.5561 20.138 19.5557 20.2978 19.5546 20.4576C19.5535 20.6079 19.5533 20.7583 19.5538 20.9086C19.5538 20.99 19.5529 21.0713 19.552 21.1526C19.5494 21.5056 19.5494 21.5056 19.7612 21.7892C19.9241 21.898 20.0414 21.9254 20.245 21.9258C20.3189 21.9264 20.3189 21.9264 20.3942 21.927C20.447 21.9267 20.4997 21.9265 20.554 21.9263C20.6086 21.9264 20.6633 21.9265 20.7195 21.9266C20.8349 21.9267 20.9503 21.9265 21.0657 21.926C21.242 21.9253 21.4184 21.926 21.5947 21.9267C21.7069 21.9266 21.8191 21.9265 21.9313 21.9263C21.984 21.9265 22.0366 21.9267 22.0908 21.927C22.455 21.9263 22.455 21.9263 22.7767 21.7892C22.9049 21.6365 22.9335 21.5291 22.9342 21.3415C22.9347 21.292 22.9353 21.2426 22.9358 21.1916C22.9357 21.1371 22.9355 21.0827 22.9354 21.0282C22.9357 20.9705 22.9361 20.9129 22.9366 20.8553C22.9376 20.699 22.9377 20.5427 22.9377 20.3864C22.9377 20.2558 22.9381 20.1253 22.9384 19.9947C22.9393 19.6867 22.9395 19.3786 22.9392 19.0705C22.9388 18.7529 22.9399 18.4353 22.9416 18.1177C22.9431 17.8448 22.9436 17.5719 22.9434 17.299C22.9433 17.1361 22.9436 16.9733 22.9447 16.8104C22.9457 16.6571 22.9456 16.504 22.9447 16.3508C22.9445 16.2946 22.9448 16.2385 22.9454 16.1823C22.9616 15.8469 22.9616 15.8469 22.8126 15.5495C22.6131 15.4089 22.4632 15.3682 22.2086 15.3671C22.1612 15.3667 22.1138 15.3663 22.065 15.3659C22.0143 15.3659 21.9636 15.366 21.9114 15.366C21.8588 15.3658 21.8063 15.3657 21.7521 15.3655C21.6411 15.3653 21.5301 15.3652 21.4191 15.3654C21.2494 15.3655 21.0798 15.3646 20.9102 15.3636C20.8022 15.3635 20.6943 15.3634 20.5863 15.3635C20.5104 15.3629 20.5104 15.3629 20.4329 15.3624C20.1316 15.364 19.8917 15.374 19.6771 15.5797ZM13.7822 16.9255C13.7542 16.9381 13.7262 16.9508 13.6973 16.9639C13.5425 17.0373 13.4039 17.1129 13.2657 17.2092C12.7799 17.5403 12.3814 17.5702 11.7784 17.5577C11.6907 17.5574 11.6029 17.5574 11.5151 17.5575C11.2861 17.5574 11.0572 17.5551 10.8283 17.5521C10.4606 17.5477 10.0928 17.5464 9.72505 17.5457C9.59719 17.5451 9.46941 17.5433 9.34157 17.5414C9.26317 17.5409 9.18478 17.5404 9.10638 17.5399C9.07117 17.539 9.03595 17.5382 8.99967 17.5373C8.75908 17.5372 8.62712 17.5862 8.44121 17.7168C8.26655 17.8686 8.21351 17.9854 8.20925 18.2006C8.28454 18.4115 8.38964 18.54 8.58039 18.6845C8.72917 18.7491 8.89117 18.7313 9.05464 18.7318C9.11384 18.7322 9.11384 18.7322 9.17424 18.7326C9.26018 18.7332 9.34612 18.7337 9.43206 18.7341C9.56844 18.7347 9.7048 18.7357 9.84117 18.7367C10.229 18.7395 10.6168 18.742 11.0047 18.744C11.2418 18.7453 11.479 18.747 11.7161 18.7489C11.8062 18.7495 11.8963 18.75 11.9864 18.7504C13.4252 18.756 13.4252 18.756 13.9736 19.191C14.2935 19.4876 14.4754 19.8571 14.4839 20.2621C14.4851 20.2963 14.4863 20.3305 14.4876 20.3657C14.4691 20.4784 14.436 20.5116 14.3332 20.5796C14.1617 20.6266 14.0422 20.6128 13.8692 20.5796C13.8613 20.5387 13.8534 20.4979 13.8453 20.4558C13.834 20.4013 13.8226 20.3468 13.8112 20.2923C13.8061 20.2655 13.8011 20.2387 13.7958 20.211C13.7273 19.8913 13.5237 19.6727 13.2197 19.4909C12.9411 19.3807 12.6775 19.3525 12.3746 19.3551C12.3341 19.3549 12.2936 19.3548 12.2519 19.3546C12.1647 19.3544 12.0775 19.3544 11.9904 19.3546C11.852 19.355 11.7137 19.3546 11.5754 19.3539C11.1823 19.3523 10.7893 19.3523 10.3962 19.3524C10.1551 19.3524 9.91394 19.3516 9.67281 19.3504C9.53717 19.35 9.40156 19.3504 9.26592 19.3509C8.48879 19.3497 8.48879 19.3497 8.11646 19.1683C8.0555 19.1427 7.9945 19.1172 7.93345 19.0918C7.87561 19.0661 7.81785 19.0403 7.76017 19.0143C7.43225 18.8694 7.10025 18.7349 6.76451 18.6044C6.06424 18.3319 5.37032 18.0483 4.67835 17.7603C3.79894 17.3452 3.79894 17.3452 2.8385 17.3479C2.51294 17.4724 2.32295 17.6575 2.17196 17.934C2.07825 18.1794 2.08284 18.4667 2.21002 18.7021C2.47212 19.0863 2.94206 19.2646 3.38598 19.4559C3.43029 19.4752 3.4746 19.4944 3.52026 19.5143C3.61399 19.5549 3.70776 19.5955 3.80158 19.636C3.94124 19.6964 4.08075 19.757 4.22024 19.8176C4.31232 19.8575 4.40441 19.8974 4.49652 19.9373C4.53652 19.9546 4.57653 19.972 4.61775 19.9899C4.88404 20.1048 5.15174 20.2168 5.4202 20.3278C5.96525 20.5533 6.50611 20.7852 7.045 21.0215C7.18838 21.0844 7.33186 21.1471 7.47535 21.2097C7.8824 21.3875 8.28938 21.5653 8.69607 21.7437C8.94711 21.8537 9.19833 21.9635 9.44968 22.073C9.54454 22.1145 9.63933 22.156 9.73405 22.1977C9.8661 22.2557 9.99839 22.3134 10.1307 22.371C10.169 22.3879 10.2073 22.4049 10.2468 22.4224C10.8303 22.6746 11.2576 22.7162 11.8827 22.5567C11.9587 22.5378 11.9587 22.5378 12.0362 22.5184C12.5781 22.3823 13.1175 22.239 13.6566 22.0947C13.8338 22.0474 14.011 22.0005 14.1884 21.9537C14.7025 21.8178 15.2164 21.6817 15.7277 21.5381C15.9187 21.4846 16.1102 21.4323 16.3016 21.3801C16.3883 21.3562 16.4748 21.3317 16.561 21.3066C17.3485 21.0777 17.9547 21.0889 18.8333 21.0634C18.8333 19.4401 18.8333 17.8168 18.8333 16.1442C17.11 15.957 15.3228 16.2269 13.7822 16.9255Z" fill="#EC9111"/>
<path d="M9.44002 0.103654C9.6536 0.254559 9.80178 0.435069 9.94487 0.646464C9.98563 0.705145 10.0264 0.763799 10.0673 0.822431C10.0985 0.867544 10.0985 0.867544 10.1303 0.913569C10.2358 1.06459 10.3448 1.21327 10.4536 1.36207C10.6079 1.57357 10.7617 1.78538 10.9139 1.99826C10.9956 2.11224 11.0784 2.22541 11.1619 2.33817C11.1823 2.36568 11.2026 2.3932 11.2235 2.42155C11.2636 2.47571 11.3038 2.52978 11.3441 2.58377C11.3712 2.62042 11.3712 2.62042 11.3989 2.65782C11.4151 2.67962 11.4313 2.70143 11.4481 2.72389C11.483 2.77826 11.483 2.77826 11.483 2.83836C11.5176 2.83718 11.5176 2.83718 11.553 2.83598C11.6593 2.83283 11.7656 2.83089 11.8719 2.82897C11.9264 2.82708 11.9264 2.82708 11.9821 2.82516C12.253 2.8215 12.4688 2.86269 12.6745 3.04053C12.8786 3.243 12.9142 3.47936 12.9111 3.74931C12.911 3.77706 12.9108 3.80481 12.9107 3.8334C12.9062 4.04011 12.8727 4.21596 12.7716 4.40106C12.7612 4.42089 12.7509 4.44072 12.7402 4.46116C12.7755 4.46375 12.8108 4.46635 12.8471 4.46902C13.16 4.49561 13.4269 4.52457 13.6477 4.7598C13.8653 5.05966 13.8832 5.38108 13.8224 5.73754C13.7847 5.88999 13.7409 6.01167 13.6517 6.14406C13.6869 6.14483 13.7222 6.14561 13.7586 6.14641C14.0926 6.15714 14.3741 6.18055 14.626 6.41452C14.7967 6.62901 14.8268 6.81945 14.8263 7.0813C14.8263 7.1094 14.8262 7.13751 14.8262 7.16647C14.8193 7.53684 14.6873 7.8188 14.4076 8.07711C14.2085 8.23268 14.033 8.27724 13.7774 8.30779C13.7774 9.79535 13.7774 11.2829 13.7774 12.8155C13.8915 12.8155 14.0056 12.8155 14.1231 12.8155C14.5191 12.8847 14.8006 13.077 15.0346 13.3865C15.1404 13.5826 15.1961 13.7757 15.1948 13.9966C15.1947 14.026 15.1946 14.0553 15.1945 14.0855C15.1942 14.1158 15.194 14.1461 15.1937 14.1773C15.1935 14.2081 15.1934 14.239 15.1933 14.2708C15.1929 14.3467 15.1924 14.4226 15.1917 14.4984C15.2252 14.4977 15.2586 14.4969 15.2931 14.4961C15.4176 14.4933 15.542 14.4916 15.6665 14.4902C15.7203 14.4894 15.7741 14.4884 15.8279 14.4871C15.9054 14.4853 15.9828 14.4844 16.0603 14.4838C16.0843 14.483 16.1082 14.4822 16.1329 14.4814C16.2594 14.4814 16.3163 14.4932 16.417 14.5689C16.4804 14.6487 16.4804 14.6487 16.5 14.7389C16.4732 14.8618 16.4254 14.9015 16.3232 14.9793C16.2343 14.9941 16.1643 14.9995 16.0756 14.9982C16.0383 14.9985 16.0383 14.9985 16.0002 14.9988C15.9166 14.9994 15.833 14.9989 15.7493 14.9984C15.6889 14.9985 15.6285 14.9988 15.568 14.9991C15.4017 14.9997 15.2354 14.9994 15.069 14.9989C14.8897 14.9986 14.7105 14.9991 14.5312 14.9995C14.1798 15.0002 13.8285 15 13.4772 14.9996C13.1918 14.9993 12.9063 14.9992 12.6209 14.9994C12.5803 14.9994 12.5397 14.9994 12.4979 14.9995C12.4154 14.9995 12.333 14.9995 12.2506 14.9996C11.4991 15 10.7477 14.9996 9.99621 14.9988C9.31002 14.9981 8.62383 14.9981 7.93764 14.9989C7.16694 14.9997 6.39625 15 5.62556 14.9995C5.54342 14.9995 5.46128 14.9994 5.37915 14.9994C5.33873 14.9994 5.29832 14.9993 5.25667 14.9993C4.97147 14.9992 4.68627 14.9994 4.40106 14.9998C4.05363 15.0002 3.7062 15.0001 3.35877 14.9993C3.1814 14.9989 3.00405 14.9987 2.82668 14.9992C2.66445 14.9997 2.50224 14.9994 2.34 14.9986C2.28119 14.9984 2.22237 14.9985 2.16355 14.9989C2.08382 14.9993 2.00416 14.9989 1.92443 14.9982C1.90139 14.9985 1.87835 14.9989 1.85461 14.9993C1.73267 14.9971 1.68059 14.9822 1.58397 14.9086C1.51964 14.829 1.51964 14.829 1.5 14.7389C1.5269 14.6154 1.57351 14.576 1.67679 14.4984C1.77083 14.4853 1.84621 14.4807 1.93965 14.4838C1.96454 14.484 1.98944 14.4842 2.01508 14.4844C2.09421 14.4853 2.17326 14.4871 2.25236 14.4891C2.30615 14.4898 2.35995 14.4905 2.41374 14.4911C2.54528 14.4928 2.67677 14.4954 2.80828 14.4984C2.80762 14.4805 2.80696 14.4625 2.80628 14.444C2.77913 13.5883 2.77913 13.5883 3.06745 13.2615C3.31206 13.0162 3.52682 12.8825 3.8769 12.8155C3.99099 12.8155 4.10508 12.8155 4.22263 12.8155C4.22263 11.328 4.22263 9.84042 4.22263 8.30779C4.13965 8.29787 4.05668 8.28795 3.97119 8.27773C3.69542 8.19075 3.46574 8.01169 3.32258 7.77026C3.20999 7.53923 3.17837 7.35281 3.17562 7.10008C3.1747 7.07279 3.17379 7.0455 3.17285 7.01738C3.17035 6.76033 3.24658 6.54172 3.43688 6.35442C3.6462 6.20214 3.8374 6.16527 4.09298 6.15533C4.11761 6.15417 4.14225 6.153 4.16763 6.15181C4.22786 6.149 4.2881 6.1465 4.34835 6.14406C4.31918 6.09385 4.31918 6.09385 4.28942 6.04263C4.13947 5.75233 4.11482 5.40112 4.17941 5.08473C4.2694 4.85008 4.39513 4.67866 4.62668 4.55589C4.82945 4.48484 5.04572 4.47493 5.25982 4.46116C5.25111 4.44303 5.2424 4.4249 5.23343 4.40622C5.22204 4.3822 5.21066 4.35818 5.19893 4.33344C5.18762 4.30973 5.17632 4.28602 5.16467 4.2616C5.09372 4.09703 5.09477 3.94026 5.09285 3.76433C5.09148 3.7234 5.09148 3.7234 5.09009 3.68163C5.08774 3.44019 5.1582 3.27158 5.29518 3.07127C5.51014 2.87466 5.72467 2.8212 6.01795 2.82516C6.05429 2.82642 6.09063 2.82768 6.12808 2.82897C6.16564 2.82965 6.20319 2.83033 6.24189 2.83103C6.33364 2.83278 6.42531 2.83524 6.51702 2.83836C6.5261 2.81542 6.53518 2.79248 6.54453 2.76885C6.58866 2.66805 6.65181 2.58562 6.71936 2.4984C6.74808 2.46063 6.77677 2.42283 6.80542 2.38501C6.82019 2.36553 6.83497 2.34605 6.85019 2.32599C6.92005 2.23293 6.98769 2.13845 7.05526 2.04387C7.22111 1.81215 7.3888 1.58168 7.55669 1.35131C7.66779 1.19875 7.77852 1.04598 7.88832 0.892557C7.9426 0.816728 7.99712 0.741052 8.05176 0.665451C8.0872 0.61638 8.12249 0.567211 8.15777 0.518039C8.4676 0.0962984 8.90721 -0.152418 9.44002 0.103654ZM8.66626 0.673001C8.61136 0.745122 8.55885 0.818393 8.50694 0.892513C8.48765 0.919462 8.46836 0.946413 8.44849 0.974179C8.40932 1.02895 8.3703 1.08382 8.33142 1.13878C8.27091 1.22433 8.20976 1.30944 8.14845 1.39446C8.10726 1.45161 8.06622 1.50885 8.02518 1.56609C7.90951 1.72709 7.79271 1.88732 7.67601 2.04763C7.65446 2.07726 7.63291 2.1069 7.61071 2.13743C7.51864 2.26401 7.42648 2.39052 7.33347 2.51648C7.3133 2.54393 7.3133 2.54393 7.29272 2.57193C7.25853 2.61843 7.22418 2.66484 7.18982 2.71123C7.14004 2.77353 7.14004 2.77353 7.14563 2.83836C8.36951 2.83836 9.5934 2.83836 10.8544 2.83836C10.8098 2.73173 10.7815 2.66657 10.715 2.57858C10.6925 2.54847 10.6925 2.54847 10.6695 2.51776C10.6534 2.4965 10.6372 2.47523 10.6206 2.45333C10.5861 2.40721 10.5516 2.36108 10.5171 2.31492C10.4911 2.28015 10.4911 2.28015 10.4645 2.24468C10.3916 2.1466 10.3204 2.04744 10.2493 1.94808C10.0424 1.65926 9.83345 1.3718 9.62372 1.08483C9.57189 1.01366 9.52049 0.94223 9.46924 0.870678C9.44183 0.832872 9.41441 0.795072 9.38698 0.75728C9.36417 0.725514 9.34136 0.693748 9.31786 0.66102C9.22579 0.554919 9.14488 0.50153 9.00196 0.481179C8.85365 0.501438 8.76035 0.564851 8.66626 0.673001ZM5.63698 3.46945C5.55262 3.63077 5.58113 3.91586 5.62593 4.08927C5.71267 4.27073 5.88382 4.4175 6.077 4.49121C6.15662 4.49708 6.23277 4.49971 6.31237 4.49945C6.33617 4.49961 6.35997 4.49976 6.3845 4.49993C6.46431 4.50038 6.54412 4.5004 6.62393 4.50042C6.68114 4.50065 6.73834 4.5009 6.79555 4.50118C6.95101 4.50184 7.10648 4.5021 7.26195 4.50225C7.3591 4.50236 7.45625 4.50255 7.5534 4.50276C7.89238 4.5035 8.23137 4.50389 8.57035 4.504C8.88622 4.50411 9.20207 4.50501 9.51794 4.50627C9.78919 4.50731 10.0604 4.50777 10.3317 4.50779C10.4937 4.50782 10.6556 4.50808 10.8176 4.50893C10.97 4.50972 11.1224 4.50979 11.2748 4.50931C11.3307 4.50925 11.3865 4.50945 11.4424 4.50993C11.8397 4.52234 11.8397 4.52234 12.1744 4.34095C12.3337 4.19045 12.4023 4.0505 12.4061 3.83506C12.4062 3.80377 12.4062 3.80377 12.4062 3.77185C12.407 3.7511 12.4078 3.73036 12.4086 3.70898C12.4095 3.55453 12.3705 3.46771 12.2687 3.34924C12.17 3.30204 12.0644 3.31463 11.956 3.31457C11.9298 3.31444 11.9037 3.3143 11.8768 3.31417C11.7887 3.31377 11.7007 3.31358 11.6126 3.3134C11.5497 3.31316 11.4868 3.31291 11.4239 3.31265C11.2168 3.31186 11.0098 3.3114 10.8027 3.31098C10.7315 3.31081 10.6603 3.31065 10.5891 3.31049C10.293 3.30984 9.99696 3.30928 9.70089 3.30894C9.27612 3.30845 8.85136 3.30745 8.42659 3.30574C8.12817 3.30458 7.82975 3.30399 7.53133 3.30383C7.35297 3.30372 7.17461 3.30336 6.99625 3.30239C6.82849 3.30149 6.66074 3.30129 6.49298 3.30165C6.43136 3.30165 6.36974 3.3014 6.30813 3.30088C6.22408 3.3002 6.14008 3.30044 6.05602 3.30092C6.03158 3.3005 6.00713 3.30009 5.98194 3.29966C5.81235 3.30204 5.74116 3.34324 5.63698 3.46945ZM4.75694 5.06219C4.6568 5.22178 4.64556 5.35988 4.66265 5.54302C4.66447 5.56541 4.6663 5.5878 4.66818 5.61087C4.69866 5.81246 4.81116 5.95865 4.97695 6.08395C5.1718 6.16834 5.33098 6.18706 5.54331 6.18556C5.57415 6.1857 5.60499 6.18584 5.63676 6.18598C5.73964 6.18634 5.84251 6.18606 5.94539 6.18578C6.01934 6.1859 6.09328 6.18606 6.16723 6.18625C6.36775 6.18666 6.56827 6.18651 6.7688 6.18622C6.95746 6.18601 7.14613 6.18617 7.33479 6.1863C7.73122 6.18656 8.12766 6.18626 8.52409 6.18578C8.86394 6.18538 9.20379 6.18545 9.54364 6.18586C9.9387 6.18635 10.3337 6.18654 10.7288 6.18626C10.9378 6.18612 11.1468 6.1861 11.3557 6.1864C11.5522 6.18666 11.7487 6.18648 11.9452 6.18596C12.0172 6.18584 12.0893 6.18587 12.1614 6.18607C12.2598 6.18632 12.3582 6.18601 12.4567 6.18556C12.4994 6.18586 12.4994 6.18586 12.5429 6.18617C12.7652 6.1842 12.9782 6.14786 13.1429 5.99192C13.3164 5.81163 13.3556 5.58137 13.3462 5.34252C13.3319 5.22969 13.3058 5.16011 13.2431 5.06219C13.0758 4.95388 12.9197 4.95932 12.7252 4.96059C12.6921 4.96045 12.6589 4.96031 12.6248 4.96017C12.5138 4.95981 12.4027 4.96009 12.2917 4.96037C12.2121 4.96025 12.1325 4.96009 12.0528 4.95989C11.8591 4.95953 11.6653 4.95958 11.4715 4.95984C11.314 4.96005 11.1565 4.96007 10.999 4.95997C10.9654 4.95995 10.9654 4.95995 10.931 4.95993C10.8855 4.9599 10.8399 4.95987 10.7944 4.95985C10.3673 4.95959 9.94018 4.95988 9.51308 4.96037C9.14669 4.96077 8.7803 4.9607 8.41391 4.96029C7.98833 4.9598 7.56275 4.95961 7.13717 4.95989C7.09178 4.95992 7.04639 4.95995 7.001 4.95997C6.96751 4.96 6.96751 4.96 6.93333 4.96002C6.77603 4.96009 6.61874 4.95996 6.46144 4.95975C6.24969 4.95947 6.03795 4.95967 5.82621 4.96019C5.74844 4.96031 5.67067 4.96028 5.5929 4.96008C5.48685 4.95983 5.38082 4.96014 5.27478 4.96059C5.2439 4.96039 5.21303 4.96019 5.18122 4.95998C5.01702 4.96134 4.89731 4.97109 4.75694 5.06219ZM3.71975 6.8052C3.63538 6.96653 3.66454 7.25012 3.70759 7.42396C3.78043 7.57889 3.91263 7.71201 4.06548 7.79691C4.28545 7.86419 4.50477 7.86551 4.73365 7.86464C4.7907 7.86478 4.7907 7.86478 4.8489 7.86493C4.95379 7.86512 5.05867 7.86505 5.16356 7.86487C5.27695 7.86473 5.39033 7.86494 5.50371 7.86511C5.72555 7.86537 5.9474 7.86531 6.16925 7.86514C6.3496 7.865 6.52995 7.86499 6.7103 7.86505C6.736 7.86506 6.7617 7.86507 6.78818 7.86508C6.84039 7.8651 6.89261 7.86512 6.94482 7.86514C7.43406 7.86531 7.92331 7.86511 8.41255 7.86479C8.83205 7.86452 9.25155 7.86457 9.67105 7.86484C10.1586 7.86517 10.6461 7.86529 11.1336 7.86511C11.1857 7.86509 11.2377 7.86507 11.2897 7.86505C11.3281 7.86504 11.3281 7.86504 11.3673 7.86502C11.5473 7.86497 11.7274 7.86506 11.9075 7.8652C12.127 7.86537 12.3465 7.86532 12.5661 7.865C12.678 7.86485 12.7899 7.86478 12.9019 7.86498C13.0234 7.8652 13.1449 7.86494 13.2663 7.86464C13.3191 7.86484 13.3191 7.86484 13.373 7.86505C13.7606 7.86346 13.7606 7.86346 14.0877 7.68609C14.1104 7.66676 14.133 7.64743 14.1563 7.62751C14.2947 7.46673 14.3282 7.30487 14.3274 7.10384C14.3283 7.08336 14.3292 7.06289 14.3301 7.0418C14.3306 6.92476 14.3119 6.85146 14.2361 6.76211C14.1247 6.65677 14.0777 6.65117 13.9254 6.65082C13.8899 6.65067 13.8545 6.65052 13.8179 6.65036C13.7786 6.65034 13.7393 6.65033 13.6988 6.65031C13.6569 6.65019 13.6149 6.65006 13.573 6.64991C13.4574 6.64955 13.3418 6.64938 13.2262 6.64925C13.1017 6.64907 12.9772 6.64872 12.8526 6.6484C12.5517 6.64766 12.2508 6.64722 11.9499 6.64683C11.8649 6.64672 11.78 6.6466 11.695 6.64648C11.1677 6.64572 10.6404 6.64506 10.1131 6.64468C9.99087 6.6446 9.86868 6.64451 9.7465 6.64442C9.71613 6.64439 9.68576 6.64437 9.65447 6.64435C9.16234 6.64397 8.67022 6.64297 8.17809 6.64172C7.67312 6.64044 7.16815 6.63974 6.66317 6.63958C6.37953 6.63948 6.0959 6.63912 5.81226 6.63813C5.57073 6.63729 5.32921 6.63696 5.08768 6.6373C4.96441 6.63745 4.84117 6.63736 4.7179 6.63662C4.60506 6.63595 4.49224 6.63597 4.3794 6.63654C4.31923 6.63666 4.25907 6.63604 4.19891 6.6354C3.98345 6.63731 3.86436 6.64618 3.71975 6.8052ZM4.72551 8.30779C4.72551 9.79535 4.72551 11.2829 4.72551 12.8155C5.1715 12.8155 5.6175 12.8155 6.077 12.8155C6.077 11.328 6.077 9.84042 6.077 8.30779C5.63101 8.30779 5.18502 8.30779 4.72551 8.30779ZM6.57989 8.30779C6.57989 9.79535 6.57989 11.2829 6.57989 12.8155C8.17716 12.8155 9.77444 12.8155 11.4201 12.8155C11.4201 11.328 11.4201 9.84042 11.4201 8.30779C9.82284 8.30779 8.22556 8.30779 6.57989 8.30779ZM11.923 8.30779C11.923 9.79535 11.923 11.2829 11.923 12.8155C12.369 12.8155 12.815 12.8155 13.2745 12.8155C13.2745 11.328 13.2745 9.84042 13.2745 8.30779C12.8285 8.30779 12.3825 8.30779 11.923 8.30779ZM3.5017 13.5293C3.48521 13.5477 3.46872 13.5662 3.45173 13.5852C3.24793 13.9015 3.31116 14.096 3.31116 14.4984C7.06579 14.4984 10.8204 14.4984 14.6888 14.4984C14.7261 13.969 14.7261 13.969 14.5076 13.5356C14.2509 13.3008 13.9885 13.2831 13.6479 13.2847C13.6066 13.2846 13.5653 13.2844 13.5227 13.2842C13.4085 13.2838 13.2943 13.2839 13.18 13.2842C13.0567 13.2843 12.9333 13.2839 12.81 13.2836C12.5684 13.2831 12.3269 13.2831 12.0854 13.2832C11.8891 13.2833 11.6928 13.2833 11.4964 13.2831C11.4685 13.2831 11.4405 13.2831 11.4117 13.2831C11.3549 13.283 11.2981 13.283 11.2413 13.2829C10.7087 13.2825 10.1761 13.2827 9.64357 13.283C9.15662 13.2833 8.66967 13.2829 8.18273 13.2822C7.68243 13.2815 7.18214 13.2812 6.68185 13.2814C6.40109 13.2815 6.12033 13.2814 5.83958 13.2809C5.60056 13.2805 5.36156 13.2805 5.12254 13.281C5.00066 13.2812 4.8788 13.2813 4.75692 13.2808C4.62463 13.2803 4.49236 13.2808 4.36008 13.2813C4.32178 13.281 4.28349 13.2807 4.24404 13.2804C3.97443 13.2827 3.68294 13.3159 3.5017 13.5293Z" fill="#EC9111"/>
<path d="M4 7.5H13.5L14.5 7H13.5L13 6.5V5.5H11L10 5M10 5H12.5H13L8 6H8.5M10 5H9.5L8.5 5.5H7H6.5H5V6V6.5C4.6 7.3 4.5 6.83333 4.5 6.5L4 8V7H13L12.5 6H8.5M8.5 5H8C8 5 7.9 5 7.5 5C7.1 5 6.33333 5 6 5H5.5H5L8.5 6M5.5 6H6.5H7H7.5L6 4.5V3.5H8H9.5H12V4L11.5 4.5H10.5H9.5H8.5H7.5H6.5L7.5 2.5L8 2L8.5 1.5L9 0.999996V0.499996L9.5 1.5L10 2L10.5 2.5L11 3H9H7.5L9 2C9.4 2 9.5 2.33333 9.5 2.5" stroke="#EC9111"/>
<path d="M14.5 14.5H3.5L4 13.5H12.5H14L14.5 14V14.5Z" stroke="#EC9111"/>
<path d="M9.91875 10.0516H8.70937M8.70937 10.0516H7.5M8.70937 10.0516V9M8.70937 10.0516V11.1033" stroke="#EC9111" stroke-width="0.5" stroke-linecap="round"/>
<path d="M10.5001 22.5L10.377 22.4426M10 20L10.377 22.4426M10 20L9.70853 19.9028M10 20L10.9074 21.8148M10.377 22.4426L3.00008 19L2.00008 18.5C1.83341 18 1.80008 17.1 3.00008 17.5C4.20008 17.9 4.83336 18 5 18L6.5 18.5L8.5 19.5L9.70853 19.9028M3 18H2.5L9.5 21.5V20.5L4.5 18.5L11 22.5L13.5 22L19 20.5V16L15 16.5L16.2138 19.7369M9.70853 19.9028C7.07535 19.4251 7.80568 18.1019 8.5 17.5L9.5 18L18.5 17V20L16.5 20.5L16.2138 19.7369M11 22L10.9074 21.8148M8.5 18.5L10.9074 21.8148M8.5 18L11.5 21.8148L15.5 20.5L16.2138 19.7369M15 18.5L13.5 18L11.5 18.5L10.5 19L10.377 19.5L10.9074 20L12.5 20.5L14.5 20L14.712 19.7369L16 19.5L15.5 18.5L15 19V18L14.5 19C14.1667 19.0324 13.5 19.1777 13.5 19.5C13.5 19.8223 12.5 20.6343 12 21H11.5V20.5L9.5 18.5H10.5L12.5 19.5V19.9028L13.5 19V18.5M14 17H13.5L14.5 16.5" stroke="#EC9111"/>
<path d="M11.5 19.5H12C12 19.8333 12 20.4 12 20C12 19.6 11.3333 19.5 11 19.5L11.5 20H17L16 21C16.1667 20.5 16.5 19.4 16.5 19C16.5 18.5 16 18 16.5 18C17 18 16.5 17.5 17 17.5C17.5 18 17.5 17.5 17.5 18M17.5 18C17 19 17 18 17 18.5C17 18.9 17 19.3333 17 19.5H18V19L17.5 18ZM18 18V17.5L19.5 15.5H22.5V21V21.5H20L19.5 20.5L20 16H21.5L22 18V20L21.5 21M21.5 21L20.5 21.5C20.3333 21 20 19.9 20 19.5C20 19 19.5 18 20 17.5C20.4 17.1 20.8333 17 21 17L21.5 18.5V20C21.5532 19.9734 21.6278 20.0361 21.5 20.5C21.3722 20.9639 21.2801 20.86 21.5 21ZM21.5 21L20.5 16.5L21 20.5V21M12.5 19H13V18.5L12.5 19Z" stroke="#EC9111"/>
</g>
<defs>
<clipPath id="clip0_21_25698">
<rect width="24" height="24" fill="white" transform="translate(0.5)"/>
</clipPath>
</defs>
</svg>
