<svg width="24" height="23" viewBox="0 0 24 23" fill="none" xmlns="http://www.w3.org/2000/svg">
<g clip-path="url(#clip0_19_35)">
<mask id="mask0_19_35" style="mask-type:luminance" maskUnits="userSpaceOnUse" x="0" y="0" width="24" height="23">
<path d="M24 0H0V22.3106H24V0Z" fill="white"/>
</mask>
<g mask="url(#mask0_19_35)">
<path d="M9.04568 1.51978H2.15261C1.63928 1.51978 1.22314 1.93591 1.22314 2.44924V19.8715C1.22314 20.3849 1.63928 20.801 2.15261 20.801H9.04568C9.55901 20.801 9.97515 20.3849 9.97515 19.8715V2.44924C9.97515 1.93591 9.55901 1.51978 9.04568 1.51978Z" fill="FE9D21" stroke="#1E0202" stroke-width="2" stroke-miterlimit="10"/>
<path d="M21.8981 1.22339H14.32C13.8348 1.22339 13.4414 1.61674 13.4414 2.10197V8.55832C13.4414 9.04354 13.8348 9.43689 14.32 9.43689H21.8981C22.3834 9.43689 22.7767 9.04354 22.7767 8.55832V2.10197C22.7767 1.61674 22.3834 1.22339 21.8981 1.22339Z" fill="black" stroke="#1E0202" stroke-width="2" stroke-miterlimit="10"/>
<path d="M21.8981 12.8738H14.32C13.8348 12.8738 13.4414 13.2671 13.4414 13.7524V20.2087C13.4414 20.6939 13.8348 21.0873 14.32 21.0873H21.8981C22.3834 21.0873 22.7767 20.6939 22.7767 20.2087V13.7524C22.7767 13.2671 22.3834 12.8738 21.8981 12.8738Z" fill="#D9D9D9"/>
<path d="M21.8981 12.8738H14.32C13.8348 12.8738 13.4414 13.2671 13.4414 13.7524V20.2087C13.4414 20.6939 13.8348 21.0873 14.32 21.0873H21.8981C22.3834 21.0873 22.7767 20.6939 22.7767 20.2087V13.7524C22.7767 13.2671 22.3834 12.8738 21.8981 12.8738Z" fill="black"/>
<path d="M21.8981 12.8738H14.32C13.8348 12.8738 13.4414 13.2671 13.4414 13.7524V20.2087C13.4414 20.6939 13.8348 21.0873 14.32 21.0873H21.8981C22.3834 21.0873 22.7767 20.6939 22.7767 20.2087V13.7524C22.7767 13.2671 22.3834 12.8738 21.8981 12.8738Z" stroke="#1E0202" stroke-width="2" stroke-miterlimit="10"/>
</g>
</g>
<defs>
<clipPath id="clip0_19_35">
<rect width="24" height="23" fill="white"/>
</clipPath>
</defs>
</svg>
