<svg width="23" height="24" viewBox="0 0 23 24" fill="none" xmlns="http://www.w3.org/2000/svg">
<path d="M12.1562 0.463123C12.4748 0.698507 12.6958 0.980068 12.9092 1.3098C12.97 1.40133 13.0308 1.49282 13.0917 1.58428C13.1383 1.65465 13.1383 1.65465 13.1858 1.72644C13.3431 1.962 13.5056 2.19391 13.668 2.42601C13.8981 2.75591 14.1274 3.0863 14.3544 3.41835C14.4763 3.59614 14.5997 3.77266 14.7243 3.94854C14.7546 3.99146 14.785 4.03438 14.8162 4.0786C14.876 4.16307 14.9359 4.24742 14.9961 4.33163C15.0365 4.3888 15.0365 4.3888 15.0777 4.44713C15.1019 4.48114 15.1261 4.51516 15.1511 4.5502C15.2031 4.635 15.2031 4.635 15.2031 4.72875C15.2548 4.72691 15.2548 4.72691 15.3076 4.72503C15.4661 4.72011 15.6246 4.71709 15.7832 4.7141C15.8645 4.71115 15.8645 4.71115 15.9474 4.70815C16.3515 4.70244 16.6735 4.7667 16.9801 5.04409C17.2845 5.3599 17.3376 5.72858 17.333 6.14965C17.3328 6.19293 17.3326 6.23621 17.3324 6.28081C17.3257 6.60324 17.2757 6.87753 17.125 7.16625C17.1095 7.19719 17.0941 7.22812 17.0781 7.26C17.1308 7.26405 17.1834 7.2681 17.2376 7.27227C17.7042 7.31374 18.1023 7.3589 18.4316 7.72582C18.7562 8.19355 18.7829 8.6949 18.6922 9.2509C18.6359 9.4887 18.5706 9.67849 18.4375 9.885C18.4901 9.88621 18.5428 9.88741 18.597 9.88866C19.0952 9.9054 19.5149 9.94192 19.8906 10.3069C20.1452 10.6414 20.1902 10.9385 20.1895 11.3469C20.1894 11.3908 20.1893 11.4346 20.1892 11.4798C20.179 12.0575 19.9821 12.4973 19.5649 12.9002C19.2679 13.1429 19.0062 13.2123 18.625 13.26C18.625 15.5803 18.625 17.9006 18.625 20.2912C18.7952 20.2912 18.9653 20.2912 19.1406 20.2912C19.7312 20.3991 20.1511 20.6991 20.5 21.1819C20.6579 21.4877 20.741 21.789 20.739 22.1335C20.7388 22.1792 20.7387 22.225 20.7385 22.2722C20.7381 22.3194 20.7377 22.3666 20.7373 22.4153C20.7371 22.4634 20.7369 22.5115 20.7367 22.5611C20.7361 22.6795 20.7353 22.7979 20.7344 22.9162C20.7843 22.915 20.8342 22.9138 20.8856 22.9125C21.0712 22.9083 21.2568 22.9056 21.4425 22.9034C21.5227 22.9022 21.603 22.9006 21.6832 22.8986C21.7988 22.8957 21.9143 22.8944 22.0298 22.8934C22.0655 22.8922 22.1013 22.8909 22.138 22.8897C22.3268 22.8896 22.4115 22.9081 22.5617 23.0261C22.6562 23.1506 22.6562 23.1506 22.6855 23.2912C22.6456 23.483 22.5743 23.5449 22.4219 23.6662C22.2892 23.6893 22.1849 23.6979 22.0525 23.6957C21.9969 23.6963 21.9969 23.6963 21.9402 23.6968C21.8154 23.6976 21.6907 23.6968 21.566 23.696C21.4759 23.6963 21.3857 23.6967 21.2956 23.6971C21.0475 23.6981 20.7994 23.6976 20.5514 23.6969C20.284 23.6964 20.0166 23.6972 19.7492 23.6978C19.2253 23.6989 18.7013 23.6986 18.1773 23.698C17.7516 23.6974 17.3259 23.6974 16.9002 23.6976C16.8396 23.6976 16.7791 23.6977 16.7168 23.6977C16.5938 23.6978 16.4709 23.6979 16.3479 23.6979C15.2272 23.6986 14.1065 23.6979 12.9858 23.6967C11.9624 23.6956 10.939 23.6957 9.91559 23.6968C8.76617 23.6981 7.61675 23.6986 6.46733 23.6978C6.34483 23.6978 6.22234 23.6977 6.09984 23.6976C6.03956 23.6976 5.97928 23.6975 5.91718 23.6975C5.49182 23.6973 5.06647 23.6976 4.64112 23.6982C4.12295 23.6989 3.6048 23.6987 3.08663 23.6974C2.82211 23.6968 2.5576 23.6966 2.29308 23.6973C2.05112 23.698 1.80919 23.6977 1.56724 23.6964C1.47952 23.6961 1.3918 23.6963 1.30408 23.6968C1.18517 23.6976 1.06635 23.6968 0.947452 23.6957C0.913089 23.6963 0.878727 23.6968 0.843324 23.6974C0.661458 23.694 0.583788 23.6708 0.439686 23.556C0.34375 23.4319 0.34375 23.4319 0.314453 23.2912C0.354572 23.0987 0.424091 23.0372 0.578125 22.9162C0.718371 22.8957 0.830788 22.8886 0.970154 22.8934C1.00728 22.8937 1.0444 22.894 1.08265 22.8944C1.20065 22.8957 1.31855 22.8986 1.43652 22.9016C1.51675 22.9028 1.59698 22.9038 1.67722 22.9048C1.87339 22.9074 2.06949 22.9114 2.26562 22.9162C2.26464 22.8882 2.26366 22.8602 2.26265 22.8313C2.22215 21.4966 2.22215 21.4966 2.65216 20.9869C3.01697 20.6042 3.33727 20.3957 3.85938 20.2912C4.02953 20.2912 4.19969 20.2912 4.375 20.2912C4.375 17.9709 4.375 15.6506 4.375 13.26C4.25125 13.2445 4.1275 13.2291 4 13.2131C3.58872 13.0774 3.24617 12.7981 3.03265 12.4216C2.86474 12.0612 2.81759 11.7704 2.81348 11.3762C2.81212 11.3336 2.81076 11.2911 2.80936 11.2472C2.80563 10.8463 2.91931 10.5053 3.20312 10.2131C3.51531 9.97559 3.80047 9.91808 4.18164 9.90258C4.21838 9.90076 4.25512 9.89895 4.29297 9.89708C4.3828 9.8927 4.47265 9.8888 4.5625 9.885C4.51899 9.80669 4.51899 9.80669 4.47461 9.7268C4.25098 9.27398 4.21421 8.72615 4.31055 8.23265C4.44475 7.86664 4.63227 7.59926 4.9776 7.40776C5.28002 7.29694 5.60256 7.28148 5.92188 7.26C5.90888 7.23172 5.89589 7.20344 5.88251 7.1743C5.86553 7.13684 5.84855 7.09938 5.83105 7.06078C5.8142 7.0238 5.79734 6.98682 5.77997 6.94872C5.67415 6.69203 5.67571 6.44749 5.67285 6.17308C5.67081 6.10923 5.67081 6.10923 5.66873 6.04409C5.66523 5.66748 5.77031 5.40448 5.97461 5.09203C6.29521 4.78537 6.61515 4.70197 7.05255 4.70815C7.10675 4.71011 7.16095 4.71208 7.2168 4.7141C7.27281 4.71516 7.32882 4.71621 7.38654 4.7173C7.52338 4.72004 7.66009 4.72388 7.79688 4.72875C7.81041 4.69297 7.82395 4.65718 7.8379 4.62032C7.90372 4.4631 7.9979 4.33451 8.09863 4.19847C8.14148 4.13956 8.18426 4.0806 8.22699 4.0216C8.24902 3.99122 8.27105 3.96084 8.29375 3.92954C8.39795 3.78439 8.49882 3.63702 8.59961 3.48949C8.84696 3.12805 9.09705 2.76857 9.34743 2.40923C9.51314 2.17127 9.67828 1.93296 9.84203 1.69366C9.92299 1.57538 10.0043 1.45734 10.0858 1.33942C10.1386 1.26288 10.1913 1.18618 10.2439 1.10949C10.706 0.45165 11.3616 0.0637006 12.1562 0.463123ZM11.0023 1.3512C10.9204 1.46369 10.8421 1.57798 10.7646 1.69359C10.7359 1.73563 10.7071 1.77767 10.6775 1.82098C10.6191 1.90641 10.5609 1.99199 10.5029 2.07772C10.4126 2.21117 10.3214 2.34391 10.23 2.47654C10.1686 2.56568 10.1074 2.65496 10.0461 2.74425C9.87364 2.99537 9.69945 3.24531 9.52539 3.49535C9.49325 3.54157 9.46111 3.5878 9.428 3.63543C9.29068 3.83287 9.15324 4.0302 9.01453 4.22667C8.98445 4.26948 8.98445 4.26948 8.95376 4.31316C8.90276 4.38569 8.85153 4.45808 8.80029 4.53045C8.72604 4.62762 8.72604 4.62762 8.73438 4.72875C10.5597 4.72875 12.385 4.72875 14.2656 4.72875C14.1991 4.56243 14.157 4.46078 14.0578 4.32354C14.0242 4.27657 14.0242 4.27657 13.9899 4.22866C13.9658 4.1955 13.9418 4.16233 13.917 4.12816C13.8655 4.05623 13.814 3.98427 13.7626 3.91228C13.7238 3.85805 13.7238 3.85805 13.6842 3.80272C13.5754 3.64973 13.4692 3.49506 13.3633 3.34008C13.0547 2.88958 12.743 2.44118 12.4302 1.99356C12.3529 1.88255 12.2763 1.77114 12.1998 1.65953C12.159 1.60056 12.1181 1.5416 12.0771 1.48265C12.0431 1.43311 12.0091 1.38356 11.9741 1.33251C11.8367 1.16701 11.7161 1.08373 11.5029 1.05199C11.2817 1.08359 11.1426 1.1825 11.0023 1.3512ZM6.48438 5.71312C6.35856 5.96476 6.40108 6.40943 6.4679 6.67992C6.59725 6.96296 6.8525 7.19189 7.14062 7.30687C7.25936 7.31602 7.37294 7.32013 7.49165 7.31972C7.52715 7.31997 7.56264 7.32022 7.59922 7.32047C7.71825 7.32117 7.83728 7.3212 7.95631 7.32124C8.04163 7.32159 8.12695 7.32199 8.21227 7.32242C8.44413 7.32345 8.67599 7.32386 8.90786 7.3241C9.05275 7.32427 9.19763 7.32456 9.34252 7.32489C9.84809 7.32604 10.3537 7.32665 10.8592 7.32682C11.3303 7.32699 11.8014 7.32839 12.2725 7.33035C12.677 7.33198 13.0815 7.33271 13.4861 7.33274C13.7277 7.33278 13.9692 7.33318 14.2108 7.33452C14.4381 7.33575 14.6654 7.33585 14.8927 7.3351C14.976 7.33501 15.0593 7.33533 15.1426 7.33607C15.7351 7.35542 15.7351 7.35542 16.2344 7.0725C16.472 6.83774 16.5742 6.61945 16.5799 6.28341C16.58 6.2346 16.58 6.2346 16.5801 6.1848C16.5812 6.15245 16.5824 6.12009 16.5836 6.08675C16.5849 5.84583 16.5268 5.7104 16.375 5.52562C16.2277 5.45199 16.0702 5.47164 15.9085 5.47153C15.8696 5.47133 15.8306 5.47112 15.7905 5.47091C15.6591 5.47028 15.5278 5.46999 15.3965 5.46971C15.3027 5.46934 15.2088 5.46895 15.115 5.46855C14.8062 5.46732 14.4974 5.4666 14.1885 5.46593C14.0824 5.46568 13.9762 5.46543 13.87 5.46518C13.4284 5.46416 12.9869 5.46328 12.5453 5.46276C11.9118 5.46199 11.2783 5.46044 10.6448 5.45777C10.1997 5.45596 9.75469 5.45504 9.30962 5.45479C9.0436 5.45462 8.77761 5.45405 8.5116 5.45254C8.2614 5.45113 8.01122 5.45083 7.76101 5.45138C7.66911 5.45139 7.57722 5.451 7.48533 5.45018C7.35997 5.44912 7.23469 5.4495 7.10933 5.45025C7.07287 5.4496 7.03641 5.44895 6.99885 5.44828C6.74592 5.45199 6.63975 5.51626 6.48438 5.71312ZM5.17188 8.1975C5.02252 8.44642 5.00576 8.66183 5.03125 8.9475C5.03397 8.98242 5.03669 9.01735 5.03949 9.05333C5.08496 9.36777 5.25274 9.5958 5.5 9.79125C5.79059 9.92287 6.028 9.95207 6.34467 9.94973C6.39066 9.94995 6.43666 9.95017 6.48405 9.95039C6.63748 9.95095 6.7909 9.95051 6.94434 9.95007C7.05462 9.95026 7.1649 9.95051 7.27518 9.95082C7.57425 9.95146 7.87331 9.95121 8.17238 9.95076C8.45375 9.95044 8.73512 9.95069 9.0165 9.95089C9.60774 9.95129 10.199 9.95083 10.7902 9.95008C11.2971 9.94945 11.8039 9.94956 12.3108 9.95021C12.9 9.95096 13.4892 9.95125 14.0783 9.95082C14.39 9.9506 14.7017 9.95057 15.0134 9.95104C15.3064 9.95145 15.5994 9.95116 15.8924 9.95035C15.9999 9.95017 16.1074 9.95022 16.2149 9.95053C16.3617 9.95091 16.5085 9.95043 16.6553 9.94973C16.719 9.9502 16.719 9.9502 16.7839 9.95068C17.1154 9.94762 17.4331 9.89092 17.6787 9.64769C17.9375 9.36647 17.996 9.00732 17.9819 8.63475C17.9607 8.45876 17.9216 8.35022 17.8281 8.1975C17.5786 8.02854 17.3459 8.03704 17.0558 8.03902C17.0064 8.0388 16.957 8.03858 16.906 8.03835C16.7404 8.03779 16.5748 8.03823 16.4092 8.03868C16.2905 8.03849 16.1718 8.03824 16.053 8.03793C15.764 8.03736 15.475 8.03744 15.186 8.03785C14.9511 8.03817 14.7162 8.03821 14.4813 8.03806C14.4311 8.03802 14.4311 8.03802 14.38 8.03799C14.312 8.03794 14.2441 8.0379 14.1761 8.03785C13.5392 8.03745 12.9022 8.03791 12.2652 8.03867C11.7188 8.0393 11.1723 8.03919 10.6259 8.03854C9.99119 8.03779 9.35648 8.03749 8.72177 8.03792C8.65407 8.03797 8.58638 8.03801 8.51868 8.03806C8.46873 8.03809 8.46873 8.03809 8.41776 8.03812C8.18316 8.03824 7.94857 8.03804 7.71398 8.03771C7.39818 8.03727 7.08238 8.03758 6.76658 8.03839C6.6506 8.03858 6.53461 8.03853 6.41862 8.03822C6.26047 8.03783 6.10234 8.03831 5.94418 8.03902C5.89813 8.0387 5.85209 8.03839 5.80465 8.03807C5.55976 8.04018 5.38122 8.0554 5.17188 8.1975ZM3.625 10.9162C3.49917 11.1679 3.54266 11.6102 3.60687 11.8814C3.7155 12.1231 3.91266 12.3307 4.14062 12.4631C4.4687 12.5681 4.79579 12.5701 5.13714 12.5688C5.22223 12.569 5.22223 12.569 5.30903 12.5692C5.46546 12.5695 5.62188 12.5694 5.77831 12.5691C5.94741 12.5689 6.11651 12.5692 6.28561 12.5695C6.61647 12.5699 6.94733 12.5698 7.27819 12.5696C7.54717 12.5693 7.81615 12.5693 8.08512 12.5694C8.12345 12.5694 8.16178 12.5694 8.20127 12.5695C8.27915 12.5695 8.35702 12.5695 8.43489 12.5696C9.16455 12.5698 9.89421 12.5695 10.6239 12.569C11.2495 12.5686 11.8752 12.5687 12.5008 12.5691C13.2279 12.5696 13.955 12.5698 14.6821 12.5695C14.7597 12.5695 14.8373 12.5694 14.9149 12.5694C14.9721 12.5694 14.9721 12.5694 15.0305 12.5694C15.2991 12.5693 15.5676 12.5694 15.8362 12.5697C16.1636 12.5699 16.491 12.5698 16.8185 12.5693C16.9854 12.5691 17.1524 12.569 17.3193 12.5693C17.5005 12.5696 17.6817 12.5692 17.8629 12.5688C17.9416 12.5691 17.9416 12.5691 18.0219 12.5694C18.6 12.5669 18.6 12.5669 19.0879 12.2903C19.1216 12.2601 19.1553 12.23 19.1901 12.1989C19.3965 11.9481 19.4465 11.6956 19.4453 11.3821C19.4466 11.3501 19.448 11.3182 19.4493 11.2853C19.45 11.1027 19.4221 10.9884 19.3091 10.849C19.143 10.6847 19.0729 10.676 18.8458 10.6755C18.7929 10.6752 18.74 10.675 18.6855 10.6747C18.6268 10.6747 18.5682 10.6747 18.5078 10.6747C18.4453 10.6745 18.3827 10.6743 18.3202 10.674C18.1478 10.6735 17.9754 10.6732 17.803 10.673C17.6173 10.6727 17.4316 10.6722 17.2458 10.6717C16.797 10.6705 16.3483 10.6698 15.8995 10.6692C15.7727 10.6691 15.646 10.6689 15.5193 10.6687C14.7329 10.6675 13.9464 10.6665 13.16 10.6659C12.9778 10.6657 12.7956 10.6656 12.6133 10.6655C12.568 10.6654 12.5227 10.6654 12.4761 10.6654C11.7421 10.6648 11.0082 10.6632 10.2742 10.6613C9.52108 10.6593 8.76796 10.6582 8.01484 10.6579C7.59182 10.6578 7.1688 10.6572 6.74578 10.6557C6.38557 10.6543 6.02536 10.6538 5.66514 10.6544C5.4813 10.6546 5.29749 10.6545 5.11365 10.6533C4.94536 10.6523 4.7771 10.6523 4.6088 10.6532C4.51907 10.6534 4.42934 10.6524 4.33962 10.6514C4.01829 10.6544 3.84067 10.6682 3.625 10.9162ZM5.125 13.26C5.125 15.5803 5.125 17.9006 5.125 20.2912C5.79016 20.2912 6.45531 20.2912 7.14062 20.2912C7.14062 17.9709 7.14062 15.6506 7.14062 13.26C6.47547 13.26 5.81031 13.26 5.125 13.26ZM7.89062 13.26C7.89062 15.5803 7.89062 17.9006 7.89062 20.2912C10.2728 20.2912 12.655 20.2912 15.1094 20.2912C15.1094 17.9709 15.1094 15.6506 15.1094 13.26C12.7272 13.26 10.345 13.26 7.89062 13.26ZM15.8594 13.26C15.8594 15.5803 15.8594 17.9006 15.8594 20.2912C16.5245 20.2912 17.1897 20.2912 17.875 20.2912C17.875 17.9709 17.875 15.6506 17.875 13.26C17.2098 13.26 16.5447 13.26 15.8594 13.26ZM3.2998 21.4045C3.27521 21.4333 3.25062 21.4621 3.22528 21.4917C2.92132 21.9851 3.01562 22.2884 3.01562 22.9162C8.61531 22.9162 14.215 22.9162 19.9844 22.9162C20.04 22.0904 20.04 22.0904 19.7141 21.4144C19.3313 21.0482 18.9399 21.0206 18.4319 21.0231C18.3703 21.0228 18.3087 21.0226 18.2452 21.0223C18.0748 21.0216 17.9045 21.0218 17.7342 21.0222C17.5502 21.0224 17.3662 21.0218 17.1822 21.0213C16.822 21.0205 16.4618 21.0205 16.1016 21.0207C15.8088 21.0209 15.516 21.0209 15.2232 21.0206C15.1815 21.0206 15.1398 21.0205 15.0968 21.0205C15.0121 21.0204 14.9273 21.0204 14.8426 21.0203C14.0483 21.0196 13.2541 21.0199 12.4598 21.0204C11.7336 21.0209 11.0073 21.0203 10.2811 21.0192C9.53497 21.018 8.78884 21.0176 8.04269 21.0179C7.62397 21.0181 7.20525 21.0179 6.78652 21.0171C6.43006 21.0164 6.0736 21.0164 5.71714 21.0172C5.53537 21.0176 5.35361 21.0177 5.17184 21.017C4.97455 21.0162 4.77728 21.0169 4.57999 21.0178C4.52288 21.0173 4.46577 21.0169 4.40693 21.0164C4.00483 21.0199 3.5701 21.0716 3.2998 21.4045Z" fill="#EC9111"/>
<path d="M3.5 10.9944L4 11.9944L4.40435 12.3987L18 12.4944H19L19.5 11.4944L18 10.4944H4.5C4.1 10.4944 3.66667 10.8277 3.5 10.9944Z" fill="#EC9111"/>
<path d="M17.8145 20.8014L5 20.9944L5.62822 21.0199L17.3145 21.4944H5L3.5 22.4944L19 22.3405L17.8145 20.8014Z" fill="#EC9111"/>
<path d="M5 12.9944H18M5.62822 21.0199L4 20.9944L3 22.4944V22.9944H20L19.5 21.4944L18 20.4944M4.5 12.4944L4.40435 12.3987M4.40435 12.3987L4 11.9944L3.5 10.9944C3.66667 10.8277 4.1 10.4944 4.5 10.4944C4.9 10.4944 13.6667 10.4944 18 10.4944L19.5 11.4944L19 12.4944H18L4.40435 12.3987ZM5 20.9944L17.8145 20.8014L19 22.3405L3.5 22.4944L5 21.4944H17.3145L5 20.9944Z" stroke="#EC9111"/>
<path d="M6.00003 9.99437C5.50003 9.3277 4.70003 7.99437 5.50003 7.99437H6.25002L7 7.49437L6.5 5.99437L7 5.49437H9.5H16L16.5 5.99437C16.5 6.66104 16.8 7.89437 16 7.49437C15.2 7.09437 12 7.3277 10.5 7.49437H7.5V5.99437L9.5 5.49437H7L6.5 5.99437L7 7.49437L6.25002 7.99437H17C17.6667 8.3277 18.7 9.19437 17.5 9.99437C16.3 10.7944 9.33336 10.3277 6.00003 9.99437Z" fill="#EC9111"/>
<path d="M9.5 4.99437L9 4.49437C9.66667 3.99437 9.6 3.39437 10 2.99437C11 1.99437 11 1.3277 11.5 0.99437L15 4.99437H9.5Z" fill="#EC9111"/>
<path d="M6.00003 9.99437C5.50003 9.3277 4.70003 7.99437 5.50003 7.99437C6.30003 7.99437 13.5 7.99437 17 7.99437C17.6667 8.3277 18.7 9.19437 17.5 9.99437C16.3 10.7944 9.33336 10.3277 6.00003 9.99437ZM6.00003 9.99437L5.50003 8.49437L7 7.49437L6.5 5.99437L7 5.49437H9.5M9.5 5.49437H16L16.5 5.99437C16.5 6.66104 16.8 7.89437 16 7.49437C15.2 7.09437 12 7.3277 10.5 7.49437H7.5V5.99437L9.5 5.49437ZM9 4.49437L9.5 4.99437H15L11.5 0.99437C11 1.3277 11 1.99437 10 2.99437C9.6 3.39437 9.66667 3.99437 9 4.49437Z" stroke="#EC9111"/>
</svg>
