<svg width="24" height="24" viewBox="0 0 24 24" fill="none" xmlns="http://www.w3.org/2000/svg">
<g id="search-svgrepo-com (3) 4">
<path id="Vector" d="M22 11.5C22 15.9783 22 18.2175 20.6087 19.6087C19.2175 21 16.9783 21 12.5 21C8.02165 21 5.78248 21 4.39125 19.6087C3 18.2175 3 15.9783 3 11.5C3 7.02165 3 4.78248 4.39125 3.39125C5.78248 2 8.02165 2 12.5 2C16.9783 2 19.2175 2 20.6087 3.39125C21.5338 4.3163 21.8438 5.61622 21.9477 7.7" stroke="black" stroke-opacity="0.7" stroke-width="2" stroke-linecap="round"/>
<path id="Vector_2" d="M16.3846 12H12.6923M12.6923 12H9M12.6923 12V9M12.6923 12V15" stroke="black" stroke-opacity="0.7" stroke-width="2" stroke-linecap="round"/>
</g>
</svg>
