<svg width="20" height="20" viewBox="0 0 20 20" fill="none" xmlns="http://www.w3.org/2000/svg">
<path d="M9.16992 1.66992C10.0098 1.66992 10.8203 1.77734 11.6016 1.99219C12.3828 2.20703 13.112 2.51628 13.7891 2.91992C14.4661 3.32357 15.0846 3.79883 15.6445 4.3457C16.2044 4.89258 16.6829 5.51107 17.0801 6.20117C17.4772 6.89128 17.7832 7.6237 17.998 8.39844C18.2129 9.17318 18.3236 9.98372 18.3301 10.8301C18.3301 11.6699 18.2227 12.4805 18.0078 13.2617C17.793 14.043 17.4837 14.7721 17.0801 15.4492C16.6764 16.1263 16.2012 16.748 15.6543 17.3145C15.1074 17.8809 14.4889 18.3594 13.7988 18.75C13.1087 19.1406 12.3763 19.4466 11.6016 19.668C10.8268 19.8893 10.0163 20 9.16992 20C8.32357 20 7.50977 19.8926 6.72852 19.6777C5.94727 19.4629 5.2181 19.1536 4.54102 18.75C3.86393 18.3464 3.24544 17.8678 2.68555 17.3145C2.12565 16.7611 1.64714 16.1426 1.25 15.459C0.852865 14.7754 0.546875 14.0462 0.332031 13.2715C0.117188 12.4967 0.00651042 11.6829 0 10.8301C0 9.99023 0.107422 9.17969 0.322266 8.39844C0.537109 7.61719 0.846354 6.88802 1.25 6.21094C1.65365 5.53385 2.13216 4.91536 2.68555 4.35547C3.23893 3.79557 3.85742 3.31706 4.54102 2.91992C5.22461 2.52279 5.95378 2.2168 6.72852 2.00195C7.50326 1.78711 8.31706 1.67643 9.16992 1.66992ZM9.16992 18.6621C9.89258 18.6621 10.5859 18.571 11.25 18.3887C11.9141 18.2064 12.5391 17.9427 13.125 17.5977C13.7109 17.2526 14.2383 16.8424 14.707 16.3672C15.1758 15.8919 15.5827 15.3646 15.9277 14.7852C16.2728 14.2057 16.5365 13.584 16.7188 12.9199C16.901 12.2559 16.9954 11.5592 17.002 10.8301C17.002 10.1139 16.9108 9.42383 16.7285 8.75977C16.5462 8.0957 16.2826 7.4707 15.9375 6.88477C15.5924 6.29883 15.1823 5.77148 14.707 5.30273C14.2318 4.83398 13.7012 4.42383 13.1152 4.07227C12.5293 3.7207 11.9076 3.45703 11.25 3.28125C10.5924 3.10547 9.89909 3.01107 9.16992 2.99805C8.44727 2.99805 7.75391 3.08919 7.08984 3.27148C6.42578 3.45378 5.80078 3.71745 5.21484 4.0625C4.62891 4.40755 4.10156 4.81771 3.63281 5.29297C3.16406 5.76823 2.75716 6.29557 2.41211 6.875C2.06706 7.45443 1.80339 8.07617 1.62109 8.74023C1.4388 9.4043 1.3444 10.1009 1.33789 10.8301C1.33789 11.5527 1.42904 12.2461 1.61133 12.9102C1.79362 13.5742 2.05729 14.1992 2.40234 14.7852C2.7474 15.3711 3.1543 15.8984 3.62305 16.3672C4.0918 16.8359 4.6224 17.2461 5.21484 17.5977C5.80729 17.9492 6.42904 18.2096 7.08008 18.3789C7.73112 18.5482 8.42773 18.6426 9.16992 18.6621ZM4.58008 10H13.75V11.6699H4.58008V10Z" fill="black"/>
</svg>
