<svg width="15" height="15" viewBox="0 0 15 15" fill="none" xmlns="http://www.w3.org/2000/svg">
<g clip-path="url(#clip0_4395_22256)">
<path d="M13.5938 15H1.40625C0.628125 15 0 14.3719 0 13.5938V2.34375C0 1.56563 0.628125 0.9375 1.40625 0.9375H13.5938C14.3719 0.9375 15 1.56563 15 2.34375V13.5938C15 14.3719 14.3719 15 13.5938 15ZM1.40625 1.875C1.14375 1.875 0.9375 2.08125 0.9375 2.34375V13.5938C0.9375 13.8562 1.14375 14.0625 1.40625 14.0625H13.5938C13.8562 14.0625 14.0625 13.8562 14.0625 13.5938V2.34375C14.0625 2.08125 13.8562 1.875 13.5938 1.875H1.40625Z" fill="#979797"/>
<path d="M4.21875 3.75C3.95625 3.75 3.75 3.54375 3.75 3.28125V0.46875C3.75 0.20625 3.95625 0 4.21875 0C4.48125 0 4.6875 0.20625 4.6875 0.46875V3.28125C4.6875 3.54375 4.48125 3.75 4.21875 3.75ZM10.7812 3.75C10.5188 3.75 10.3125 3.54375 10.3125 3.28125V0.46875C10.3125 0.20625 10.5188 0 10.7812 0C11.0437 0 11.25 0.20625 11.25 0.46875V3.28125C11.25 3.54375 11.0437 3.75 10.7812 3.75ZM14.5312 5.625H0.46875C0.20625 5.625 0 5.41875 0 5.15625C0 4.89375 0.20625 4.6875 0.46875 4.6875H14.5312C14.7937 4.6875 15 4.89375 15 5.15625C15 5.41875 14.7937 5.625 14.5312 5.625Z" fill="#979797"/>
</g>
<defs>
<clipPath id="clip0_4395_22256">
<rect width="15" height="15" fill="white"/>
</clipPath>
</defs>
</svg>
