<svg width="17" height="16" viewBox="0 0 17 16" fill="none" xmlns="http://www.w3.org/2000/svg">
<path fill-rule="evenodd" clip-rule="evenodd" d="M1.32232 10.8088C-0.80911 5.64728 3.03974 0 8.68895 0H8.99373C13.2186 0 16.6435 3.37898 16.6435 7.54715C16.6435 12.1879 12.8302 15.95 8.1264 15.95H0.711191C0.409419 15.95 0.140507 15.7621 0.0403501 15.4812C-0.0598061 15.2004 0.0306052 14.8878 0.265895 14.7013L2.13527 13.2202C2.217 13.1554 2.24592 13.0454 2.20636 12.9496L1.32232 10.8088ZM8.68895 1.40323C4.04984 1.40323 0.889183 6.04075 2.6395 10.2794L3.52355 12.4202C3.80042 13.0907 3.59802 13.861 3.02586 14.3143L2.73244 14.5468H8.1264C12.0447 14.5468 15.2212 11.4129 15.2212 7.54715C15.2212 4.15396 12.4331 1.40323 8.99373 1.40323H8.68895Z" fill="black"/>
</svg>
