<svg width="25" height="24" viewBox="0 0 25 24" fill="none" xmlns="http://www.w3.org/2000/svg">
<g clip-path="url(#clip0_21_25589)">
<path d="M20.2428 14.7271C20.2916 14.7269 20.3404 14.7266 20.3907 14.7264C20.4691 14.7263 20.4691 14.7263 20.5491 14.7262C20.6034 14.7261 20.6577 14.726 20.7136 14.7258C20.8284 14.7256 20.9432 14.7255 21.0581 14.7255C21.2329 14.7254 21.4077 14.7247 21.5825 14.7239C21.6942 14.7238 21.806 14.7237 21.9177 14.7237C21.9696 14.7234 22.0216 14.7231 22.0751 14.7228C22.6102 14.7242 22.9695 14.7838 23.3568 15.1153C23.6892 15.4369 23.679 15.7548 23.6784 16.1667C23.6788 16.2264 23.6793 16.286 23.6798 16.3456C23.6811 16.5071 23.6814 16.6685 23.6815 16.83C23.6816 16.9311 23.6819 17.0322 23.6822 17.1333C23.6835 17.4865 23.6841 17.8397 23.684 18.193C23.6839 18.5213 23.6854 18.8495 23.6876 19.1778C23.6894 19.4604 23.6901 19.743 23.6901 20.0257C23.69 20.1941 23.6904 20.3626 23.6919 20.531C23.6932 20.6897 23.6932 20.8483 23.6922 21.0069C23.6921 21.0648 23.6924 21.1226 23.6933 21.1805C23.6986 21.5687 23.6345 21.8672 23.3798 22.1924C23.0835 22.4548 22.7219 22.5592 22.3034 22.571C22.1944 22.5718 22.0854 22.5719 21.9764 22.5714C21.9183 22.5715 21.8602 22.5716 21.8003 22.5717C21.6467 22.5718 21.4931 22.5714 21.3395 22.5707C21.2458 22.5704 21.1522 22.5707 21.0585 22.5711C20.8774 22.5718 20.6962 22.5718 20.5151 22.5714C20.432 22.5718 20.432 22.5718 20.3472 22.5721C19.8549 22.5686 19.5175 22.4977 19.1559 22.2005C19.0162 22.0638 18.8797 21.8981 18.8797 21.7086C17.9515 21.696 17.1716 21.8167 16.2904 22.0664C16.1715 22.0989 16.0527 22.1312 15.9337 22.1634C15.716 22.2224 15.4984 22.2818 15.2811 22.3418C14.6834 22.5069 14.0832 22.6645 13.4827 22.8215C13.2902 22.8719 13.0979 22.9226 12.9056 22.9735C12.8147 22.9976 12.7238 23.0216 12.6329 23.0456C12.5223 23.0747 12.4118 23.104 12.3014 23.1334C11.2607 23.4065 10.5564 23.2969 9.59706 22.8691C9.52145 22.8359 9.44582 22.8028 9.37016 22.7697C9.17183 22.6829 8.97389 22.5954 8.77605 22.5077C8.57807 22.4201 8.3798 22.3331 8.18152 22.246C8.14294 22.229 8.10437 22.2121 8.06463 22.1947C7.98746 22.1608 7.91028 22.1269 7.83311 22.093C7.71806 22.0425 7.60306 21.9919 7.48806 21.9412C7.06453 21.755 6.63947 21.5725 6.21031 21.3963C5.54665 21.123 4.89011 20.8368 4.23281 20.5521C4.07207 20.4826 3.9112 20.4132 3.75021 20.3441C3.55265 20.2592 3.35531 20.174 3.15814 20.0884C3.08398 20.0563 3.00974 20.0244 2.93542 19.9926C2.26083 19.7036 1.73802 19.4306 1.43873 18.7979C1.28224 18.3244 1.37542 17.8469 1.633 17.4188C1.86937 17.0756 2.23711 16.8146 2.67721 16.6938C2.86558 16.662 3.04775 16.6497 3.23937 16.6457C3.27214 16.6446 3.30491 16.6436 3.33868 16.6424C3.91329 16.646 4.47589 16.9511 4.98285 17.1633C5.17562 17.2439 5.36875 17.3239 5.56193 17.4038C5.60085 17.4199 5.63978 17.436 5.67988 17.4526C6.07041 17.6138 6.46369 17.7695 6.85804 17.9234C6.88937 17.9357 6.9207 17.9479 6.95298 17.9605C7.1242 18.0273 7.29552 18.0939 7.46695 18.1603C7.47254 18.1274 7.47813 18.0944 7.48389 18.0605C7.49163 18.0171 7.49938 17.9738 7.50737 17.9291C7.51487 17.8862 7.52237 17.8432 7.5301 17.799C7.6097 17.4698 7.89236 17.2129 8.20925 17.0313C8.5854 16.8823 8.95821 16.8971 9.36278 16.9024C9.48774 16.9039 9.61266 16.9044 9.73763 16.9046C10.0927 16.9052 10.4477 16.9066 10.8027 16.911C11.0207 16.9137 11.2386 16.9143 11.4566 16.9137C11.5389 16.9139 11.6212 16.9148 11.7035 16.9164C12.2914 16.9279 12.6402 16.8339 13.101 16.5141C13.2797 16.3972 13.4874 16.319 13.6894 16.2375C13.7574 16.2098 13.7574 16.2098 13.8266 16.1816C15.4369 15.5408 17.1747 15.3734 18.9261 15.4991C18.939 15.4621 18.9519 15.4252 18.9652 15.3871C19.0893 15.0866 19.3235 14.9455 19.6468 14.8114C19.845 14.7454 20.0316 14.7279 20.2428 14.7271ZM19.6771 15.5797C19.5768 15.7265 19.5696 15.846 19.5688 16.0132C19.5684 16.0615 19.5681 16.1098 19.5678 16.1596C19.5676 16.2127 19.5675 16.2658 19.5674 16.3205C19.5671 16.377 19.5668 16.4334 19.5665 16.4898C19.5655 16.6752 19.565 16.8606 19.5645 17.046C19.5644 17.1098 19.5642 17.1736 19.564 17.2375C19.5631 17.5374 19.5624 17.8373 19.562 18.1372C19.5616 18.4833 19.5604 18.8294 19.5585 19.1755C19.5571 19.4431 19.5564 19.7106 19.5562 19.9782C19.5561 20.138 19.5557 20.2978 19.5546 20.4576C19.5535 20.6079 19.5533 20.7583 19.5538 20.9086C19.5538 20.99 19.5529 21.0713 19.552 21.1526C19.5494 21.5056 19.5494 21.5056 19.7612 21.7892C19.9241 21.898 20.0414 21.9254 20.245 21.9258C20.3189 21.9264 20.3189 21.9264 20.3942 21.927C20.447 21.9267 20.4997 21.9265 20.554 21.9262C20.6086 21.9264 20.6633 21.9265 20.7195 21.9266C20.8349 21.9267 20.9503 21.9265 21.0657 21.926C21.242 21.9253 21.4184 21.9259 21.5947 21.9267C21.7069 21.9266 21.8191 21.9265 21.9313 21.9262C21.984 21.9265 22.0366 21.9267 22.0908 21.927C22.455 21.9263 22.455 21.9263 22.7767 21.7892C22.9049 21.6365 22.9335 21.5291 22.9342 21.3415C22.9347 21.292 22.9353 21.2426 22.9358 21.1916C22.9357 21.1371 22.9355 21.0827 22.9354 21.0282C22.9357 20.9705 22.9361 20.9129 22.9366 20.8553C22.9376 20.699 22.9377 20.5427 22.9377 20.3864C22.9377 20.2558 22.9381 20.1253 22.9384 19.9947C22.9393 19.6867 22.9395 19.3786 22.9392 19.0705C22.9388 18.7529 22.9399 18.4353 22.9416 18.1177C22.9431 17.8448 22.9436 17.5719 22.9434 17.299C22.9433 17.1361 22.9436 16.9733 22.9447 16.8104C22.9457 16.6571 22.9456 16.504 22.9447 16.3508C22.9445 16.2946 22.9448 16.2385 22.9454 16.1823C22.9616 15.8469 22.9616 15.8469 22.8126 15.5495C22.6131 15.4089 22.4632 15.3682 22.2086 15.3671C22.1612 15.3667 22.1138 15.3663 22.065 15.3659C22.0143 15.3659 21.9636 15.366 21.9114 15.366C21.8588 15.3658 21.8063 15.3657 21.7521 15.3655C21.6411 15.3653 21.5301 15.3652 21.4191 15.3654C21.2494 15.3655 21.0798 15.3646 20.9102 15.3636C20.8022 15.3635 20.6943 15.3634 20.5863 15.3635C20.5104 15.3629 20.5104 15.3629 20.4329 15.3624C20.1316 15.364 19.8917 15.374 19.6771 15.5797ZM13.7822 16.9255C13.7542 16.9381 13.7262 16.9508 13.6973 16.9639C13.5425 17.0373 13.4039 17.1129 13.2657 17.2091C12.7799 17.5403 12.3814 17.5702 11.7784 17.5577C11.6907 17.5574 11.6029 17.5574 11.5151 17.5575C11.2861 17.5574 11.0572 17.5551 10.8283 17.5521C10.4606 17.5477 10.0928 17.5464 9.72505 17.5457C9.59719 17.5451 9.46941 17.5433 9.34157 17.5414C9.26317 17.5409 9.18478 17.5404 9.10638 17.5399C9.07117 17.539 9.03595 17.5382 8.99967 17.5373C8.75908 17.5372 8.62712 17.5862 8.44121 17.7168C8.26655 17.8686 8.21351 17.9854 8.20925 18.2006C8.28454 18.4115 8.38964 18.54 8.58039 18.6845C8.72917 18.7491 8.89117 18.7313 9.05464 18.7318C9.11384 18.7322 9.11384 18.7322 9.17424 18.7326C9.26018 18.7332 9.34612 18.7337 9.43206 18.7341C9.56844 18.7347 9.7048 18.7357 9.84117 18.7367C10.229 18.7395 10.6168 18.742 11.0047 18.744C11.2418 18.7453 11.479 18.747 11.7161 18.7489C11.8062 18.7495 11.8963 18.75 11.9864 18.7504C13.4252 18.756 13.4252 18.756 13.9736 19.191C14.2935 19.4876 14.4754 19.8571 14.4839 20.2621C14.4851 20.2963 14.4863 20.3305 14.4876 20.3657C14.4691 20.4784 14.436 20.5116 14.3332 20.5796C14.1617 20.6266 14.0422 20.6128 13.8692 20.5796C13.8613 20.5387 13.8534 20.4979 13.8453 20.4558C13.834 20.4013 13.8226 20.3468 13.8112 20.2923C13.8061 20.2655 13.8011 20.2387 13.7958 20.211C13.7273 19.8913 13.5237 19.6727 13.2197 19.4909C12.9411 19.3807 12.6775 19.3525 12.3746 19.3551C12.3341 19.3549 12.2936 19.3548 12.2519 19.3546C12.1647 19.3544 12.0775 19.3544 11.9904 19.3546C11.852 19.355 11.7137 19.3546 11.5754 19.3539C11.1823 19.3523 10.7893 19.3523 10.3962 19.3524C10.1551 19.3524 9.91394 19.3516 9.67281 19.3504C9.53717 19.3499 9.40156 19.3504 9.26592 19.3509C8.48879 19.3497 8.48879 19.3497 8.11646 19.1683C8.0555 19.1427 7.9945 19.1172 7.93345 19.0918C7.87561 19.0661 7.81785 19.0402 7.76017 19.0143C7.43225 18.8694 7.10025 18.7349 6.76451 18.6044C6.06424 18.3319 5.37032 18.0483 4.67835 17.7603C3.79894 17.3452 3.79894 17.3452 2.8385 17.3479C2.51294 17.4724 2.32295 17.6575 2.17196 17.934C2.07825 18.1794 2.08284 18.4667 2.21002 18.7021C2.47212 19.0863 2.94206 19.2646 3.38598 19.4559C3.43029 19.4752 3.4746 19.4944 3.52026 19.5143C3.61399 19.5549 3.70776 19.5955 3.80158 19.636C3.94124 19.6964 4.08075 19.757 4.22024 19.8176C4.31232 19.8575 4.40441 19.8974 4.49652 19.9373C4.53652 19.9546 4.57653 19.972 4.61775 19.9899C4.88404 20.1048 5.15174 20.2168 5.4202 20.3278C5.96525 20.5533 6.50611 20.7852 7.045 21.0215C7.18838 21.0844 7.33186 21.1471 7.47535 21.2097C7.8824 21.3875 8.28938 21.5653 8.69607 21.7437C8.94711 21.8537 9.19833 21.9635 9.44968 22.073C9.54454 22.1145 9.63933 22.156 9.73405 22.1977C9.8661 22.2557 9.99839 22.3134 10.1307 22.371C10.169 22.3879 10.2073 22.4049 10.2468 22.4224C10.8303 22.6746 11.2576 22.7162 11.8827 22.5567C11.9587 22.5378 11.9587 22.5378 12.0362 22.5184C12.5781 22.3823 13.1175 22.239 13.6566 22.0947C13.8338 22.0474 14.011 22.0005 14.1884 21.9537C14.7025 21.8178 15.2164 21.6817 15.7277 21.5381C15.9187 21.4846 16.1102 21.4323 16.3016 21.3801C16.3883 21.3562 16.4748 21.3317 16.561 21.3066C17.3485 21.0777 17.9547 21.0889 18.8333 21.0634C18.8333 19.4401 18.8333 17.8168 18.8333 16.1442C17.11 15.957 15.3228 16.2269 13.7822 16.9255Z" fill="black"/>
<path d="M7.96264 0.636064C8.17649 0.778768 8.32485 0.949468 8.46812 1.14937C8.50893 1.20487 8.54978 1.26033 8.59068 1.31578C8.62193 1.35844 8.62193 1.35844 8.65381 1.40196C8.75944 1.54477 8.86852 1.68538 8.97753 1.82609C9.13202 2.0261 9.28599 2.22639 9.43839 2.42771C9.52017 2.53549 9.60307 2.64251 9.68669 2.74914C9.70705 2.77516 9.72741 2.80118 9.74839 2.82799C9.78851 2.8792 9.82875 2.93034 9.86913 2.98139C9.89626 3.01605 9.89626 3.01605 9.92394 3.05142C9.9402 3.07204 9.95645 3.09266 9.9732 3.1139C10.0081 3.16531 10.0081 3.16531 10.0081 3.22215C10.0429 3.22103 10.0429 3.22103 10.0783 3.21989C10.1847 3.21691 10.2911 3.21508 10.3976 3.21327C10.4522 3.21148 10.4522 3.21148 10.5078 3.20966C10.7791 3.2062 10.9953 3.24516 11.2011 3.41333C11.4055 3.60479 11.4411 3.82831 11.438 4.08359C11.4379 4.10983 11.4378 4.13607 11.4377 4.1631C11.4331 4.35858 11.3996 4.52487 11.2984 4.69991C11.288 4.71867 11.2776 4.73742 11.2669 4.75675C11.3023 4.7592 11.3376 4.76166 11.374 4.76419C11.6873 4.78933 11.9545 4.81671 12.1756 5.03916C12.3935 5.32273 12.4114 5.62668 12.3505 5.96376C12.3127 6.10793 12.2689 6.22299 12.1795 6.34819C12.2149 6.34892 12.2502 6.34965 12.2866 6.35041C12.621 6.36056 12.9029 6.38269 13.1551 6.60395C13.326 6.80678 13.3562 6.98687 13.3557 7.23449C13.3556 7.26107 13.3556 7.28765 13.3555 7.31503C13.3487 7.66528 13.2165 7.93191 12.9364 8.17618C12.737 8.3233 12.5613 8.36543 12.3054 8.39432C12.3054 9.80104 12.3054 11.2078 12.3054 12.6571C12.4196 12.6571 12.5339 12.6571 12.6516 12.6571C13.048 12.7225 13.3299 12.9044 13.5642 13.197C13.6702 13.3824 13.726 13.5651 13.7246 13.774C13.7245 13.8017 13.7244 13.8295 13.7243 13.8581C13.724 13.8867 13.7238 13.9153 13.7235 13.9448C13.7234 13.974 13.7232 14.0032 13.7231 14.0332C13.7227 14.105 13.7222 14.1768 13.7215 14.2485C13.755 14.2478 13.7885 14.247 13.823 14.2463C13.9477 14.2437 14.0723 14.2421 14.1969 14.2407C14.2508 14.24 14.3047 14.239 14.3585 14.2378C14.4361 14.2361 14.5136 14.2353 14.5912 14.2347C14.6152 14.2339 14.6392 14.2332 14.6639 14.2324C14.7906 14.2324 14.8475 14.2436 14.9483 14.3151C15.0118 14.3906 15.0118 14.3906 15.0314 14.4759C15.0046 14.5921 14.9568 14.6296 14.8544 14.7032C14.7654 14.7172 14.6953 14.7224 14.6065 14.7211C14.5691 14.7214 14.5691 14.7214 14.531 14.7217C14.4473 14.7223 14.3636 14.7218 14.2798 14.7213C14.2193 14.7214 14.1588 14.7217 14.0983 14.7219C13.9318 14.7225 13.7652 14.7222 13.5987 14.7218C13.4192 14.7215 13.2397 14.722 13.0601 14.7224C12.7084 14.723 12.3566 14.7229 12.0049 14.7225C11.7191 14.7221 11.4333 14.7221 11.1474 14.7222C11.1068 14.7223 11.0662 14.7223 11.0243 14.7223C10.9418 14.7224 10.8592 14.7224 10.7767 14.7224C10.0243 14.7228 9.27192 14.7224 8.51953 14.7217C7.83248 14.721 7.14543 14.7211 6.45838 14.7218C5.68672 14.7225 4.91507 14.7228 4.14341 14.7224C4.06117 14.7223 3.97893 14.7223 3.89669 14.7222C3.85622 14.7222 3.81576 14.7222 3.77407 14.7222C3.4885 14.7221 3.20294 14.7223 2.91738 14.7226C2.56952 14.723 2.22165 14.7229 1.87379 14.7221C1.6962 14.7218 1.51862 14.7216 1.34104 14.7221C1.1786 14.7225 1.01618 14.7223 0.85375 14.7215C0.794859 14.7214 0.735966 14.7214 0.677075 14.7218C0.597247 14.7222 0.517481 14.7218 0.437656 14.7211C0.414587 14.7214 0.391519 14.7218 0.367751 14.7221C0.245656 14.7201 0.193512 14.706 0.0967698 14.6364C0.0323638 14.5611 0.0323637 14.5611 0.0126953 14.4759C0.0396287 14.3591 0.0863003 14.3219 0.18971 14.2485C0.283864 14.2361 0.359335 14.2318 0.452897 14.2347C0.477821 14.2349 0.502744 14.2351 0.528422 14.2353C0.607643 14.2361 0.686793 14.2378 0.765993 14.2397C0.819854 14.2404 0.873717 14.241 0.927581 14.2416C1.05928 14.2432 1.19093 14.2456 1.32261 14.2485C1.32195 14.2315 1.32129 14.2145 1.32061 14.197C1.29342 13.3879 1.29342 13.3879 1.58211 13.0788C1.82702 12.8468 2.04205 12.7204 2.39257 12.6571C2.5068 12.6571 2.62103 12.6571 2.73873 12.6571C2.73873 11.2504 2.73873 9.84366 2.73873 8.39432C2.65565 8.38494 2.57257 8.37556 2.48697 8.3659C2.21086 8.28364 1.98089 8.11431 1.83755 7.886C1.72482 7.66753 1.69316 7.49125 1.69041 7.25225C1.68949 7.22644 1.68858 7.20063 1.68764 7.17404C1.68513 6.93096 1.76146 6.72424 1.95199 6.54712C2.16158 6.40311 2.35302 6.36824 2.60892 6.35884C2.63358 6.35774 2.65825 6.35664 2.68366 6.35551C2.74396 6.35286 2.80428 6.35049 2.86461 6.34819C2.8354 6.30071 2.8354 6.30071 2.8056 6.25227C2.65547 5.97775 2.63078 5.64562 2.69546 5.34643C2.78556 5.12453 2.91145 4.96243 3.14328 4.84633C3.34631 4.77915 3.56285 4.76977 3.77722 4.75675C3.76849 4.7396 3.75977 4.72246 3.75079 4.7048C3.73939 4.68208 3.72799 4.65937 3.71624 4.63597C3.70493 4.61355 3.69361 4.59113 3.68195 4.56803C3.61091 4.41241 3.61196 4.26416 3.61004 4.09779C3.60867 4.05908 3.60867 4.05908 3.60727 4.01959C3.60492 3.79126 3.67547 3.63182 3.81262 3.44239C4.02785 3.25648 4.24264 3.20591 4.53629 3.20966C4.57268 3.21085 4.60907 3.21204 4.64656 3.21327C4.68416 3.21391 4.72177 3.21455 4.76051 3.21521C4.85238 3.21687 4.94416 3.2192 5.03599 3.22215C5.04508 3.20046 5.05417 3.17876 5.06353 3.15641C5.10772 3.06109 5.17095 2.98314 5.23857 2.90066C5.26734 2.86495 5.29606 2.8292 5.32475 2.79343C5.33954 2.77501 5.35433 2.75659 5.36957 2.73762C5.43952 2.64962 5.50724 2.56028 5.5749 2.47083C5.74096 2.25171 5.90886 2.03377 6.07695 1.81591C6.1882 1.67165 6.29906 1.52717 6.40899 1.38209C6.46335 1.31038 6.51794 1.23882 6.57264 1.16733C6.60812 1.12092 6.64346 1.07443 6.67879 1.02793C6.989 0.629109 7.42917 0.393909 7.96264 0.636064ZM7.18792 1.17447C7.13294 1.24267 7.08037 1.31196 7.02839 1.38205C7.00908 1.40754 6.98977 1.43302 6.96987 1.45928C6.93065 1.51107 6.89158 1.56296 6.85265 1.61493C6.79207 1.69583 6.73084 1.77631 6.66945 1.85672C6.62822 1.91076 6.58712 1.96489 6.54603 2.01902C6.43022 2.17127 6.31327 2.3228 6.19642 2.47439C6.17485 2.50241 6.15327 2.53044 6.13104 2.55931C6.03885 2.67901 5.94658 2.79865 5.85346 2.91776C5.83326 2.94371 5.83326 2.94371 5.81266 2.97019C5.77842 3.01417 5.74403 3.05805 5.70963 3.10193C5.65978 3.16084 5.65978 3.16084 5.66538 3.22215C6.89079 3.22215 8.11621 3.22215 9.37876 3.22215C9.3341 3.12132 9.30584 3.05969 9.23924 2.97648C9.21668 2.94801 9.21668 2.94801 9.19366 2.91897C9.17751 2.89886 9.16135 2.87875 9.14471 2.85804C9.11014 2.81443 9.0756 2.7708 9.04108 2.72716C9.01501 2.69428 9.01501 2.69428 8.98842 2.66073C8.91539 2.56798 8.84408 2.47421 8.77298 2.38025C8.56578 2.10713 8.35656 1.83529 8.14657 1.56391C8.09468 1.49661 8.04321 1.42907 7.9919 1.3614C7.96445 1.32565 7.937 1.28991 7.90954 1.25417C7.8867 1.22413 7.86386 1.19409 7.84033 1.16314C7.74814 1.0628 7.66713 1.01232 7.52404 0.993072C7.37553 1.01223 7.28212 1.0722 7.18792 1.17447ZM4.15485 3.81894C4.07038 3.97149 4.09893 4.24108 4.14379 4.40507C4.23063 4.57667 4.40199 4.71546 4.59542 4.78517C4.67513 4.79071 4.75138 4.7932 4.83108 4.79296C4.85491 4.79311 4.87874 4.79326 4.9033 4.79341C4.98321 4.79384 5.06312 4.79386 5.14303 4.79387C5.20031 4.79409 5.25758 4.79433 5.31486 4.79459C5.47052 4.79522 5.62618 4.79546 5.78184 4.79561C5.87911 4.79571 5.97639 4.79589 6.07366 4.79609C6.41307 4.79679 6.75248 4.79716 7.09189 4.79726C7.40815 4.79736 7.7244 4.79821 8.04065 4.7994C8.31224 4.80039 8.58383 4.80083 8.85542 4.80085C9.0176 4.80087 9.17977 4.80112 9.34194 4.80193C9.49455 4.80267 9.64714 4.80273 9.79975 4.80228C9.85567 4.80223 9.91159 4.80242 9.9675 4.80287C10.3653 4.8146 10.3653 4.8146 10.7005 4.64307C10.86 4.50075 10.9286 4.36841 10.9324 4.16468C10.9325 4.13509 10.9325 4.13509 10.9326 4.1049C10.9333 4.08528 10.9341 4.06567 10.9349 4.04545C10.9358 3.89939 10.8968 3.81729 10.7949 3.70526C10.696 3.66062 10.5903 3.67253 10.4817 3.67247C10.4556 3.67235 10.4294 3.67222 10.4024 3.67209C10.3143 3.67171 10.2261 3.67154 10.138 3.67136C10.075 3.67114 10.012 3.6709 9.94898 3.67066C9.74165 3.66991 9.53433 3.66948 9.32701 3.66907C9.25572 3.66892 9.18444 3.66877 9.11315 3.66862C8.81671 3.668 8.52027 3.66747 8.22383 3.66715C7.79853 3.66669 7.37324 3.66574 6.94794 3.66413C6.64915 3.66303 6.35036 3.66247 6.05156 3.66232C5.87298 3.66222 5.6944 3.66187 5.51582 3.66095C5.34785 3.6601 5.17989 3.65992 5.01191 3.66025C4.95022 3.66026 4.88853 3.66002 4.82684 3.65952C4.74268 3.65888 4.65857 3.65911 4.57441 3.65957C4.54993 3.65917 4.52546 3.65878 4.50024 3.65837C4.33044 3.66062 4.25916 3.69958 4.15485 3.81894ZM3.27371 5.32512C3.17344 5.47603 3.16219 5.60663 3.1793 5.77982C3.18112 5.80099 3.18295 5.82216 3.18483 5.84398C3.21535 6.03461 3.328 6.17285 3.49399 6.29135C3.68908 6.37114 3.84847 6.38885 4.06106 6.38743C4.09193 6.38756 4.12281 6.3877 4.15463 6.38783C4.25764 6.38817 4.36063 6.3879 4.46364 6.38764C4.53768 6.38775 4.61172 6.3879 4.68576 6.38809C4.88653 6.38848 5.0873 6.38833 5.28808 6.38806C5.47698 6.38786 5.66588 6.38801 5.85478 6.38813C6.25171 6.38838 6.64863 6.3881 7.04556 6.38764C7.38584 6.38726 7.72611 6.38733 8.06639 6.38772C8.46194 6.38818 8.85749 6.38835 9.25303 6.38809C9.46227 6.38796 9.67151 6.38794 9.88075 6.38822C10.0775 6.38847 10.2742 6.3883 10.4709 6.38781C10.5431 6.38769 10.6152 6.38773 10.6874 6.38791C10.786 6.38815 10.8845 6.38785 10.9831 6.38743C11.0258 6.38772 11.0258 6.38772 11.0694 6.38801C11.2919 6.38615 11.5052 6.35178 11.6701 6.20432C11.8438 6.03382 11.8831 5.81608 11.8737 5.59021C11.8594 5.48351 11.8332 5.41771 11.7704 5.32512C11.6029 5.22269 11.4467 5.22784 11.2519 5.22904C11.2188 5.2289 11.1856 5.22877 11.1514 5.22863C11.0402 5.22829 10.929 5.22856 10.8179 5.22883C10.7382 5.22872 10.6584 5.22856 10.5787 5.22838C10.3847 5.22803 10.1907 5.22808 9.99667 5.22833C9.83897 5.22852 9.68127 5.22855 9.52356 5.22846C9.48988 5.22844 9.48989 5.22844 9.45552 5.22842C9.40991 5.22839 9.3643 5.22836 9.31868 5.22833C8.89105 5.22809 8.46342 5.22837 8.03579 5.22883C7.66894 5.22921 7.30209 5.22914 6.93525 5.22875C6.50913 5.22829 6.08302 5.22811 5.65691 5.22837C5.61147 5.2284 5.56602 5.22843 5.52057 5.22846C5.48703 5.22847 5.48703 5.22847 5.45282 5.22849C5.29532 5.22857 5.13783 5.22844 4.98034 5.22824C4.76833 5.22798 4.55632 5.22817 4.34431 5.22866C4.26644 5.22877 4.18857 5.22874 4.11071 5.22855C4.00453 5.22832 3.89837 5.22861 3.79219 5.22904C3.76128 5.22885 3.73037 5.22866 3.69852 5.22846C3.53411 5.22974 3.41425 5.23897 3.27371 5.32512ZM2.23522 6.97339C2.15075 7.12596 2.17994 7.39413 2.22305 7.55853C2.29598 7.70504 2.42834 7.83093 2.58138 7.9112C2.80163 7.97484 3.02122 7.97608 3.25039 7.97526C3.30751 7.97539 3.30751 7.97539 3.36578 7.97553C3.4708 7.97571 3.57582 7.97565 3.68084 7.97547C3.79436 7.97534 3.90788 7.97554 4.02141 7.9757C4.24353 7.97595 4.46565 7.9759 4.68778 7.97573C4.86835 7.9756 5.04893 7.97559 5.22951 7.97565C5.25524 7.97566 5.28097 7.97566 5.30748 7.97567C5.35976 7.97569 5.41204 7.97571 5.46432 7.97573C5.95418 7.97589 6.44403 7.9757 6.93389 7.9754C7.35391 7.97515 7.77393 7.97519 8.19396 7.97545C8.6821 7.97576 9.17024 7.97588 9.65838 7.9757C9.71047 7.97568 9.76255 7.97566 9.81463 7.97565C9.85307 7.97563 9.85307 7.97563 9.89228 7.97562C10.0726 7.97557 10.2529 7.97565 10.4332 7.97579C10.653 7.97595 10.8728 7.9759 11.0926 7.9756C11.2047 7.97545 11.3168 7.97539 11.4288 7.97558C11.5505 7.97578 11.6721 7.97554 11.7937 7.97526C11.8466 7.97545 11.8466 7.97545 11.9005 7.97564C12.2886 7.97414 12.2886 7.97414 12.6162 7.80641C12.6388 7.78813 12.6614 7.76985 12.6848 7.75102C12.8234 7.59897 12.8569 7.44591 12.8561 7.2558C12.857 7.23644 12.8579 7.21708 12.8588 7.19713C12.8593 7.08646 12.8406 7.01714 12.7647 6.93265C12.6532 6.83303 12.6061 6.82773 12.4537 6.82741C12.4181 6.82726 12.3826 6.82712 12.346 6.82697C12.3066 6.82696 12.2673 6.82694 12.2267 6.82693C12.1847 6.82681 12.1428 6.82669 12.1008 6.82655C11.9851 6.82621 11.8693 6.82605 11.7536 6.82592C11.6289 6.82575 11.5042 6.82542 11.3795 6.82511C11.0782 6.82442 10.7769 6.824 10.4756 6.82364C10.3906 6.82353 10.3055 6.82342 10.2204 6.8233C9.69246 6.82258 9.16448 6.82196 8.63651 6.8216C8.51417 6.82152 8.39184 6.82144 8.2695 6.82135C8.23909 6.82133 8.20868 6.82131 8.17735 6.82129C7.68461 6.82093 7.19188 6.81998 6.69914 6.8188C6.19353 6.81759 5.68793 6.81692 5.18232 6.81678C4.89833 6.81668 4.61434 6.81634 4.33034 6.81541C4.08851 6.81461 3.84669 6.8143 3.60486 6.81462C3.48144 6.81477 3.35804 6.81468 3.23462 6.81398C3.12164 6.81334 3.00868 6.81336 2.89569 6.8139C2.83545 6.81402 2.77521 6.81343 2.71498 6.81283C2.49925 6.81463 2.38001 6.82302 2.23522 6.97339ZM3.24224 8.39432C3.24224 9.80104 3.24224 11.2078 3.24224 12.6571C3.68879 12.6571 4.13534 12.6571 4.59542 12.6571C4.59542 11.2504 4.59542 9.84366 4.59542 8.39432C4.14887 8.39432 3.70232 8.39432 3.24224 8.39432ZM5.09893 8.39432C5.09893 9.80104 5.09893 11.2078 5.09893 12.6571C6.6982 12.6571 8.29747 12.6571 9.94521 12.6571C9.94521 11.2504 9.94521 9.84366 9.94521 8.39432C8.34594 8.39432 6.74666 8.39432 5.09893 8.39432ZM10.4487 8.39432C10.4487 9.80104 10.4487 11.2078 10.4487 12.6571C10.8953 12.6571 11.3418 12.6571 11.8019 12.6571C11.8019 11.2504 11.8019 9.84366 11.8019 8.39432C11.3554 8.39432 10.9088 8.39432 10.4487 8.39432ZM2.0169 13.332C2.00039 13.3495 1.98388 13.3669 1.96687 13.3849C1.76281 13.684 1.82612 13.8679 1.82612 14.2485C5.58545 14.2485 9.34477 14.2485 13.218 14.2485C13.2554 13.7479 13.2554 13.7479 13.0366 13.338C12.7796 13.116 12.5168 13.0993 12.1758 13.1008C12.1344 13.1006 12.093 13.1005 12.0504 13.1003C11.9361 13.0999 11.8217 13.1 11.7073 13.1002C11.5838 13.1004 11.4603 13.1 11.3368 13.0997C11.095 13.0992 10.8532 13.0992 10.6114 13.0994C10.4148 13.0995 10.2182 13.0994 10.0216 13.0993C9.99361 13.0993 9.96561 13.0992 9.93677 13.0992C9.87989 13.0992 9.823 13.0991 9.76612 13.0991C9.23289 13.0987 8.69967 13.0988 8.16644 13.0992C7.67888 13.0995 7.19133 13.0991 6.70377 13.0984C6.20286 13.0977 5.70194 13.0974 5.20102 13.0976C4.91991 13.0977 4.6388 13.0977 4.3577 13.0972C4.11838 13.0967 3.87908 13.0967 3.63977 13.0972C3.51774 13.0975 3.39571 13.0975 3.27368 13.0971C3.14123 13.0966 3.0088 13.097 2.87635 13.0975C2.83801 13.0973 2.79967 13.097 2.76017 13.0967C2.49022 13.0988 2.19836 13.1302 2.0169 13.332Z" fill="black"/>
<path d="M8.73125 10.6386H7.52187M7.52187 10.6386H6.3125M7.52187 10.6386V9.58696M7.52187 10.6386V11.6902" stroke="black" stroke-width="0.5" stroke-linecap="round"/>
</g>
<defs>
<clipPath id="clip0_21_25589">
<rect width="24" height="24" fill="white" transform="translate(0.5)"/>
</clipPath>
</defs>
</svg>
