<?xml version="1.0" encoding="UTF-8"?>
<svg id="Layer_1" data-name="Layer 1" xmlns="http://www.w3.org/2000/svg" viewBox="0 0 1776.19 1790.47">
  <defs>
    <style>
      .cls-1 {
        fill: #14191c;
      }
    </style>
  </defs>
  <path class="cls-1" d="M1500,0H276.19C123.65,0,0,123.65,0,276.19v1238.09c0,152.54,123.65,276.19,276.19,276.19h1223.81c152.53,0,276.19-123.65,276.19-276.19V276.19C1776.19,123.65,1652.53,0,1500,0ZM1428.25,992.42h-450.87v450.87c0,39.21-31.79,70.99-70.99,70.99h-.01c-39.2,0-70.99-31.78-70.99-70.99v-450.87h-450.87c-39.21,0-70.99-31.79-70.99-70.99,0-19.61,7.95-37.35,20.79-50.2,12.85-12.85,30.6-20.8,50.2-20.8h450.87v-450.87c0-39.21,31.79-70.99,70.99-70.99h.01c39.2,0,70.99,31.78,70.99,70.99v450.87h450.87c39.21,0,70.99,31.79,70.99,71s-31.78,70.99-70.99,70.99Z"/>
</svg>