<svg width="20" height="26" viewBox="0 0 20 26" fill="none" xmlns="http://www.w3.org/2000/svg">
<path d="M2.74904 10.6312C2.78937 10.6301 2.78937 10.6301 2.83052 10.6289C3.09887 10.6813 3.29961 10.8388 3.48676 11.0295C3.50904 11.0516 3.53131 11.0736 3.55426 11.0964C3.62702 11.1686 3.69921 11.2415 3.77138 11.3143C3.8222 11.3652 3.87305 11.4159 3.92393 11.4667C4.03016 11.5729 4.13611 11.6793 4.24186 11.786C4.37703 11.9222 4.5128 12.0579 4.64877 12.1934C4.75375 12.2981 4.85843 12.4031 4.96303 12.5082C5.01297 12.5583 5.063 12.6083 5.1131 12.6583C5.18321 12.7283 5.25292 12.7986 5.32255 12.8691C5.34305 12.8894 5.36354 12.9097 5.38466 12.9307C5.54328 13.0925 5.6813 13.2658 5.72389 13.4937C5.72349 13.528 5.72309 13.5622 5.72267 13.5975C5.72328 13.6489 5.72328 13.6489 5.72389 13.7013C5.6568 14.0604 5.35754 14.2813 5.10324 14.518C4.7862 14.8229 4.57989 15.179 4.56773 15.6266C4.63112 16.9135 5.61192 18.2471 6.50499 19.1064C6.56252 19.1639 6.56252 19.1639 6.65773 19.2811C6.75848 19.3991 6.86387 19.4951 6.98183 19.5951C7.04292 19.648 7.10268 19.7024 7.16127 19.7581C7.99462 20.548 9.21048 21.3782 10.3966 21.4355C10.9304 21.4063 11.2457 21.1269 11.6049 20.7597C11.6255 20.7388 11.646 20.7179 11.6672 20.6964C11.7071 20.6556 11.7466 20.6145 11.7857 20.5731C11.9637 20.3894 12.1359 20.2805 12.395 20.2748C12.4456 20.2723 12.4456 20.2723 12.4971 20.2697C12.8979 20.3598 13.2055 20.75 13.4847 21.0301C13.5337 21.0789 13.5827 21.1277 13.6318 21.1766C13.7341 21.2785 13.8361 21.3806 13.938 21.4829C14.0681 21.6135 14.1989 21.7434 14.3298 21.8732C14.431 21.9737 14.5319 22.0746 14.6327 22.1756C14.6807 22.2237 14.7289 22.2716 14.7772 22.3194C14.8448 22.3864 14.9118 22.4539 14.9788 22.5215C14.9985 22.5408 15.0182 22.5602 15.0385 22.5801C15.2115 22.7567 15.374 22.9896 15.3736 23.2459C15.3524 23.5536 15.1298 23.7788 14.9202 23.9872C14.898 24.0096 14.8758 24.032 14.8529 24.0551C14.8062 24.1021 14.7594 24.1489 14.7124 24.1955C14.6415 24.2661 14.5714 24.3373 14.5013 24.4087C14.1711 24.7409 13.8473 24.9951 13.3985 25.1478C13.3702 25.1574 13.342 25.1671 13.313 25.177C11.7538 25.6863 10.0866 25.2127 8.67271 24.5008C7.18278 23.729 5.82178 22.6646 4.64845 21.4686C4.54195 21.3616 4.43479 21.2552 4.3268 21.1497C4.08032 20.9077 3.84683 20.6651 3.63252 20.3939C3.56077 20.3043 3.48599 20.22 3.40822 20.1356C3.16567 19.8655 2.95119 19.5719 2.73439 19.2811C2.71675 19.2575 2.6991 19.2338 2.68093 19.2095C1.45578 17.5579 0.378099 15.5058 0.653177 13.3859C0.697059 13.1022 0.773245 12.8328 0.869155 12.5623C0.884568 12.5182 0.884568 12.5182 0.900293 12.4732C1.07455 12.015 1.40552 11.6848 1.74744 11.3465C1.81928 11.2753 1.89046 11.2035 1.96161 11.1316C2.00763 11.0857 2.05368 11.0398 2.09978 10.9939C2.12078 10.9727 2.14178 10.9514 2.16342 10.9295C2.32986 10.7661 2.50573 10.6316 2.74904 10.6312Z" fill="#EC9111"/>
<path d="M5.19531 6.66406C9.69414 6.66406 14.193 6.66406 18.8281 6.66406C18.6101 6.92564 18.6101 6.92564 18.4961 7.02051C18.353 7.14265 18.2141 7.26858 18.0762 7.39648C18.0322 7.43723 17.9882 7.47797 17.9442 7.51871C17.9223 7.53901 17.9004 7.55931 17.8778 7.58022C17.637 7.80301 17.3951 8.02463 17.1509 8.24365C16.9569 8.41773 16.7656 8.59451 16.5742 8.77145C16.3122 9.0138 16.0494 9.25535 15.7837 9.49365C15.6097 9.64981 15.4379 9.80828 15.2663 9.96712C15.1393 10.0845 15.0116 10.201 14.8828 10.3164C14.6896 10.4896 14.4991 10.6656 14.3086 10.8418C14.0466 11.0841 13.7838 11.3257 13.5181 11.564C13.3663 11.7002 13.2161 11.838 13.0664 11.9766C13.0232 12.0164 12.98 12.0562 12.9369 12.096C12.8581 12.1687 12.7797 12.2416 12.7016 12.3148C12.6681 12.3458 12.6346 12.3768 12.6001 12.4087C12.5567 12.4493 12.5567 12.4493 12.5124 12.4906C12.3248 12.6396 12.1617 12.7033 11.9252 12.6927C11.6168 12.6479 11.4359 12.4478 11.2276 12.2306C11.1489 12.1494 11.0696 12.0744 10.9839 12.001C10.845 11.882 10.7103 11.759 10.5762 11.6348C10.5435 11.6045 10.5435 11.6045 10.5102 11.5737C10.466 11.5327 10.4217 11.4917 10.3774 11.4507C10.2771 11.3579 10.1764 11.2656 10.0757 11.1733C10.0566 11.1558 10.0375 11.1383 10.0178 11.1203C9.97919 11.085 9.94063 11.0497 9.90206 11.0144C9.84265 10.9599 9.7833 10.9054 9.72397 10.8509C9.54411 10.6857 9.36395 10.5209 9.18213 10.3579C9.00809 10.2018 8.8363 10.0433 8.66471 9.88444C8.53775 9.76703 8.41004 9.65057 8.28125 9.53516C8.08805 9.36196 7.89754 9.18596 7.70706 9.0098C7.44501 8.76745 7.18224 8.5259 6.9165 8.2876C6.72256 8.11352 6.5312 7.93674 6.33987 7.7598C6.21656 7.64576 6.093 7.53201 5.96924 7.41846C5.95008 7.40086 5.93093 7.38326 5.9112 7.36513C5.75452 7.22146 5.59563 7.08038 5.43579 6.94025C5.35156 6.85937 5.35156 6.85937 5.19531 6.66406Z" fill="#EC9111"/>
<path d="M10.4688 12.4453C10.5938 12.4585 10.6579 12.5032 10.7448 12.591C10.7668 12.6126 10.7888 12.6343 10.8114 12.6565C10.846 12.691 10.846 12.691 10.8813 12.7261C11.2471 13.0783 11.5859 13.2849 12.1013 13.2755C12.6093 13.2353 12.978 12.8892 13.3072 12.5257C13.3373 12.4992 13.3674 12.4727 13.3984 12.4453C13.5264 12.4581 13.5935 12.5079 13.6844 12.5955C13.7203 12.6296 13.7203 12.6296 13.7569 12.6644C13.7946 12.701 13.7946 12.701 13.833 12.7383C13.8858 12.7886 13.9387 12.8389 13.9915 12.8892C14.03 12.9259 14.03 12.9259 14.0692 12.9634C14.1591 13.0488 14.2508 13.1318 14.3433 13.2144C14.4833 13.3396 14.6224 13.4658 14.7607 13.5928C14.7803 13.6108 14.7999 13.6287 14.8201 13.6473C14.9002 13.7208 14.9802 13.7943 15.0602 13.8678C15.2599 14.0513 15.4597 14.2345 15.6616 14.4155C15.8357 14.5717 16.0075 14.7302 16.179 14.889C16.306 15.0064 16.4337 15.1229 16.5625 15.2383C16.7358 15.3936 16.9067 15.5513 17.0775 15.7093C17.2044 15.8267 17.3322 15.9432 17.4609 16.0586C17.612 16.1939 17.7613 16.331 17.9102 16.4688C18.2115 16.7476 18.5149 17.0235 18.8281 17.2891C18.7259 17.3913 18.6823 17.3772 18.5397 17.3779C18.4948 17.3783 18.4499 17.3787 18.4036 17.3791C18.329 17.3792 18.329 17.3792 18.2528 17.3792C18.1997 17.3795 18.1467 17.3799 18.0936 17.3802C17.9472 17.3812 17.8009 17.3816 17.6546 17.382C17.4969 17.3824 17.3393 17.3834 17.1816 17.3842C16.8007 17.3861 16.4197 17.3873 16.0388 17.3883C15.9312 17.3885 15.8237 17.3889 15.7161 17.3892C15.0486 17.3911 14.3811 17.3929 13.7135 17.3938C13.5589 17.3941 13.4042 17.3943 13.2495 17.3945C13.2111 17.3946 13.1726 17.3947 13.133 17.3947C12.51 17.3957 11.887 17.3983 11.264 17.4016C10.6248 17.4049 9.98552 17.4067 9.34625 17.4071C8.98718 17.4074 8.62813 17.4083 8.26906 17.4109C7.9633 17.4131 7.65757 17.4139 7.35179 17.413C7.19573 17.4126 7.03973 17.4129 6.88368 17.4148C6.7408 17.4166 6.59804 17.4165 6.45516 17.415C6.37899 17.4147 6.30281 17.4163 6.22665 17.418C5.90533 17.4121 5.90533 17.4121 5.77281 17.2825C5.70562 17.1796 5.65563 17.0957 5.625 16.9766C5.71625 16.7176 5.98942 16.5339 6.19141 16.36C6.324 16.2425 6.45287 16.1212 6.58203 16C6.75245 15.8402 6.92363 15.6824 7.10083 15.53C7.22967 15.4157 7.35484 15.2975 7.48047 15.1797C7.6509 15.0199 7.82207 14.862 7.99927 14.7097C8.12811 14.5954 8.25327 14.4772 8.37891 14.3594C8.54933 14.1995 8.72051 14.0417 8.89771 13.8894C9.02655 13.7751 9.15171 13.6569 9.27734 13.5391C9.44925 13.3779 9.62177 13.2184 9.80042 13.0647C9.91916 12.9602 10.0352 12.8529 10.1514 12.7456C10.1737 12.725 10.1961 12.7043 10.2191 12.683C10.3035 12.6049 10.3874 12.5267 10.4688 12.4453Z" fill="#EC9111"/>
<path d="M19.2578 7.09375C19.2836 7.09375 19.3094 7.09375 19.3359 7.09375C19.3359 10.3293 19.3359 13.5648 19.3359 16.8984C19.179 16.82 19.0706 16.7269 18.9453 16.6079C18.8999 16.5654 18.8545 16.5229 18.8091 16.4803C18.7862 16.4588 18.7633 16.4373 18.7397 16.4151C18.6372 16.3191 18.5338 16.2242 18.4302 16.1294C18.4108 16.1116 18.3914 16.0938 18.3714 16.0755C18.2516 15.9658 18.1312 15.857 18.0103 15.7485C17.8362 15.5924 17.6644 15.4339 17.4928 15.2751C17.3659 15.1577 17.2382 15.0412 17.1094 14.9258C16.9361 14.7705 16.7651 14.6128 16.5944 14.4547C16.4674 14.3373 16.3397 14.2209 16.2109 14.1055C16.0376 13.9502 15.8667 13.7925 15.696 13.6344C15.569 13.517 15.4413 13.4006 15.3125 13.2852C15.1615 13.1498 15.0121 13.0128 14.8633 12.875C14.5619 12.5962 14.2585 12.3202 13.9453 12.0547C14.0667 11.7781 14.3333 11.5853 14.558 11.3918C14.6713 11.2924 14.782 11.1903 14.8926 11.0879C14.9252 11.0577 14.9252 11.0577 14.9585 11.0268C15.0028 10.9858 15.047 10.9448 15.0913 10.9038C15.2492 10.7578 15.408 10.6127 15.5667 10.4675C15.6261 10.4131 15.6854 10.3586 15.7448 10.304C15.9246 10.1389 16.1048 9.97406 16.2866 9.81104C16.4806 9.63695 16.6719 9.46018 16.8633 9.28323C17.1253 9.04089 17.3881 8.79934 17.6538 8.56104C17.8477 8.38695 18.0391 8.21018 18.2304 8.03323C18.5337 7.75281 18.8384 7.4741 19.146 7.19843C19.1839 7.16424 19.2217 7.12986 19.2578 7.09375Z" fill="#EC9111"/>
<path d="M4.68749 7.09375C4.88869 7.23502 5.06403 7.38723 5.23544 7.56326C5.30523 7.63333 5.37661 7.69835 5.45165 7.7627C5.61129 7.89989 5.7645 8.04348 5.91796 8.1875C6.13962 8.39583 6.13962 8.39583 6.36718 8.59766C6.54616 8.75163 6.717 8.91435 6.88923 9.07576C7.05916 9.23485 7.2308 9.39174 7.40432 9.54691C7.57377 9.69906 7.74118 9.85345 7.90889 10.0075C8.0069 10.0975 8.10501 10.1874 8.20312 10.2773C8.32127 10.3856 8.43941 10.4939 8.55743 10.6024C8.73724 10.7675 8.91734 10.9322 9.09911 11.0952C9.25353 11.2337 9.40601 11.3741 9.5581 11.5151C9.72831 11.6729 9.90013 11.8275 10.0781 11.9766C9.8687 12.2383 9.62391 12.4568 9.37499 12.6797C9.34176 12.7096 9.30852 12.7395 9.27428 12.7703C9.21094 12.8273 9.14757 12.8843 9.08416 12.9412C8.89351 13.1132 8.70468 13.2872 8.51562 13.4609C8.07512 13.8657 8.07512 13.8657 7.854 14.064C7.67996 14.2201 7.50816 14.3786 7.33658 14.5374C7.17872 14.6834 7.01925 14.8275 6.85912 14.9709C6.73988 15.0787 6.62183 15.1877 6.5039 15.2969C6.32374 15.4636 6.1424 15.6289 5.95931 15.7925C5.88347 15.861 5.80842 15.9302 5.73379 16C5.71247 16.0199 5.69114 16.0397 5.66918 16.0602C5.62739 16.0992 5.58575 16.1383 5.54426 16.1776C5.39934 16.3125 5.39934 16.3125 5.31249 16.3125C5.08928 15.5774 5.08928 15.5774 5.23437 15.2578C5.33684 15.1114 5.45722 14.9907 5.58593 14.8672C5.98959 14.4786 6.29802 14.1685 6.32812 13.5781C6.2955 13.1169 6.06511 12.7999 5.74218 12.4844C5.67688 12.4327 5.61011 12.3838 5.54256 12.3351C5.12607 12.0338 4.69873 11.6862 4.59008 11.1603C4.50283 10.5675 4.54124 9.96039 4.57105 9.36442C4.5821 9.11804 4.58649 8.87154 4.59159 8.62497C4.59992 8.2667 4.61062 7.90867 4.62664 7.55066C4.62822 7.51321 4.62979 7.47576 4.63142 7.43717C4.63305 7.40315 4.63469 7.36912 4.63637 7.33407C4.63776 7.30445 4.63914 7.27483 4.64057 7.24432C4.64843 7.17188 4.64843 7.17188 4.68749 7.09375Z" fill="#EC9111"/>
</svg>
