<svg width="24" height="23" viewBox="0 0 24 23" fill="none" xmlns="http://www.w3.org/2000/svg">
<g clip-path="url(#clip0_3799_9264)">
<path d="M9.0452 1.5199H2.15212C1.63879 1.5199 1.22266 1.93603 1.22266 2.44936V19.8717C1.22266 20.385 1.63879 20.8011 2.15212 20.8011H9.0452C9.55853 20.8011 9.97466 20.385 9.97466 19.8717V2.44936C9.97466 1.93603 9.55853 1.5199 9.0452 1.5199Z" stroke="#1E0202" stroke-width="2" stroke-miterlimit="10"/>
<path d="M21.8981 1.22327H14.32C13.8348 1.22327 13.4414 1.61662 13.4414 2.10184V8.5582C13.4414 9.04342 13.8348 9.43677 14.32 9.43677H21.8981C22.3833 9.43677 22.7767 9.04342 22.7767 8.5582V2.10184C22.7767 1.61662 22.3833 1.22327 21.8981 1.22327Z" stroke="#1E0202" stroke-width="2" stroke-miterlimit="10"/>
<path d="M21.8981 12.8738H14.32C13.8348 12.8738 13.4414 13.2671 13.4414 13.7524V20.2087C13.4414 20.6939 13.8348 21.0873 14.32 21.0873H21.8981C22.3833 21.0873 22.7767 20.6939 22.7767 20.2087V13.7524C22.7767 13.2671 22.3833 12.8738 21.8981 12.8738Z" stroke="#1E0202" stroke-width="2" stroke-miterlimit="10"/>
</g>
<defs>
<clipPath id="clip0_3799_9264">
<rect width="24" height="22.3106" fill="white"/>
</clipPath>
</defs>
</svg>
