<svg width="24" height="23" viewBox="0 0 24 23" fill="none" xmlns="http://www.w3.org/2000/svg">
<g clip-path="url(#clip0_3933_5296)">
<path d="M9.04568 1.51978H2.15261C1.63928 1.51978 1.22314 1.93591 1.22314 2.44924V19.8715C1.22314 20.3849 1.63928 20.801 2.15261 20.801H9.04568C9.55901 20.801 9.97515 20.3849 9.97515 19.8715V2.44924C9.97515 1.93591 9.55901 1.51978 9.04568 1.51978Z" stroke="#1E0202" stroke-width="2" stroke-miterlimit="10"/>
<path d="M21.8982 1.22339H14.3201C13.8349 1.22339 13.4415 1.61674 13.4415 2.10197V8.55832C13.4415 9.04354 13.8349 9.43689 14.3201 9.43689H21.8982C22.3835 9.43689 22.7768 9.04354 22.7768 8.55832V2.10197C22.7768 1.61674 22.3835 1.22339 21.8982 1.22339Z" stroke="#1E0202" stroke-width="2" stroke-miterlimit="10"/>
<path d="M21.8982 12.8738H14.3201C13.8349 12.8738 13.4415 13.2671 13.4415 13.7524V20.2087C13.4415 20.6939 13.8349 21.0873 14.3201 21.0873H21.8982C22.3835 21.0873 22.7768 20.6939 22.7768 20.2087V13.7524C22.7768 13.2671 22.3835 12.8738 21.8982 12.8738Z" stroke="#1E0202" stroke-width="2" stroke-miterlimit="10"/>
</g>
<defs>
<clipPath id="clip0_3933_5296">
<rect width="24" height="22.3106" fill="white"/>
</clipPath>
</defs>
</svg>
