<svg width="23" height="23" viewBox="0 0 23 23" fill="none" xmlns="http://www.w3.org/2000/svg">
<g clip-path="url(#clip0_21_25605)">
<path d="M21.549 11.3772C21.4091 11.3772 21.2868 11.3248 21.1819 11.22L11.9019 1.88747C11.797 1.78261 11.6572 1.7127 11.4999 1.7127C11.3601 1.7127 11.2203 1.76513 11.098 1.88747L1.81791 11.185C1.71305 11.2899 1.59072 11.3423 1.4509 11.3423C1.31109 11.3423 1.18875 11.2899 1.10137 11.2025C0.996512 11.1151 0.944083 11.0102 0.944083 10.8704C0.926606 10.7131 0.996512 10.5558 1.10137 10.451L10.329 1.15345C10.6436 0.838874 11.0455 0.664108 11.4825 0.664108C11.9194 0.664108 12.3213 0.838874 12.6359 1.15345L21.916 10.4859C22.0208 10.5908 22.0732 10.7306 22.0732 10.8879C22.0732 11.0452 21.9859 11.185 21.881 11.2724C21.7761 11.3423 21.6538 11.3772 21.549 11.3772Z" fill="black"/>
<path d="M14.2438 21.8108V21.0767H13.5098V19.7485C13.5098 18.63 12.601 17.7387 11.5 17.7387C10.3815 17.7387 9.49015 18.6475 9.49015 19.7485V21.0767H8.75614V21.8108H4.61419C3.72289 21.8108 3.00635 21.0942 3.00635 20.2029V11.1326C3.00635 10.8355 3.23354 10.6083 3.53064 10.6083C3.82775 10.6083 4.05494 10.8355 4.05494 11.1326V20.2029C4.05494 20.5175 4.29961 20.7622 4.61419 20.7622H8.44156V19.766C8.44156 18.0708 9.82221 16.7076 11.5 16.7076C13.1777 16.7076 14.5584 18.0882 14.5584 19.766V20.7622H18.3857C18.7003 20.7622 18.945 20.5175 18.945 20.2029V11.1326C18.945 10.8355 19.1722 10.6083 19.4693 10.6083C19.7664 10.6083 19.9936 10.8355 19.9936 11.1326V20.2029C19.9936 21.0942 19.277 21.8108 18.3857 21.8108H14.2438Z" fill="black"/>
<path d="M13.5096 21.8108V20.7622H14.5582V21.8108H13.5096ZM8.44141 21.8108V20.7622H9.49V21.8108H8.44141Z" fill="black"/>
</g>
<defs>
<clipPath id="clip0_21_25605">
<rect width="22.37" height="22.37" fill="white" transform="translate(0.314941)"/>
</clipPath>
</defs>
</svg>
