<svg width="20" height="18" viewBox="0 0 20 18" fill="none" xmlns="http://www.w3.org/2000/svg">
<path fill-rule="evenodd" clip-rule="evenodd" d="M1.2 1.45V14.05H18.8V1.45H1.2ZM0 1.25C0 0.984784 0.105357 0.73043 0.292893 0.542893C0.48043 0.355357 0.734784 0.25 1 0.25H19C19.2652 0.25 19.5196 0.355357 19.7071 0.542893C19.8946 0.73043 20 0.984784 20 1.25V14.25C20 14.5152 19.8946 14.7696 19.7071 14.9571C19.5196 15.1446 19.2652 15.25 19 15.25H1C0.734784 15.25 0.48043 15.1446 0.292893 14.9571C0.105357 14.7696 0 14.5152 0 14.25V1.25ZM6 17.15C6 16.819 6.266 16.55 6.601 16.55H13.4C13.732 16.55 14.001 16.828 14.001 17.15V17.75H6V17.15Z" fill="black"/>
</svg>
