<svg width="20" height="20" viewBox="0 0 20 20" fill="none" xmlns="http://www.w3.org/2000/svg">
<path d="M16.5836 10.55C16.45 10.3979 16.3763 10.2024 16.3763 9.99999C16.3763 9.79757 16.45 9.60207 16.5836 9.44999L17.6502 8.24999C17.7678 8.11888 17.8408 7.95391 17.8587 7.77875C17.8767 7.60359 17.8387 7.42723 17.7502 7.27499L16.0836 4.39166C15.996 4.23959 15.8626 4.11906 15.7025 4.04723C15.5424 3.97541 15.3637 3.95596 15.1919 3.99166L13.6252 4.30833C13.4259 4.34952 13.2184 4.31632 13.0418 4.21499C12.8653 4.11367 12.7319 3.95123 12.6669 3.75833L12.1586 2.23333C12.1027 2.06781 11.9962 1.92405 11.8541 1.82236C11.712 1.72068 11.5416 1.66621 11.3669 1.66666H8.03357C7.85185 1.65718 7.67202 1.70743 7.52154 1.80976C7.37107 1.91208 7.25822 2.06084 7.20024 2.23333L6.73357 3.75833C6.66857 3.95123 6.53522 4.11367 6.35867 4.21499C6.18212 4.31632 5.97459 4.34952 5.77524 4.30833L4.16691 3.99166C4.00403 3.96864 3.83799 3.99435 3.6897 4.06553C3.5414 4.13671 3.41749 4.25018 3.33357 4.39166L1.66691 7.27499C1.57621 7.42553 1.53542 7.6009 1.55039 7.77601C1.56536 7.95113 1.63531 8.11703 1.75024 8.24999L2.80857 9.44999C2.94217 9.60207 3.01585 9.79757 3.01585 9.99999C3.01585 10.2024 2.94217 10.3979 2.80857 10.55L1.75024 11.75C1.63531 11.883 1.56536 12.0489 1.55039 12.224C1.53542 12.3991 1.57621 12.5745 1.66691 12.725L3.33357 15.6083C3.42115 15.7604 3.5545 15.8809 3.71462 15.9528C3.87473 16.0246 4.05343 16.044 4.22524 16.0083L5.79191 15.6917C5.99125 15.6505 6.19878 15.6837 6.37533 15.785C6.55188 15.8863 6.68524 16.0488 6.75024 16.2417L7.25857 17.7667C7.31656 17.9391 7.4294 18.0879 7.57988 18.1902C7.73035 18.2926 7.91018 18.3428 8.09191 18.3333H11.4252C11.5999 18.3338 11.7704 18.2793 11.9124 18.1776C12.0545 18.0759 12.161 17.9322 12.2169 17.7667L12.7252 16.2417C12.7902 16.0488 12.9236 15.8863 13.1001 15.785C13.2767 15.6837 13.4842 15.6505 13.6836 15.6917L15.2502 16.0083C15.4221 16.044 15.6008 16.0246 15.7609 15.9528C15.921 15.8809 16.0543 15.7604 16.1419 15.6083L17.8086 12.725C17.8971 12.5728 17.935 12.3964 17.9171 12.2212C17.8991 12.0461 17.8261 11.8811 17.7086 11.75L16.5836 10.55ZM15.3419 11.6667L16.0086 12.4167L14.9419 14.2667L13.9586 14.0667C13.3584 13.944 12.734 14.0459 12.2041 14.3532C11.6741 14.6604 11.2754 15.1515 11.0836 15.7333L10.7669 16.6667H8.63357L8.33357 15.7167C8.14178 15.1349 7.74306 14.6437 7.21308 14.3365C6.6831 14.0293 6.05876 13.9273 5.45857 14.05L4.47524 14.25L3.39191 12.4083L4.05857 11.6583C4.46853 11.2 4.69518 10.6066 4.69518 9.99166C4.69518 9.37672 4.46853 8.78335 4.05857 8.32499L3.39191 7.57499L4.45857 5.74166L5.44191 5.94166C6.04209 6.06435 6.66643 5.96239 7.19641 5.65516C7.72639 5.34792 8.12512 4.85679 8.31691 4.27499L8.63357 3.33333H10.7669L11.0836 4.28333C11.2754 4.86513 11.6741 5.35626 12.2041 5.66349C12.734 5.97073 13.3584 6.07268 13.9586 5.94999L14.9419 5.74999L16.0086 7.59999L15.3419 8.34999C14.9365 8.80729 14.7127 9.39723 14.7127 10.0083C14.7127 10.6194 14.9365 11.2094 15.3419 11.6667ZM9.70024 6.66666C9.04097 6.66666 8.3965 6.86216 7.84834 7.22843C7.30017 7.5947 6.87293 8.11529 6.62064 8.72438C6.36835 9.33347 6.30234 10.0037 6.43095 10.6503C6.55957 11.2969 6.87704 11.8908 7.34322 12.357C7.80939 12.8232 8.40333 13.1407 9.04994 13.2693C9.69654 13.3979 10.3668 13.3319 10.9759 13.0796C11.5849 12.8273 12.1055 12.4001 12.4718 11.8519C12.8381 11.3037 13.0336 10.6593 13.0336 9.99999C13.0336 9.11594 12.6824 8.26809 12.0573 7.64297C11.4321 7.01785 10.5843 6.66666 9.70024 6.66666ZM9.70024 11.6667C9.3706 11.6667 9.04837 11.5689 8.77429 11.3858C8.50021 11.2026 8.28659 10.9423 8.16044 10.6378C8.03429 10.3333 8.00129 9.99814 8.0656 9.67484C8.12991 9.35154 8.28864 9.05457 8.52173 8.82148C8.75481 8.58839 9.05179 8.42966 9.37509 8.36535C9.69839 8.30104 10.0335 8.33405 10.338 8.46019C10.6426 8.58634 10.9029 8.79996 11.086 9.07404C11.2692 9.34812 11.3669 9.67036 11.3669 9.99999C11.3669 10.442 11.1913 10.8659 10.8787 11.1785C10.5662 11.4911 10.1423 11.6667 9.70024 11.6667Z" fill="black"/>
</svg>
