<svg width="32" height="32" viewBox="0 0 32 32" fill="none" xmlns="http://www.w3.org/2000/svg">
<path d="M4.39355 5C3.62392 5 3 5.77366 3 6.728C3 7.68234 3.62392 8.456 4.39355 8.456V5ZM30.4065 8.456C31.1761 8.456 31.8 7.68234 31.8 6.728C31.8 5.77366 31.1761 5 30.4065 5V8.456ZM4.39355 14.216C3.62392 14.216 3 14.9897 3 15.944C3 16.8983 3.62392 17.672 4.39355 17.672V14.216ZM26.6903 17.672C27.4599 17.672 28.0839 16.8983 28.0839 15.944C28.0839 14.9897 27.4599 14.216 26.6903 14.216V17.672ZM4.39355 23.432C3.62392 23.432 3 24.2057 3 25.16C3 26.1143 3.62392 26.888 4.39355 26.888V23.432ZM17.4 26.888C18.1696 26.888 18.7936 26.1143 18.7936 25.16C18.7936 24.2057 18.1696 23.432 17.4 23.432V26.888ZM4.39355 8.456H30.4065V5H4.39355V8.456ZM4.39355 17.672H26.6903V14.216H4.39355V17.672ZM4.39355 26.888H17.4V23.432H4.39355V26.888Z" fill="url(#paint0_linear_9_7537)"/>
<defs>
<linearGradient id="paint0_linear_9_7537" x1="17.4" y1="5" x2="17.4" y2="26.888" gradientUnits="userSpaceOnUse">
<stop stop-color="#FF4704"/>
<stop offset="1" stop-color="#FE9F1E"/>
</linearGradient>
</defs>
</svg>
