<svg width="20" height="20" viewBox="0 0 20 20" fill="none" xmlns="http://www.w3.org/2000/svg">
<path fill-rule="evenodd" clip-rule="evenodd" d="M16.9026 5.47227C17.0541 5.69961 17.0289 6.00856 16.8268 6.2087L9.57744 13.3874C9.50313 13.461 9.41036 13.5137 9.30869 13.54L6.2895 14.3209C6.19103 14.3464 6.08953 14.3459 5.99416 14.3218C5.89277 14.2963 5.79831 14.2441 5.7218 14.1684C5.57333 14.0213 5.5147 13.8074 5.56777 13.6062L6.35639 10.6164C6.37963 10.5283 6.42323 10.4413 6.48355 10.373L13.7597 3.17155C13.8234 3.10848 13.9002 3.06127 13.9837 3.03251C14.0456 3.01119 14.1112 3 14.178 3C14.3348 3 14.4853 3.06171 14.5962 3.17155L16.8268 5.38039C16.8556 5.40898 16.8809 5.43979 16.9026 5.47227ZM15.5721 5.79455L14.178 4.41402L7.46036 11.0662L6.96748 12.9348L8.85447 12.4467L15.5721 5.79455Z" fill="#241601"/>
<path d="M15.4724 14.6441C15.688 12.8186 15.7566 10.9803 15.6782 9.14664C15.6744 9.05884 15.7078 8.97342 15.7705 8.91128L16.546 8.14336C16.6413 8.04894 16.8043 8.10888 16.8132 8.24211C16.959 10.4207 16.9037 12.6091 16.6473 14.7802C16.4608 16.3597 15.1798 17.5975 13.593 17.7731C10.8592 18.0756 8.0333 18.0756 5.29948 17.7731C3.71272 17.5975 2.43174 16.3597 2.24519 14.7802C1.91827 12.0123 1.91827 9.21609 2.24519 6.4482C2.43174 4.86872 3.71272 3.63091 5.29948 3.4553C7.37336 3.22577 9.50023 3.17036 11.5997 3.28907C11.735 3.29673 11.7967 3.45886 11.7009 3.55376L10.9181 4.32889C10.856 4.39035 10.7709 4.42335 10.6832 4.42042C8.92741 4.36178 7.15967 4.42813 5.43087 4.61946C4.38192 4.73556 3.54165 5.55525 3.42011 6.58428C3.10387 9.26176 3.10388 11.9666 3.42011 14.6441C3.54165 15.6731 4.38192 16.4928 5.43087 16.6089C8.07737 16.9018 10.8151 16.9018 13.4616 16.6089C14.5106 16.4928 15.3508 15.6731 15.4724 14.6441Z" fill="#241601"/>
</svg>
