<svg width="16" height="16" viewBox="0 0 16 16" fill="none" xmlns="http://www.w3.org/2000/svg">
<g clip-path="url(#clip0_1754_19562)">
<path d="M10.0015 7.95508C10.0587 8.01954 10.1127 8.08685 10.1654 8.15508C10.3724 8.41449 10.5952 8.65537 10.824 8.8957C10.99 9.07042 11.1514 9.24812 11.3094 9.43018C11.3963 9.53029 11.4848 9.6289 11.5737 9.7273C11.6077 9.765 11.6416 9.8027 11.6766 9.84154C11.7426 9.91455 11.8087 9.98747 11.8749 10.0603C12.0662 10.2713 12.2531 10.4853 12.4376 10.7023C12.6401 10.9403 12.8484 11.1719 13.0614 11.4006C13.2025 11.5522 13.3403 11.706 13.4756 11.8627C13.5597 11.9581 13.6458 12.0515 13.7323 12.1448C13.9139 12.3407 14.0894 12.5385 14.257 12.7467C14.3905 12.9125 14.5282 13.0651 14.6812 13.2127C14.818 13.3493 14.9426 13.497 15.0681 13.644C14.877 13.8657 14.6405 13.9529 14.357 13.9995C14.2823 14.0035 14.2075 14.0053 14.1327 14.0055C14.0883 14.0057 14.0439 14.0059 13.9981 14.0061C13.9497 14.0061 13.9012 14.0061 13.8513 14.0061C13.7996 14.0062 13.7479 14.0064 13.6946 14.0066C13.5512 14.007 13.4078 14.0072 13.2644 14.0073C13.1097 14.0075 12.955 14.0079 12.8002 14.0083C12.4266 14.0092 12.053 14.0096 11.6794 14.01C11.5034 14.0102 11.3273 14.0104 11.1512 14.0107C10.5656 14.0114 9.98002 14.0121 9.39444 14.0124C9.24255 14.0125 9.09067 14.0126 8.93879 14.0126C8.90104 14.0127 8.86329 14.0127 8.8244 14.0127C8.21318 14.0131 7.60197 14.0142 6.99075 14.0156C6.36276 14.0171 5.73476 14.0179 5.10677 14.0181C4.75436 14.0182 4.40196 14.0185 4.04956 14.0197C3.74938 14.0206 3.4492 14.021 3.14902 14.0206C2.99602 14.0204 2.84303 14.0204 2.69003 14.0213C2.52371 14.0221 2.35743 14.0218 2.19112 14.0212C2.11949 14.0219 2.11949 14.0219 2.04641 14.0227C1.66516 14.0195 1.30061 13.9471 0.979248 13.7329C0.998426 13.5344 1.1366 13.419 1.26814 13.2829C1.31694 13.2312 1.36573 13.1795 1.41449 13.1278C1.45079 13.0896 1.45079 13.0896 1.48782 13.0506C1.7008 12.825 1.90609 12.5919 2.1098 12.3579C2.27216 12.1714 2.43903 11.9891 2.60564 11.8065C2.6942 11.7087 2.78162 11.6102 2.86814 11.5106C3.0295 11.3249 3.19557 11.1436 3.36137 10.9618C3.449 10.8651 3.53541 10.7676 3.62091 10.669C3.75253 10.5174 3.88776 10.3694 4.02369 10.2217C4.18568 10.0458 4.34559 9.86835 4.50216 9.68754C4.59137 9.58569 4.68254 9.48575 4.77369 9.38563C4.91598 9.22834 5.05176 9.06748 5.1848 8.9023C5.32021 8.73492 5.45968 8.58014 5.61449 8.43077C5.75138 8.29419 5.87591 8.14646 6.00147 7.99952C6.24114 8.01388 6.35641 8.1507 6.51814 8.31063C6.57341 8.3637 6.62879 8.41665 6.68428 8.46949C6.71159 8.49552 6.7389 8.52155 6.76703 8.54837C6.91213 8.68334 7.06698 8.80581 7.22161 8.92956C7.37093 9.05117 7.51351 9.17955 7.65581 9.30924C7.78851 9.42357 7.90264 9.44525 8.07838 9.4424C8.28478 9.40013 8.427 9.24842 8.57925 9.11063C8.61454 9.07907 8.64983 9.0475 8.68619 9.01497C8.76033 8.94822 8.83423 8.8812 8.90789 8.81393C9.06529 8.67353 9.22902 8.54166 9.39314 8.40924C9.54469 8.28412 9.68953 8.15243 9.83359 8.01879C9.91258 7.95508 9.91258 7.95508 10.0015 7.95508Z" fill="#FE9F1E"/>
<path d="M2.14101 1.97764C2.2193 1.97727 2.2193 1.97727 2.29917 1.97689C2.44265 1.9764 2.5861 1.97669 2.72958 1.97733C2.88485 1.97782 3.04012 1.97729 3.19539 1.97689C3.499 1.97627 3.8026 1.9766 4.10621 1.97727C4.46016 1.97803 4.8141 1.97788 5.16805 1.97771C5.79976 1.97745 6.43147 1.97808 7.06319 1.97918C7.67549 1.98024 8.28778 1.98056 8.90008 1.98009C9.56769 1.97958 10.2353 1.9795 10.9029 1.98014C10.9742 1.98021 11.0454 1.98027 11.1167 1.98034C11.1517 1.98038 11.1868 1.98041 11.2229 1.98044C11.4693 1.98065 11.7158 1.98057 11.9622 1.98038C12.2627 1.98016 12.5632 1.98043 12.8636 1.98131C13.0168 1.98175 13.17 1.98198 13.3231 1.98163C13.4895 1.98136 13.6558 1.98192 13.8221 1.98268C13.8701 1.98242 13.9181 1.98215 13.9676 1.98187C14.316 1.98478 14.6394 2.02552 14.9343 2.22214C14.8678 2.38201 14.7775 2.4724 14.6482 2.58603C14.6082 2.62115 14.5683 2.65627 14.5272 2.69245C14.4068 2.79491 14.285 2.895 14.1621 2.99436C13.9333 3.17945 13.7172 3.37561 13.5015 3.57544C13.2982 3.76317 13.0891 3.94366 12.8787 4.12335C12.825 4.16924 12.7713 4.21513 12.7176 4.26103C12.6906 4.28413 12.6635 4.30723 12.6356 4.33103C12.4784 4.46566 12.3234 4.60221 12.1704 4.74158C12.0241 4.87454 11.8745 5.00104 11.7204 5.12491C11.5064 5.29783 11.3054 5.48125 11.1048 5.66915C10.9186 5.84257 10.7244 6.00316 10.526 6.16241C10.3832 6.28134 10.2476 6.4063 10.1121 6.53325C9.90146 6.73051 9.68446 6.91509 9.45929 7.09575C9.291 7.23599 9.13212 7.38531 8.97232 7.53507C8.77899 7.7152 8.57863 7.88278 8.37162 8.04714C8.2649 8.13065 8.2649 8.13065 8.17891 8.23603C8.08985 8.31103 8.08985 8.31103 7.98186 8.31241C7.83665 8.25415 7.75229 8.17533 7.63985 8.06658C7.59666 8.02562 7.55337 7.98477 7.50999 7.94401C7.4772 7.91314 7.4772 7.91314 7.44376 7.88164C7.34615 7.79231 7.24323 7.71021 7.13985 7.62769C6.92357 7.45349 6.72107 7.26792 6.51892 7.07782C6.38411 6.95204 6.24791 6.83589 6.09818 6.72769C6.05143 6.69286 6.00468 6.65803 5.95652 6.62214C5.95652 6.5928 5.95652 6.56347 5.95652 6.53325C5.93228 6.52322 5.90805 6.5132 5.88308 6.50287C5.74771 6.42696 5.64304 6.32567 5.53152 6.21936C5.36026 6.059 5.18702 5.90498 5.00374 5.75825C4.79131 5.58739 4.59237 5.40565 4.39358 5.21945C4.24579 5.0818 4.09487 4.9512 3.93707 4.82491C3.74263 4.66896 3.56006 4.50398 3.37874 4.33325C3.15857 4.12597 2.93288 3.93062 2.69679 3.74141C2.52673 3.6016 2.36543 3.45287 2.20339 3.30391C2.07897 3.18995 1.95231 3.07893 1.82492 2.96832C1.68044 2.84156 1.53846 2.71205 1.39627 2.58273C1.28941 2.48842 1.17962 2.39915 1.06763 2.31103C1.11207 2.17769 1.11207 2.17769 1.20437 2.12657C1.52387 2.00869 1.80197 1.97462 2.14101 1.97764Z" fill="#FE9F1E"/>
<path d="M15.6937 2.98237C15.811 3.03576 15.8291 3.08993 15.8775 3.20789C15.8919 3.24152 15.9063 3.27515 15.9211 3.3098C16.0009 3.55145 16.0091 3.79153 16.0091 4.04396C16.0092 4.07899 16.0094 4.11402 16.0095 4.15011C16.01 4.26709 16.0102 4.38407 16.0104 4.50105C16.0107 4.58509 16.011 4.66914 16.0113 4.75319C16.0122 5.02889 16.0127 5.30459 16.0131 5.58029C16.0133 5.6754 16.0135 5.77051 16.0137 5.86562C16.0145 6.31258 16.0151 6.75955 16.0155 7.20651C16.0159 7.7215 16.0171 8.23649 16.0189 8.75148C16.0202 9.15015 16.0209 9.54882 16.021 9.94749C16.0212 10.1853 16.0215 10.4231 16.0227 10.6609C16.0237 10.8849 16.0239 11.1088 16.0234 11.3328C16.0234 11.4146 16.0237 11.4964 16.0243 11.5782C16.0276 12.0495 16.0004 12.4446 15.8247 12.8884C15.647 12.8884 15.647 12.8884 15.5746 12.8329C15.5514 12.8072 15.5283 12.7816 15.5044 12.7551C15.4785 12.7268 15.4526 12.6986 15.4259 12.6695C15.3989 12.6391 15.372 12.6087 15.3442 12.5773C15.3163 12.5466 15.2884 12.516 15.2597 12.4843C15.1808 12.3973 15.1027 12.3097 15.0247 12.2218C14.9765 12.1676 14.9765 12.1676 14.9273 12.1124C14.8794 12.0579 14.8318 12.0032 14.7846 11.9482C14.7294 11.8844 14.673 11.8216 14.6162 11.7593C14.5833 11.7231 14.5503 11.6869 14.5164 11.6496C14.4862 11.6167 14.456 11.5838 14.4249 11.5499C14.3581 11.4662 14.3581 11.4662 14.3581 11.3773C14.3141 11.3627 14.2701 11.348 14.2247 11.3329C14.16 11.2602 14.0983 11.1847 14.0386 11.1079C13.9144 10.952 13.7905 10.8046 13.647 10.6662C13.47 10.4949 13.3192 10.307 13.1652 10.1152C13.0612 9.98998 12.9506 9.87693 12.8339 9.76379C12.6972 9.62804 12.5632 9.48664 12.447 9.33289C12.447 9.30356 12.447 9.27423 12.447 9.244C12.4176 9.244 12.3883 9.244 12.3581 9.244C12.2954 9.18185 12.2954 9.18185 12.222 9.094C12.1007 8.95141 11.978 8.81068 11.8525 8.67178C11.8188 8.63443 11.7851 8.59707 11.7504 8.55859C11.7163 8.52077 11.6821 8.48296 11.647 8.444C11.1932 7.94157 11.1932 7.94157 11.006 7.72456C10.9601 7.6719 10.9134 7.62 10.8657 7.569C10.8025 7.49956 10.8025 7.49956 10.7136 7.37734C10.7315 7.1997 10.8244 7.12864 10.9584 7.01689C10.9858 6.99467 11.0132 6.97245 11.0414 6.94956C11.0986 6.902 11.1557 6.85437 11.2128 6.80668C11.2412 6.78302 11.2696 6.75937 11.2989 6.735C11.4133 6.63829 11.5231 6.53738 11.6331 6.43567C11.7875 6.2939 11.9447 6.15865 12.1081 6.02734C12.3498 5.83229 12.5762 5.62336 12.8032 5.41171C13.0084 5.2204 13.2206 5.03764 13.4341 4.85564C13.4875 4.8101 13.5408 4.76456 13.5942 4.719C13.6211 4.69601 13.6481 4.67302 13.6758 4.64933C13.8421 4.50689 14.0052 4.36169 14.1664 4.21345C14.3208 4.07168 14.478 3.93643 14.6414 3.80511C14.8624 3.6271 15.0705 3.43789 15.2769 3.24333C15.5624 2.97512 15.5624 2.97512 15.6937 2.98237Z" fill="#FE9F1E"/>
<path d="M0.265007 2.93359C0.444198 3.00815 0.579198 3.13218 0.72334 3.25859C0.750368 3.28204 0.777395 3.30549 0.805241 3.32965C0.862619 3.37946 0.919931 3.42934 0.977182 3.4793C1.06403 3.55497 1.15118 3.63027 1.23844 3.70547C1.5215 3.94958 1.80247 4.19558 2.07959 4.44644C2.50425 4.82985 2.94101 5.20032 3.37403 5.57422C3.65603 5.81787 3.93642 6.06284 4.21275 6.31293C4.5646 6.63067 4.92699 6.93658 5.28723 7.24471C5.24966 7.43616 5.14706 7.54094 5.01501 7.67804C4.97048 7.72541 4.92597 7.7728 4.8815 7.82023C4.85972 7.84328 4.83794 7.86633 4.81551 7.89008C4.73303 7.97808 4.65288 8.06795 4.57334 8.15859C4.54991 8.18523 4.52648 8.21187 4.50233 8.23932C4.43441 8.319 4.43441 8.319 4.3539 8.44471C4.32456 8.44471 4.29523 8.44471 4.26501 8.44471C4.24684 8.48435 4.24684 8.48435 4.2283 8.5248C4.17754 8.61982 4.12621 8.68542 4.05233 8.76311C4.02876 8.7882 4.00518 8.8133 3.98089 8.83915C3.9564 8.86482 3.93191 8.89048 3.90667 8.91693C3.7332 9.08885 3.7332 9.08885 3.59834 9.28915C3.56901 9.28915 3.53967 9.28915 3.50945 9.28915C3.49988 9.31287 3.49032 9.33659 3.48046 9.36102C3.39846 9.50601 3.28733 9.61922 3.17334 9.73915C3.12465 9.79116 3.07598 9.84318 3.02733 9.89523C3.00338 9.92074 2.97942 9.94626 2.95474 9.97255C2.68158 10.2645 2.42057 10.5664 2.16174 10.871C1.97583 11.0885 1.78327 11.2993 1.587 11.5075C1.4676 11.6326 1.4676 11.6326 1.37612 11.778C1.34678 11.778 1.31745 11.778 1.28723 11.778C1.27512 11.8045 1.263 11.8309 1.25052 11.8581C1.19976 11.9532 1.14843 12.0188 1.07456 12.0964C1.05098 12.1215 1.0274 12.1466 1.00311 12.1725C0.978622 12.1981 0.95413 12.2238 0.928896 12.2503C0.75542 12.4222 0.75542 12.4222 0.620563 12.6225C0.591229 12.6225 0.561896 12.6225 0.531674 12.6225C0.519757 12.6491 0.50784 12.6756 0.495563 12.703C0.443454 12.799 0.389732 12.8606 0.309451 12.9336C0.176118 12.8891 0.176118 12.8891 0.125017 12.7882C-0.0194567 12.3428 -0.0269184 11.9278 -0.0246632 11.4635C-0.0249045 11.3794 -0.0252213 11.2953 -0.0256072 11.2112C-0.0264126 10.9844 -0.0261055 10.7576 -0.0255398 10.5307C-0.0250871 10.2924 -0.0255078 10.0541 -0.0257862 9.81584C-0.0261089 9.4158 -0.0256854 9.01576 -0.0248368 8.61571C-0.0238694 8.15438 -0.0241829 7.69307 -0.0251615 7.23174C-0.0259704 6.83439 -0.026081 6.43703 -0.0256168 6.03968C-0.0253408 5.80291 -0.0252994 5.56615 -0.02589 5.32938C-0.0264067 5.10669 -0.0260416 4.88403 -0.0250199 4.66135C-0.0247865 4.58003 -0.0248494 4.49871 -0.0252444 4.4174C-0.0276076 3.881 0.00969997 3.41902 0.265007 2.93359Z" fill="#FE9F1E"/>
</g>
<defs>
<clipPath id="clip0_1754_19562">
<rect width="16" height="16" fill="white"/>
</clipPath>
</defs>
</svg>
