<svg width="25" height="24" viewBox="0 0 25 24" fill="none" xmlns="http://www.w3.org/2000/svg">
<path d="M13.1562 0.468754C13.4748 0.704137 13.6958 0.985698 13.9092 1.31543C13.97 1.40696 14.0308 1.49845 14.0917 1.58991C14.1383 1.66028 14.1383 1.66028 14.1858 1.73207C14.3431 1.96763 14.5056 2.19954 14.668 2.43164C14.8981 2.76154 15.1274 3.09193 15.3544 3.42398C15.4763 3.60177 15.5997 3.77829 15.7243 3.95417C15.7546 3.99709 15.785 4.04001 15.8162 4.08423C15.876 4.1687 15.9359 4.25305 15.9961 4.33726C16.0365 4.39443 16.0365 4.39443 16.0777 4.45276C16.1019 4.48677 16.1261 4.52079 16.1511 4.55583C16.2031 4.64063 16.2031 4.64063 16.2031 4.73438C16.2548 4.73254 16.2548 4.73254 16.3076 4.73066C16.4661 4.72574 16.6246 4.72272 16.7832 4.71973C16.8645 4.71678 16.8645 4.71678 16.9474 4.71378C17.3515 4.70807 17.6735 4.77233 17.9801 5.04972C18.2845 5.36553 18.3376 5.73421 18.333 6.15528C18.3328 6.19856 18.3326 6.24184 18.3324 6.28644C18.3257 6.60887 18.2757 6.88316 18.125 7.17188C18.1095 7.20282 18.0941 7.23375 18.0781 7.26563C18.1308 7.26968 18.1834 7.27373 18.2376 7.2779C18.7042 7.31937 19.1023 7.36453 19.4316 7.73145C19.7562 8.19918 19.7829 8.70053 19.6922 9.25653C19.6359 9.49433 19.5706 9.68412 19.4375 9.89063C19.4901 9.89184 19.5428 9.89305 19.597 9.89429C20.0952 9.91103 20.5149 9.94755 20.8906 10.3125C21.1452 10.6471 21.1902 10.9441 21.1895 11.3525C21.1894 11.3964 21.1893 11.4402 21.1892 11.4854C21.179 12.0631 20.9821 12.5029 20.5649 12.9058C20.2679 13.1485 20.0062 13.218 19.625 13.2656C19.625 15.5859 19.625 17.9063 19.625 20.2969C19.7952 20.2969 19.9653 20.2969 20.1406 20.2969C20.7312 20.4047 21.1511 20.7047 21.5 21.1875C21.6579 21.4933 21.741 21.7946 21.739 22.1391C21.7388 22.1849 21.7387 22.2306 21.7385 22.2778C21.7381 22.325 21.7377 22.3722 21.7373 22.4209C21.7371 22.469 21.7369 22.5172 21.7367 22.5667C21.7361 22.6851 21.7353 22.8035 21.7344 22.9219C21.7843 22.9207 21.8342 22.9194 21.8856 22.9182C22.0712 22.9139 22.2568 22.9112 22.4425 22.909C22.5227 22.9078 22.603 22.9062 22.6832 22.9042C22.7988 22.9013 22.9143 22.9 23.0298 22.899C23.0655 22.8978 23.1013 22.8966 23.138 22.8953C23.3268 22.8952 23.4115 22.9137 23.5617 23.0317C23.6562 23.1563 23.6562 23.1563 23.6855 23.2969C23.6456 23.4887 23.5743 23.5505 23.4219 23.6719C23.2892 23.6949 23.1849 23.7035 23.0525 23.7014C22.9969 23.7019 22.9969 23.7019 22.9402 23.7024C22.8154 23.7033 22.6907 23.7024 22.566 23.7016C22.4759 23.7019 22.3857 23.7023 22.2956 23.7027C22.0475 23.7037 21.7994 23.7032 21.5514 23.7025C21.284 23.702 21.0166 23.7028 20.7492 23.7035C20.2253 23.7045 19.7013 23.7043 19.1773 23.7036C18.7516 23.7031 18.3259 23.703 17.9002 23.7032C17.8396 23.7033 17.7791 23.7033 17.7168 23.7034C17.5938 23.7034 17.4709 23.7035 17.3479 23.7036C16.2272 23.7042 15.1065 23.7036 13.9858 23.7023C12.9624 23.7012 11.939 23.7013 10.9156 23.7024C9.76617 23.7037 8.61675 23.7042 7.46733 23.7035C7.34483 23.7034 7.22234 23.7033 7.09984 23.7032C7.03956 23.7032 6.97928 23.7032 6.91718 23.7031C6.49182 23.7029 6.06647 23.7033 5.64112 23.7038C5.12295 23.7045 4.6048 23.7043 4.08663 23.7031C3.82211 23.7024 3.5576 23.7022 3.29308 23.703C3.05112 23.7037 2.80919 23.7033 2.56724 23.702C2.47952 23.7018 2.3918 23.7019 2.30408 23.7025C2.18517 23.7032 2.06635 23.7025 1.94745 23.7014C1.91309 23.7019 1.87873 23.7025 1.84332 23.703C1.66146 23.6997 1.58379 23.6764 1.43969 23.5616C1.34375 23.4375 1.34375 23.4375 1.31445 23.2969C1.35457 23.1043 1.42409 23.0428 1.57812 22.9219C1.71837 22.9013 1.83079 22.8943 1.97015 22.899C2.00728 22.8993 2.0444 22.8997 2.08265 22.9C2.20065 22.9013 2.31855 22.9042 2.43652 22.9072C2.51675 22.9084 2.59698 22.9095 2.67722 22.9104C2.87339 22.913 3.06949 22.9171 3.26562 22.9219C3.26464 22.8938 3.26366 22.8658 3.26265 22.8369C3.22215 21.5023 3.22215 21.5023 3.65216 20.9925C4.01697 20.6098 4.33727 20.4013 4.85938 20.2969C5.02953 20.2969 5.19969 20.2969 5.375 20.2969C5.375 17.9766 5.375 15.6563 5.375 13.2656C5.25125 13.2502 5.1275 13.2347 5 13.2188C4.58872 13.0831 4.24617 12.8038 4.03265 12.4272C3.86474 12.0668 3.81759 11.7761 3.81348 11.3818C3.81212 11.3393 3.81076 11.2967 3.80936 11.2528C3.80563 10.8519 3.91931 10.5109 4.20312 10.2188C4.51531 9.98122 4.80047 9.92371 5.18164 9.90821C5.21838 9.90639 5.25512 9.90458 5.29297 9.90271C5.3828 9.89833 5.47265 9.89443 5.5625 9.89063C5.51899 9.81232 5.51899 9.81232 5.47461 9.73243C5.25098 9.27961 5.21421 8.73178 5.31055 8.23829C5.44475 7.87227 5.63227 7.60489 5.9776 7.41339C6.28002 7.30257 6.60256 7.28711 6.92188 7.26563C6.90888 7.23735 6.89589 7.20907 6.88251 7.17994C6.86553 7.14247 6.84855 7.10501 6.83105 7.06641C6.8142 7.02943 6.79734 6.99245 6.77997 6.95435C6.67415 6.69766 6.67571 6.45312 6.67285 6.17871C6.67081 6.11486 6.67081 6.11486 6.66873 6.04972C6.66523 5.67311 6.77031 5.41011 6.97461 5.09766C7.29521 4.791 7.61515 4.7076 8.05255 4.71378C8.10675 4.71574 8.16095 4.71771 8.2168 4.71973C8.27281 4.72079 8.32882 4.72185 8.38654 4.72293C8.52338 4.72567 8.66009 4.72951 8.79688 4.73438C8.81041 4.6986 8.82395 4.66281 8.8379 4.62595C8.90372 4.46873 8.9979 4.34015 9.09863 4.20411C9.14148 4.14519 9.18426 4.08623 9.22699 4.02723C9.24902 3.99685 9.27105 3.96647 9.29375 3.93517C9.39795 3.79002 9.49882 3.64265 9.59961 3.49512C9.84696 3.13368 10.0971 2.7742 10.3474 2.41486C10.5131 2.1769 10.6783 1.9386 10.842 1.69929C10.923 1.58101 11.0043 1.46297 11.0858 1.34505C11.1386 1.26851 11.1913 1.19181 11.2439 1.11512C11.706 0.457281 12.3616 0.0693311 13.1562 0.468754ZM12.0023 1.35683C11.9204 1.46932 11.8421 1.58361 11.7646 1.69922C11.7359 1.74126 11.7071 1.7833 11.6775 1.82661C11.6191 1.91204 11.5609 1.99762 11.5029 2.08336C11.4126 2.2168 11.3214 2.34954 11.23 2.48217C11.1686 2.57131 11.1074 2.66059 11.0461 2.74988C10.8736 3.001 10.6994 3.25094 10.5254 3.50098C10.4933 3.54721 10.4611 3.59343 10.428 3.64106C10.2907 3.8385 10.1532 4.03584 10.0145 4.2323C9.98445 4.27511 9.98445 4.27511 9.95376 4.31879C9.90276 4.39132 9.85153 4.46371 9.80029 4.53608C9.72604 4.63325 9.72604 4.63325 9.73438 4.73438C11.5597 4.73438 13.385 4.73438 15.2656 4.73438C15.1991 4.56806 15.157 4.46641 15.0578 4.32917C15.0242 4.28221 15.0242 4.28221 14.9899 4.23429C14.9658 4.20113 14.9418 4.16796 14.917 4.13379C14.8655 4.06186 14.814 3.9899 14.7626 3.91791C14.7238 3.86368 14.7238 3.86368 14.6842 3.80835C14.5754 3.65536 14.4692 3.50069 14.3633 3.34571C14.0547 2.89521 13.743 2.44682 13.4302 1.9992C13.3529 1.88818 13.2763 1.77677 13.1998 1.66516C13.159 1.60619 13.1181 1.54723 13.0771 1.48829C13.0431 1.43874 13.0091 1.38919 12.9741 1.33814C12.8367 1.17264 12.7161 1.08937 12.5029 1.05762C12.2817 1.08922 12.1426 1.18813 12.0023 1.35683ZM7.48438 5.71875C7.35856 5.97039 7.40108 6.41506 7.4679 6.68555C7.59725 6.96859 7.8525 7.19752 8.14062 7.3125C8.25936 7.32165 8.37294 7.32576 8.49165 7.32535C8.52715 7.3256 8.56264 7.32585 8.59922 7.3261C8.71825 7.3268 8.83728 7.32683 8.95631 7.32687C9.04163 7.32722 9.12695 7.32762 9.21227 7.32805C9.44413 7.32908 9.67599 7.32949 9.90786 7.32973C10.0527 7.3299 10.1976 7.33019 10.3425 7.33052C10.8481 7.33167 11.3537 7.33228 11.8592 7.33245C12.3303 7.33262 12.8014 7.33402 13.2725 7.33599C13.677 7.33761 14.0815 7.33834 14.4861 7.33837C14.7277 7.33841 14.9692 7.33882 15.2108 7.34015C15.4381 7.34138 15.6654 7.34148 15.8927 7.34073C15.976 7.34064 16.0593 7.34096 16.1426 7.3417C16.7351 7.36105 16.7351 7.36105 17.2344 7.07813C17.472 6.84337 17.5742 6.62508 17.5799 6.28904C17.58 6.24023 17.58 6.24023 17.5801 6.19043C17.5812 6.15808 17.5824 6.12572 17.5836 6.09238C17.5849 5.85146 17.5268 5.71604 17.375 5.53125C17.2277 5.45762 17.0702 5.47727 16.9085 5.47716C16.8696 5.47696 16.8306 5.47675 16.7905 5.47654C16.6591 5.47591 16.5278 5.47563 16.3965 5.47534C16.3027 5.47497 16.2088 5.47458 16.115 5.47418C15.8062 5.47295 15.4974 5.47223 15.1885 5.47156C15.0824 5.47131 14.9762 5.47106 14.87 5.47081C14.4284 5.46979 13.9869 5.46891 13.5453 5.46839C12.9118 5.46762 12.2783 5.46607 11.6448 5.4634C11.1997 5.46159 10.7547 5.46067 10.3096 5.46042C10.0436 5.46025 9.77761 5.45968 9.5116 5.45817C9.2614 5.45676 9.01122 5.45646 8.76101 5.45701C8.66911 5.45702 8.57722 5.45663 8.48533 5.45581C8.35997 5.45475 8.23469 5.45513 8.10933 5.45588C8.07287 5.45523 8.03641 5.45458 7.99885 5.45391C7.74592 5.45762 7.63975 5.52189 7.48438 5.71875ZM6.17188 8.20313C6.02252 8.45205 6.00576 8.66746 6.03125 8.95313C6.03397 8.98805 6.03669 9.02298 6.03949 9.05896C6.08496 9.3734 6.25274 9.60143 6.5 9.79688C6.79059 9.9285 7.028 9.9577 7.34467 9.95536C7.39066 9.95558 7.43666 9.9558 7.48405 9.95603C7.63748 9.95658 7.7909 9.95614 7.94434 9.9557C8.05462 9.95589 8.1649 9.95614 8.27518 9.95645C8.57425 9.95709 8.87331 9.95684 9.17238 9.95639C9.45375 9.95607 9.73512 9.95632 10.0165 9.95652C10.6077 9.95692 11.199 9.95646 11.7902 9.95571C12.2971 9.95508 12.8039 9.95519 13.3108 9.95584C13.9 9.95659 14.4892 9.95689 15.0783 9.95645C15.39 9.95623 15.7017 9.95621 16.0134 9.95667C16.3064 9.95708 16.5994 9.95679 16.8924 9.95598C16.9999 9.9558 17.1074 9.95585 17.2149 9.95616C17.3617 9.95654 17.5085 9.95606 17.6553 9.95536C17.719 9.95583 17.719 9.95583 17.7839 9.95631C18.1154 9.95325 18.4331 9.89655 18.6787 9.65332C18.9375 9.3721 18.996 9.01295 18.9819 8.64038C18.9607 8.46439 18.9216 8.35585 18.8281 8.20313C18.5786 8.03418 18.3459 8.04267 18.0558 8.04465C18.0064 8.04443 17.957 8.04421 17.906 8.04398C17.7404 8.04342 17.5748 8.04387 17.4092 8.04431C17.2905 8.04412 17.1718 8.04387 17.053 8.04356C16.764 8.04299 16.475 8.04307 16.186 8.04348C15.9511 8.0438 15.7162 8.04384 15.4813 8.04369C15.4311 8.04365 15.4311 8.04365 15.38 8.04362C15.312 8.04358 15.2441 8.04353 15.1761 8.04348C14.5392 8.04308 13.9022 8.04354 13.2652 8.0443C12.7188 8.04493 12.1723 8.04482 11.6259 8.04417C10.9912 8.04342 10.3565 8.04312 9.72177 8.04355C9.65407 8.0436 9.58638 8.04364 9.51868 8.04369C9.46873 8.04372 9.46873 8.04372 9.41776 8.04375C9.18316 8.04387 8.94857 8.04367 8.71398 8.04334C8.39818 8.0429 8.08238 8.04321 7.76658 8.04402C7.6506 8.04421 7.53461 8.04416 7.41862 8.04385C7.26047 8.04346 7.10234 8.04394 6.94418 8.04465C6.89813 8.04433 6.85209 8.04402 6.80465 8.0437C6.55976 8.04581 6.38122 8.06103 6.17188 8.20313ZM4.625 10.9219C4.49917 11.1735 4.54266 11.6159 4.60687 11.887C4.7155 12.1287 4.91266 12.3363 5.14062 12.4688C5.4687 12.5737 5.79579 12.5758 6.13714 12.5744C6.22223 12.5746 6.22223 12.5746 6.30903 12.5749C6.46546 12.5752 6.62188 12.5751 6.77831 12.5748C6.94741 12.5745 7.11651 12.5749 7.28561 12.5751C7.61647 12.5755 7.94733 12.5755 8.27819 12.5752C8.54717 12.575 8.81615 12.5749 9.08512 12.5751C9.12345 12.5751 9.16178 12.5751 9.20127 12.5751C9.27915 12.5751 9.35702 12.5752 9.43489 12.5752C10.1646 12.5755 10.8942 12.5751 11.6239 12.5746C12.2495 12.5742 12.8752 12.5743 13.5008 12.5747C14.2279 12.5752 14.955 12.5754 15.6821 12.5751C15.7597 12.5751 15.8373 12.5751 15.9149 12.5751C15.9721 12.575 15.9721 12.575 16.0305 12.575C16.2991 12.5749 16.5676 12.5751 16.8362 12.5753C17.1636 12.5755 17.491 12.5755 17.8185 12.575C17.9854 12.5747 18.1524 12.5746 18.3193 12.5749C18.5005 12.5753 18.6817 12.5749 18.8629 12.5744C18.9416 12.5747 18.9416 12.5747 19.0219 12.575C19.6 12.5726 19.6 12.5726 20.0879 12.2959C20.1216 12.2657 20.1553 12.2356 20.1901 12.2045C20.3965 11.9537 20.4465 11.7013 20.4453 11.3877C20.4466 11.3558 20.448 11.3238 20.4493 11.2909C20.45 11.1084 20.4221 10.994 20.3091 10.8547C20.143 10.6904 20.0729 10.6816 19.8458 10.6811C19.7929 10.6808 19.74 10.6806 19.6855 10.6804C19.6268 10.6803 19.5682 10.6803 19.5078 10.6803C19.4453 10.6801 19.3827 10.6799 19.3202 10.6797C19.1478 10.6791 18.9754 10.6788 18.803 10.6786C18.6173 10.6783 18.4316 10.6778 18.2458 10.6773C17.797 10.6762 17.3483 10.6755 16.8995 10.6749C16.7727 10.6747 16.646 10.6745 16.5193 10.6743C15.7329 10.6731 14.9464 10.6721 14.16 10.6715C13.9778 10.6714 13.7956 10.6712 13.6133 10.6711C13.568 10.6711 13.5227 10.671 13.4761 10.671C12.7421 10.6704 12.0082 10.6688 11.2742 10.6669C10.5211 10.6649 9.76796 10.6638 9.01484 10.6635C8.59182 10.6634 8.1688 10.6628 7.74578 10.6613C7.38557 10.66 7.02536 10.6595 6.66514 10.66C6.4813 10.6602 6.29749 10.6601 6.11365 10.6589C5.94536 10.6579 5.7771 10.6579 5.6088 10.6588C5.51907 10.659 5.42934 10.658 5.33962 10.657C5.01829 10.66 4.84067 10.6738 4.625 10.9219ZM6.125 13.2656C6.125 15.5859 6.125 17.9063 6.125 20.2969C6.79016 20.2969 7.45531 20.2969 8.14062 20.2969C8.14062 17.9766 8.14062 15.6563 8.14062 13.2656C7.47547 13.2656 6.81031 13.2656 6.125 13.2656ZM8.89062 13.2656C8.89062 15.5859 8.89062 17.9063 8.89062 20.2969C11.2728 20.2969 13.655 20.2969 16.1094 20.2969C16.1094 17.9766 16.1094 15.6563 16.1094 13.2656C13.7272 13.2656 11.345 13.2656 8.89062 13.2656ZM16.8594 13.2656C16.8594 15.5859 16.8594 17.9063 16.8594 20.2969C17.5245 20.2969 18.1897 20.2969 18.875 20.2969C18.875 17.9766 18.875 15.6563 18.875 13.2656C18.2098 13.2656 17.5447 13.2656 16.8594 13.2656ZM4.2998 21.4102C4.27521 21.4389 4.25062 21.4677 4.22528 21.4973C3.92132 21.9907 4.01562 22.2941 4.01562 22.9219C9.61531 22.9219 15.215 22.9219 20.9844 22.9219C21.04 22.096 21.04 22.096 20.7141 21.42C20.3313 21.0538 19.9399 21.0262 19.4319 21.0287C19.3703 21.0285 19.3087 21.0282 19.2452 21.0279C19.0748 21.0273 18.9045 21.0275 18.7342 21.0278C18.5502 21.028 18.3662 21.0274 18.1822 21.027C17.822 21.0262 17.4618 21.0261 17.1016 21.0264C16.8088 21.0266 16.516 21.0265 16.2232 21.0262C16.1815 21.0262 16.1398 21.0262 16.0968 21.0261C16.0121 21.0261 15.9273 21.026 15.8426 21.0259C15.0483 21.0253 14.2541 21.0255 13.4598 21.0261C12.7336 21.0265 12.0073 21.0259 11.2811 21.0248C10.535 21.0237 9.78884 21.0232 9.04269 21.0235C8.62397 21.0237 8.20525 21.0236 7.78652 21.0228C7.43006 21.0221 7.0736 21.022 6.71714 21.0229C6.53537 21.0233 6.35361 21.0234 6.17184 21.0226C5.97455 21.0219 5.77728 21.0226 5.57999 21.0234C5.52288 21.0229 5.46577 21.0225 5.40693 21.022C5.00483 21.0255 4.5701 21.0773 4.2998 21.4102Z" fill="black"/>
</svg>
