<svg width="20" height="20" viewBox="0 0 20 20" fill="none" xmlns="http://www.w3.org/2000/svg">
<g clip-path="url(#clip0_4388_21573)">
<path d="M10.0002 19.1666C8.44461 19.1666 7.01405 18.8124 5.7085 18.1041C4.40294 17.3958 3.3335 16.4513 2.50016 15.2708V17.4999H0.833496V12.4999H5.8335V14.1666H3.771C4.43766 15.1666 5.31613 15.9721 6.40641 16.5833C7.49669 17.1944 8.69461 17.4999 10.0002 17.4999C11.0418 17.4999 12.0175 17.302 12.9272 16.9062C13.837 16.5103 14.6286 15.9756 15.3022 15.302C15.9759 14.6284 16.5106 13.8367 16.9064 12.927C17.3022 12.0173 17.5002 11.0416 17.5002 9.99992H19.1668C19.1668 11.2638 18.9272 12.4513 18.4481 13.5624C17.9689 14.6735 17.3127 15.6458 16.4793 16.4791C15.646 17.3124 14.6738 17.9687 13.5627 18.4478C12.4516 18.927 11.2641 19.1666 10.0002 19.1666ZM0.833496 9.99992C0.833496 8.73603 1.07308 7.54853 1.55225 6.43742C2.03141 5.32631 2.68766 4.35409 3.521 3.52075C4.35433 2.68742 5.32655 2.03117 6.43766 1.552C7.54877 1.07284 8.73627 0.833252 10.0002 0.833252C11.5557 0.833252 12.9863 1.18742 14.2918 1.89575C15.5974 2.60409 16.6668 3.54853 17.5002 4.72909V2.49992H19.1668V7.49992H14.1668V5.83325H16.2293C15.5627 4.83325 14.6842 4.0277 13.5939 3.41659C12.5036 2.80547 11.3057 2.49992 10.0002 2.49992C8.9585 2.49992 7.9828 2.69784 7.07308 3.09367C6.16336 3.4895 5.37169 4.02422 4.69808 4.69784C4.02447 5.37145 3.48975 6.16311 3.09391 7.07284C2.69808 7.98256 2.50016 8.95825 2.50016 9.99992H0.833496ZM10.0002 14.9999C10.2918 14.9999 10.5384 14.8992 10.7397 14.6978C10.9411 14.4964 11.0418 14.2499 11.0418 13.9583C11.0418 13.6666 10.9411 13.4166 10.7397 13.2083C10.5384 12.9999 10.2918 12.8958 10.0002 12.8958C9.7085 12.8958 9.46197 12.9964 9.26058 13.1978C9.05919 13.3992 8.9585 13.6458 8.9585 13.9374C8.9585 14.2291 9.05919 14.4791 9.26058 14.6874C9.46197 14.8958 9.7085 14.9999 10.0002 14.9999ZM9.25016 11.8333H10.771C10.771 11.3333 10.83 10.9583 10.9481 10.7083C11.0661 10.4583 11.3057 10.1527 11.6668 9.79159C12.1529 9.30547 12.4759 8.91311 12.6356 8.6145C12.7953 8.31589 12.8752 7.95825 12.8752 7.54159C12.8752 6.76381 12.5974 6.14575 12.0418 5.68742C11.4863 5.22909 10.8057 4.99992 10.0002 4.99992C9.30572 4.99992 8.7085 5.18047 8.2085 5.54159C7.7085 5.9027 7.34739 6.41659 7.12516 7.08325L8.50016 7.66659C8.59739 7.30547 8.78141 7.00686 9.05225 6.77075C9.32308 6.53464 9.63905 6.41659 10.0002 6.41659C10.3752 6.41659 10.6911 6.52422 10.9481 6.7395C11.205 6.95478 11.3335 7.24297 11.3335 7.60409C11.3335 7.8402 11.2779 8.07631 11.1668 8.31242C11.0557 8.54853 10.8196 8.82631 10.4585 9.14575C10.0002 9.54853 9.68419 9.94089 9.51058 10.3228C9.33697 10.7048 9.25016 11.2083 9.25016 11.8333Z" fill="#241601"/>
</g>
<defs>
<clipPath id="clip0_4388_21573">
<rect width="20" height="20" fill="white"/>
</clipPath>
</defs>
</svg>
