<svg width="15" height="17" viewBox="0 0 15 17" fill="none" xmlns="http://www.w3.org/2000/svg">
<path d="M0 1.31C0 1.02177 0 0.877658 0.0294935 0.758925C0.118786 0.399456 0.399456 0.118786 0.758925 0.0294935C0.877658 0 1.02177 0 1.31 0H13.69C13.9782 0 14.1223 0 14.2411 0.0294935C14.6005 0.118786 14.8812 0.399456 14.9705 0.758925C15 0.877658 15 1.02177 15 1.31V14.9934C15 15.4133 15 15.6233 14.953 15.7711C14.8091 16.224 14.3663 16.5131 13.8938 16.4626C13.7396 16.4461 13.5474 16.3616 13.163 16.1927L8.02704 13.9357C7.90467 13.8819 7.84349 13.855 7.78182 13.8369C7.59783 13.7829 7.40217 13.7829 7.21818 13.8369C7.15651 13.855 7.09533 13.8819 6.97296 13.9357L1.83704 16.1927C1.4526 16.3616 1.26037 16.4461 1.1062 16.4626C0.633655 16.5131 0.190863 16.224 0.0469526 15.7711C0 15.6233 0 15.4133 0 14.9934V1.31Z" fill="#080808"/>
</svg>
