<svg xmlns="http://www.w3.org/2000/svg" width="48" height="48" viewBox="2 2 20 20" fill="none">
  <path fill-rule="evenodd" clip-rule="evenodd" d="M6.66667 2C6.29848 2 6 2.30526 6 2.68182V16.3182C6 16.6947 6.29848 17 6.66667 17C7.03485 17 7.33333 16.6947 7.33333 16.3182V10.5898C7.64401 10.4316 8.13515 10.2111 8.66167 10.0765C9.60607 9.83505 10.364 9.92416 10.7787 10.5602C11.5527 11.7475 13.0308 11.8521 14.1684 11.7362C15.3689 11.6139 16.5565 11.2118 17.1569 10.9847C17.6845 10.7852 18 10.2729 18 9.73236V5.22048C18 4.16271 16.9052 3.54516 16.0326 3.94987C15.325 4.27808 14.3849 4.6446 13.5354 4.76566C12.6466 4.89232 12.1304 4.72093 11.888 4.34916C11.0134 3.00747 9.51705 2.84863 8.44463 2.94003C8.03293 2.97512 7.65039 3.04875 7.33333 3.1267V2.68182C7.33333 2.30526 7.03485 2 6.66667 2ZM7.33333 4.53709V9.09411C7.62722 8.97139 7.97077 8.8475 8.33831 8.75355C9.39391 8.48368 10.9693 8.39457 11.888 9.80375C12.2071 10.2932 12.9423 10.4907 14.0362 10.3793C15.0505 10.276 16.0948 9.93098 16.6667 9.71627V5.22048C16.6667 5.1895 16.6054 5.18152 16.5833 5.19177C15.8383 5.5373 14.7597 5.96799 13.7194 6.11625C12.7184 6.2589 11.4736 6.1717 10.7787 5.1056C10.3199 4.40194 9.48293 4.2199 8.55536 4.29895C8.0827 4.33924 7.64285 4.44518 7.33333 4.53709Z" fill="#000000"/>
</svg>
