<svg width="39" height="42" viewBox="0 0 39 42" fill="none" xmlns="http://www.w3.org/2000/svg">
<g id="Frame 1956" filter="url(#filter0_d_1754_22861)">
<rect x="5" width="28" height="28" rx="14" fill="white" shape-rendering="crispEdges"/>
<rect x="5.25" y="0.25" width="27.5" height="27.5" rx="13.75" stroke="#FFA421" stroke-width="0.5" shape-rendering="crispEdges"/>
<path id="Vector" d="M14 22V21.5C14 21.2239 13.7761 21 13.5 21H13M13 21.5H13.5M22.5 20.5V15.7071C22.5 15.4462 22.8155 15.3155 23 15.5L23.3392 15.8392C23.3838 15.8838 23.4456 15.8964 23.5 15.881M23.5 15.881V20L23.9114 15.8862C23.9295 15.7051 23.6831 15.6338 23.6017 15.7966C23.5799 15.8403 23.5421 15.869 23.5 15.881ZM23.5 15.881V15M15 20.5V15.5M15 15.5V15M15 15.5H15.75M15.75 15.5H16.5M15.75 15.5V20.1672M15 12L23.1768 11.519C23.3729 11.5075 23.5569 11.6139 23.6448 11.7895L23.7764 12.0528C23.8791 12.2583 23.7297 12.5 23.5 12.5H15.1036C15.0372 12.5 14.9737 12.4737 14.9268 12.4268L14.8536 12.3536C14.7231 12.2231 14.8155 12 15 12ZM15 12V12.5M15.5 10.5L16.9375 10.9792M16.9375 10.9792L15.9132 10.2815C15.7879 10.1961 15.8483 10 16 10H22.3374C22.4415 10 22.5413 10.0414 22.615 10.115C22.8044 10.3044 22.7526 10.6237 22.513 10.7435L22.1454 10.9273C22.0498 10.9751 21.9443 11 21.8374 11H17.0659C17.0222 11 16.9789 10.993 16.9375 10.9792ZM18 9.5H20.625C20.8321 9.5 21 9.33211 21 9.125C21 9.04386 20.9737 8.96491 20.925 8.9L19.6407 7.18758C19.5521 7.0695 19.4131 7 19.2655 7C19.1008 7 18.9481 7.08643 18.8634 7.22768L17.7572 9.07125C17.5977 9.33725 17.3102 9.5 17 9.5M19.7838 6.41135C20.0116 6.57231 20.1697 6.76486 20.3223 6.99035C20.3658 7.05294 20.4093 7.1155 20.4529 7.17804C20.4862 7.22617 20.4862 7.22617 20.5201 7.27526C20.6327 7.43635 20.7489 7.59494 20.865 7.75366C21.0296 7.97926 21.1936 8.20519 21.356 8.43227C21.4431 8.55385 21.5314 8.67456 21.6205 8.79483C21.6422 8.82418 21.6639 8.85353 21.6862 8.88377C21.729 8.94154 21.7718 8.99922 21.8149 9.0568C21.8438 9.0959 21.8438 9.0959 21.8733 9.13579C21.8906 9.15905 21.9079 9.18231 21.9257 9.20627C21.963 9.26426 21.963 9.26426 21.963 9.32837C21.9999 9.32711 21.9999 9.32711 22.0377 9.32583C22.151 9.32247 22.2644 9.3204 22.3778 9.31836C22.436 9.31634 22.436 9.31634 22.4953 9.31429C22.7843 9.31038 23.0146 9.35433 23.2339 9.54402C23.4516 9.75999 23.4896 10.0121 23.4863 10.3C23.4861 10.3296 23.486 10.3592 23.4859 10.3897C23.481 10.6102 23.4453 10.7978 23.3375 10.9952C23.3264 11.0164 23.3154 11.0376 23.304 11.0594C23.3416 11.0621 23.3793 11.0649 23.418 11.0677C23.7518 11.0961 24.0365 11.127 24.272 11.3779C24.5041 11.6978 24.5232 12.0406 24.4584 12.4208C24.4181 12.5834 24.3714 12.7132 24.2762 12.8544C24.3139 12.8553 24.3515 12.8561 24.3903 12.857C24.7466 12.8684 25.0468 12.8934 25.3155 13.1429C25.4976 13.3717 25.5297 13.5749 25.5292 13.8542C25.5292 13.8842 25.5291 13.9141 25.5291 13.945C25.5217 14.3401 25.3809 14.6408 25.0825 14.9164C24.8701 15.0823 24.683 15.1298 24.4103 15.1624C24.4103 16.7492 24.4103 18.3359 24.4103 19.9707C24.532 19.9707 24.6537 19.9707 24.7791 19.9707C25.2015 20.0444 25.5018 20.2496 25.7513 20.5798C25.8643 20.7889 25.9237 20.9949 25.9222 21.2305C25.9221 21.2618 25.922 21.2931 25.9219 21.3254C25.9216 21.3576 25.9213 21.3899 25.9211 21.4232C25.9209 21.4561 25.9208 21.489 25.9206 21.5229C25.9202 21.6039 25.9197 21.6848 25.919 21.7658C25.9546 21.765 25.9903 21.7641 26.0271 21.7633C26.1599 21.7603 26.2926 21.7585 26.4254 21.757C26.4828 21.7562 26.5402 21.7551 26.5976 21.7537C26.6802 21.7518 26.7628 21.7509 26.8455 21.7501C26.871 21.7493 26.8966 21.7485 26.9229 21.7476C27.0578 21.7476 27.1185 21.7602 27.2259 21.8409C27.2935 21.9261 27.2935 21.9261 27.3145 22.0222C27.2859 22.1534 27.2349 22.1957 27.1259 22.2787C27.031 22.2945 26.9564 22.3003 26.8617 22.2989C26.8219 22.2992 26.8219 22.2992 26.7814 22.2996C26.6921 22.3001 26.603 22.2996 26.5137 22.299C26.4493 22.2992 26.3848 22.2995 26.3203 22.2998C26.1429 22.3005 25.9655 22.3001 25.7881 22.2996C25.5968 22.2993 25.4056 22.2998 25.2144 22.3003C24.8396 22.301 24.4649 22.3008 24.0901 22.3004C23.7857 22.3 23.4812 22.3 23.1767 22.3001C23.1334 22.3002 23.0901 22.3002 23.0455 22.3002C22.9576 22.3003 22.8697 22.3003 22.7817 22.3004C21.9802 22.3008 21.1786 22.3003 20.3771 22.2995C19.6451 22.2987 18.9132 22.2988 18.1813 22.2996C17.3592 22.3004 16.5371 22.3008 15.715 22.3003C15.6274 22.3002 15.5398 22.3002 15.4522 22.3001C15.4091 22.3001 15.366 22.3001 15.3216 22.3001C15.0174 22.2999 14.7131 22.3001 14.4089 22.3005C14.0383 22.301 13.6677 22.3009 13.2971 22.3C13.108 22.2996 12.9188 22.2994 12.7296 22.2999C12.5565 22.3004 12.3835 22.3002 12.2105 22.2993C12.1477 22.2991 12.085 22.2992 12.0222 22.2996C11.9372 22.3001 11.8522 22.2996 11.7672 22.2989C11.7426 22.2992 11.718 22.2996 11.6927 22.3C11.5626 22.2977 11.5071 22.2818 11.404 22.2033C11.3354 22.1184 11.3354 22.1184 11.3145 22.0222C11.3431 21.8906 11.3929 21.8485 11.503 21.7658C11.6033 21.7517 11.6837 21.7469 11.7834 21.7501C11.81 21.7504 11.8365 21.7506 11.8639 21.7508C11.9483 21.7517 12.0326 21.7537 12.117 21.7558C12.1743 21.7566 12.2317 21.7573 12.2891 21.758C12.4294 21.7597 12.5697 21.7625 12.7099 21.7658C12.7092 21.7466 12.7085 21.7274 12.7078 21.7077C12.6789 20.795 12.6789 20.795 12.9864 20.4464C13.2473 20.1847 13.4764 20.0421 13.8498 19.9707C13.9715 19.9707 14.0932 19.9707 14.2186 19.9707C14.2186 18.384 14.2186 16.7972 14.2186 15.1624C14.1301 15.1518 14.0416 15.1413 13.9504 15.1304C13.6562 15.0376 13.4112 14.8466 13.2585 14.5891C13.1384 14.3426 13.1047 14.1438 13.1018 13.8742C13.1008 13.8451 13.0998 13.816 13.0988 13.786C13.0962 13.5118 13.1775 13.2786 13.3805 13.0788C13.6037 12.9164 13.8077 12.8771 14.0803 12.8665C14.1066 12.8652 14.1329 12.864 14.1599 12.8627C14.2242 12.8597 14.2884 12.857 14.3527 12.8544C14.3216 12.8009 14.3216 12.8009 14.2898 12.7463C14.1299 12.4366 14.1036 12.062 14.1725 11.7245C14.2685 11.4742 14.4026 11.2914 14.6496 11.1604C14.8659 11.0846 15.0966 11.074 15.3249 11.0594C15.3156 11.04 15.3063 11.0207 15.2968 11.0008C15.2846 10.9751 15.2725 10.9495 15.26 10.9231C15.2479 10.8978 15.2359 10.8725 15.2234 10.8465C15.1478 10.671 15.1489 10.5037 15.1468 10.3161C15.1454 10.2724 15.1454 10.2724 15.1439 10.2279C15.1414 9.97032 15.2165 9.79047 15.3626 9.5768C15.5919 9.36709 15.8208 9.31006 16.1336 9.31429C16.1724 9.31563 16.2111 9.31697 16.2511 9.31836C16.2911 9.31908 16.3312 9.3198 16.3725 9.32055C16.4703 9.32242 16.5681 9.32504 16.6659 9.32837C16.6756 9.3039 16.6853 9.27943 16.6953 9.25422C16.7424 9.14671 16.8097 9.05878 16.8818 8.96575C16.9124 8.92546 16.943 8.88514 16.9736 8.84479C16.9893 8.82402 17.0051 8.80324 17.0213 8.78184C17.0958 8.68258 17.168 8.5818 17.2401 8.48091C17.417 8.23375 17.5958 7.98791 17.7749 7.74218C17.8934 7.57946 18.0115 7.41649 18.1287 7.25285C18.1866 7.17196 18.2447 7.09124 18.303 7.0106C18.3408 6.95826 18.3784 6.90581 18.4161 6.85336C18.7466 6.4035 19.2155 6.13821 19.7838 6.41135ZM18.9585 7.01865C18.8999 7.09558 18.8439 7.17374 18.7885 7.2528C18.7679 7.28155 18.7474 7.31029 18.7262 7.33991C18.6844 7.39833 18.6428 7.45686 18.6013 7.51549C18.5368 7.60674 18.4715 7.69752 18.4061 7.78821C18.3622 7.84917 18.3184 7.91023 18.2746 7.97129C18.1513 8.14301 18.0267 8.31393 17.9022 8.48492C17.8792 8.51653 17.8562 8.54814 17.8325 8.58071C17.7343 8.71573 17.636 8.85068 17.5368 8.98503C17.5153 9.01431 17.5153 9.01431 17.4934 9.04417C17.4569 9.09378 17.4202 9.14328 17.3836 9.19277C17.3305 9.25921 17.3305 9.25922 17.3365 9.32837C18.6419 9.32837 19.9474 9.32837 21.2925 9.32837C21.2449 9.21464 21.2148 9.14513 21.1438 9.05127C21.1198 9.01916 21.1198 9.01916 21.0953 8.98639C21.0781 8.96371 21.0608 8.94103 21.0431 8.91767C21.0063 8.86848 20.9695 8.81927 20.9327 8.77004C20.9049 8.73295 20.9049 8.73295 20.8766 8.69511C20.7988 8.5905 20.7228 8.48472 20.6471 8.37874C20.4264 8.07067 20.2035 7.76404 19.9798 7.45793C19.9245 7.38202 19.8696 7.30583 19.815 7.22951C19.7857 7.18918 19.7565 7.14886 19.7272 7.10855C19.7029 7.07467 19.6786 7.04078 19.6535 7.00587C19.5553 6.8927 19.469 6.83575 19.3165 6.81404C19.1583 6.83565 19.0588 6.90329 18.9585 7.01865ZM15.7272 10.0015C15.6373 10.1736 15.6677 10.4777 15.7154 10.6627C15.808 10.8562 15.9905 11.0128 16.1966 11.0914C16.2815 11.0977 16.3627 11.1005 16.4476 11.1002C16.473 11.1004 16.4984 11.1005 16.5246 11.1007C16.6097 11.1012 16.6948 11.1012 16.78 11.1012C16.841 11.1015 16.902 11.1017 16.963 11.102C17.1289 11.1027 17.2947 11.103 17.4605 11.1032C17.5642 11.1033 17.6678 11.1035 17.7714 11.1037C18.133 11.1045 18.4946 11.1049 18.8562 11.1051C19.1931 11.1052 19.53 11.1061 19.8669 11.1075C20.1563 11.1086 20.4456 11.1091 20.7349 11.1091C20.9077 11.1091 21.0805 11.1094 21.2532 11.1103C21.4158 11.1112 21.5784 11.1112 21.7409 11.1107C21.8005 11.1107 21.8601 11.1109 21.9197 11.1114C22.3434 11.1246 22.3434 11.1246 22.7005 10.9311C22.8704 10.7706 22.9435 10.6213 22.9476 10.3915C22.9477 10.3581 22.9477 10.3581 22.9478 10.3241C22.9486 10.302 22.9494 10.2798 22.9503 10.257C22.9512 10.0923 22.9096 9.99967 22.8011 9.87331C22.6958 9.82296 22.5831 9.83639 22.4675 9.83632C22.4396 9.83618 22.4117 9.83604 22.383 9.8359C22.2891 9.83547 22.1952 9.83527 22.1013 9.83507C22.0342 9.83482 21.967 9.83456 21.8999 9.83428C21.6791 9.83344 21.4582 9.83295 21.2373 9.83249C21.1614 9.83232 21.0854 9.83215 21.0095 9.83198C20.6937 9.83128 20.3779 9.83068 20.0621 9.83032C19.609 9.8298 19.1559 9.82874 18.7028 9.82691C18.3845 9.82567 18.0662 9.82504 17.7479 9.82487C17.5576 9.82476 17.3674 9.82437 17.1771 9.82333C16.9982 9.82237 16.8192 9.82216 16.6403 9.82254C16.5746 9.82255 16.5088 9.82228 16.4431 9.82172C16.3535 9.821 16.2639 9.82126 16.1742 9.82177C16.1481 9.82132 16.1221 9.82088 16.0952 9.82042C15.9143 9.82296 15.8384 9.86691 15.7272 10.0015ZM14.7885 11.7005C14.6817 11.8707 14.6697 12.018 14.6879 12.2133C14.6899 12.2372 14.6918 12.2611 14.6938 12.2857C14.7264 12.5007 14.8464 12.6567 15.0232 12.7903C15.231 12.8803 15.4008 12.9003 15.6273 12.8987C15.6602 12.8989 15.6931 12.899 15.727 12.8992C15.8367 12.8996 15.9465 12.8992 16.0562 12.8989C16.1351 12.8991 16.214 12.8992 16.2928 12.8995C16.5067 12.8999 16.7206 12.8997 16.9345 12.8994C17.1357 12.8992 17.337 12.8994 17.5382 12.8995C17.9611 12.8998 18.384 12.8995 18.8068 12.899C19.1693 12.8985 19.5318 12.8986 19.8943 12.899C20.3157 12.8996 20.7371 12.8998 21.1585 12.8995C21.3814 12.8993 21.6043 12.8993 21.8272 12.8996C22.0368 12.8999 22.2464 12.8997 22.456 12.8991C22.5328 12.899 22.6097 12.899 22.6866 12.8993C22.7916 12.8995 22.8966 12.8992 23.0016 12.8987C23.0471 12.899 23.0471 12.899 23.0935 12.8994C23.3306 12.8973 23.5579 12.8585 23.7335 12.6922C23.9186 12.4999 23.9604 12.2543 23.9504 11.9995C23.9352 11.8791 23.9073 11.8049 23.8404 11.7005C23.662 11.5849 23.4955 11.5907 23.288 11.5921C23.2527 11.5919 23.2173 11.5918 23.1809 11.5916C23.0625 11.5912 22.944 11.5915 22.8256 11.5919C22.7407 11.5917 22.6557 11.5915 22.5708 11.5913C22.3641 11.5909 22.1574 11.591 21.9507 11.5913C21.7827 11.5915 21.6147 11.5915 21.4467 11.5914C21.4108 11.5914 21.4108 11.5914 21.3742 11.5914C21.3256 11.5913 21.277 11.5913 21.2284 11.5913C20.7729 11.591 20.3173 11.5913 19.8617 11.5918C19.4709 11.5923 19.0801 11.5922 18.6893 11.5918C18.2353 11.5912 17.7814 11.591 17.3274 11.5913C17.279 11.5914 17.2306 11.5914 17.1822 11.5914C17.1465 11.5914 17.1465 11.5914 17.11 11.5915C16.9422 11.5916 16.7744 11.5914 16.6067 11.5912C16.3808 11.5909 16.1549 11.5911 15.9291 11.5917C15.8461 11.5918 15.7632 11.5917 15.6802 11.5915C15.5671 11.5913 15.454 11.5916 15.3409 11.5921C15.308 11.5919 15.275 11.5917 15.2411 11.5914C15.0659 11.5929 14.9382 11.6033 14.7885 11.7005ZM13.6822 13.5597C13.5922 13.7318 13.6233 14.0342 13.6692 14.2197C13.7469 14.3849 13.8879 14.5269 14.051 14.6175C14.2856 14.6893 14.5195 14.6907 14.7637 14.6897C14.8245 14.6899 14.8245 14.6899 14.8866 14.69C14.9985 14.6902 15.1104 14.6902 15.2223 14.69C15.3432 14.6898 15.4641 14.6901 15.5851 14.6902C15.8217 14.6905 16.0583 14.6905 16.295 14.6903C16.4874 14.6901 16.6797 14.6901 16.8721 14.6902C16.8995 14.6902 16.9269 14.6902 16.9552 14.6902C17.0109 14.6902 17.0666 14.6902 17.1223 14.6903C17.6441 14.6904 18.166 14.6902 18.6878 14.6899C19.1353 14.6896 19.5828 14.6897 20.0302 14.69C20.5503 14.6903 21.0703 14.6904 21.5903 14.6902C21.6458 14.6902 21.7013 14.6902 21.7568 14.6902C21.7977 14.6902 21.7977 14.6902 21.8395 14.6901C22.0316 14.6901 22.2237 14.6902 22.4157 14.6903C22.6499 14.6905 22.8841 14.6905 23.1183 14.6901C23.2377 14.69 23.3571 14.6899 23.4765 14.6901C23.6061 14.6903 23.7356 14.6901 23.8652 14.6897C23.9215 14.6899 23.9215 14.69 23.9789 14.6902C24.3925 14.6885 24.3925 14.6885 24.7414 14.4993C24.7655 14.4787 24.7896 14.458 24.8145 14.4368C24.9621 14.2653 24.9979 14.0927 24.997 13.8782C24.998 13.8564 24.9989 13.8345 24.9999 13.812C25.0004 13.6872 24.9804 13.609 24.8996 13.5137C24.7808 13.4013 24.7307 13.3954 24.5682 13.395C24.5304 13.3948 24.4925 13.3947 24.4536 13.3945C24.4116 13.3945 24.3697 13.3945 24.3265 13.3945C24.2818 13.3943 24.237 13.3942 24.1923 13.394C24.069 13.3936 23.9457 13.3935 23.8224 13.3933C23.6896 13.3931 23.5568 13.3928 23.4239 13.3924C23.1029 13.3916 22.782 13.3912 22.461 13.3907C22.3704 13.3906 22.2797 13.3905 22.1891 13.3904C21.6266 13.3896 21.0642 13.3888 20.5017 13.3884C20.3714 13.3884 20.241 13.3883 20.1107 13.3882C20.0783 13.3881 20.0459 13.3881 20.0126 13.3881C19.4876 13.3877 18.9627 13.3866 18.4378 13.3853C17.8991 13.3839 17.3605 13.3832 16.8218 13.383C16.5193 13.3829 16.2167 13.3825 15.9142 13.3815C15.6566 13.3806 15.3989 13.3802 15.1413 13.3806C15.0098 13.3807 14.8784 13.3806 14.7469 13.3798C14.6265 13.3791 14.5062 13.3792 14.3858 13.3798C14.3216 13.3799 14.2575 13.3792 14.1933 13.3785C13.9635 13.3806 13.8364 13.39 13.6822 13.5597ZM14.755 15.1624C14.755 16.7492 14.755 18.3359 14.755 19.9707C15.2307 19.9707 15.7064 19.9707 16.1966 19.9707C16.1966 18.384 16.1966 16.7972 16.1966 15.1624C15.7209 15.1624 15.2451 15.1624 14.755 15.1624ZM16.733 15.1624C16.733 16.7492 16.733 18.3359 16.733 19.9707C18.4368 19.9707 20.1405 19.9707 21.8959 19.9707C21.8959 18.384 21.8959 16.7972 21.8959 15.1624C20.1921 15.1624 18.4884 15.1624 16.733 15.1624ZM22.4323 15.1624C22.4323 16.7492 22.4323 18.3359 22.4323 19.9707C22.908 19.9707 23.3838 19.9707 23.8739 19.9707C23.8739 18.384 23.8739 16.7972 23.8739 15.1624C23.3982 15.1624 22.9225 15.1624 22.4323 15.1624ZM13.4496 20.732C13.432 20.7517 13.4144 20.7714 13.3963 20.7916C13.1789 21.129 13.2464 21.3365 13.2464 21.7658C17.2513 21.7658 21.2562 21.7658 25.3826 21.7658C25.4223 21.201 25.4223 21.201 25.1893 20.7388C24.9154 20.4883 24.6355 20.4695 24.2722 20.4712C24.2281 20.471 24.1841 20.4708 24.1387 20.4706C24.0168 20.4702 23.895 20.4703 23.7732 20.4705C23.6416 20.4707 23.51 20.4703 23.3784 20.47C23.1208 20.4694 22.8632 20.4694 22.6056 20.4696C22.3962 20.4697 22.1867 20.4696 21.9773 20.4695C21.9475 20.4694 21.9176 20.4694 21.8869 20.4694C21.8263 20.4694 21.7657 20.4693 21.7051 20.4693C21.1371 20.4688 20.569 20.469 20.0009 20.4694C19.4815 20.4697 18.9621 20.4693 18.4427 20.4685C17.909 20.4677 17.3754 20.4674 16.8418 20.4676C16.5423 20.4677 16.2428 20.4677 15.9433 20.4671C15.6884 20.4666 15.4334 20.4666 15.1785 20.4672C15.0485 20.4674 14.9185 20.4675 14.7885 20.467C14.6474 20.4665 14.5063 20.467 14.3652 20.4675C14.3244 20.4672 14.2835 20.4669 14.2414 20.4666C13.9538 20.469 13.6429 20.5044 13.4496 20.732ZM14.2071 21.5H24.691C25.0627 21.5 25.3044 21.1088 25.1382 20.7764C25.0535 20.607 24.8804 20.5 24.691 20.5H14.2071C14.0745 20.5 13.9473 20.5527 13.8536 20.6464C13.5386 20.9614 13.7617 21.5 14.2071 21.5ZM14.2071 13.5C14.0745 13.5 13.9473 13.5527 13.8536 13.6464C13.6583 13.8417 13.6583 14.1583 13.8536 14.3536C13.9473 14.4473 14.0745 14.5 14.2071 14.5H24.2929C24.4255 14.5 24.5527 14.4473 24.6464 14.3536C24.8417 14.1583 24.8417 13.8417 24.6464 13.6464C24.5527 13.5527 24.4255 13.5 24.2929 13.5H14.2071ZM19.2871 7.81934L18.7773 8.58398C18.6588 8.7618 18.7863 9 19 9H20C20.2297 9 20.3791 8.75825 20.2764 8.55279L20.0854 8.17082C20.0331 8.06613 19.9261 8 19.809 8H19.6162C19.552 8 19.5 7.94797 19.5 7.8838C19.5 7.76882 19.3509 7.72367 19.2871 7.81934Z" stroke="#EC9111"/>
</g>
<defs>
<filter id="filter0_d_1754_22861" x="-9" y="-6" width="48" height="48" filterUnits="userSpaceOnUse" color-interpolation-filters="sRGB">
<feFlood flood-opacity="0" result="BackgroundImageFix"/>
<feColorMatrix in="SourceAlpha" type="matrix" values="0 0 0 0 0 0 0 0 0 0 0 0 0 0 0 0 0 0 127 0" result="hardAlpha"/>
<feOffset dx="-4" dy="4"/>
<feGaussianBlur stdDeviation="5"/>
<feComposite in2="hardAlpha" operator="out"/>
<feColorMatrix type="matrix" values="0 0 0 0 0 0 0 0 0 0 0 0 0 0 0 0 0 0 0.1 0"/>
<feBlend mode="normal" in2="BackgroundImageFix" result="effect1_dropShadow_1754_22861"/>
<feBlend mode="normal" in="SourceGraphic" in2="effect1_dropShadow_1754_22861" result="shape"/>
</filter>
</defs>
</svg>
