<svg width="24" height="24" viewBox="0 0 24 24" fill="none" xmlns="http://www.w3.org/2000/svg">
<g clip-path="url(#clip0_4656_9983)">
<path d="M9.50916 16.6307C13.843 16.6307 17.3562 13.2642 17.3562 9.11154C17.3562 4.95884 13.843 1.59241 9.50916 1.59241C5.17535 1.59241 1.66211 4.95884 1.66211 9.11154C1.66211 13.2642 5.17535 16.6307 9.50916 16.6307Z" stroke="#14191E" stroke-width="3.32382" stroke-miterlimit="10"/>
<path d="M22.1331 22.3809L14.7861 14.8035C14.7532 14.7696 14.7552 14.7164 14.7906 14.6849L14.8438 14.6376C14.8792 14.606 14.9347 14.6079 14.9676 14.6419L22.3147 22.2193C22.3477 22.2532 22.3457 22.3064 22.3103 22.3379L22.2571 22.3852C22.2215 22.4167 22.1662 22.4148 22.1331 22.3809Z" stroke="#14191E" stroke-width="3.32382" stroke-miterlimit="10"/>
</g>
<defs>
<clipPath id="clip0_4656_9983">
<rect width="24" height="24" fill="white"/>
</clipPath>
</defs>
</svg>
