<svg width="16" height="16" viewBox="0 0 16 16" fill="none" xmlns="http://www.w3.org/2000/svg">
<g clip-path="url(#clip0_1754_19540)">
<path d="M14.8218 8.90247C15.5497 8.17534 16.0025 7.16328 16.002 6.05294C16.0025 4.94263 15.5497 3.93053 14.8218 3.20363C14.0949 2.47556 13.0831 2.02275 11.9723 2.02344C10.862 2.02275 9.84969 2.47559 9.12325 3.20363C8.395 3.93053 7.94216 4.94263 7.94263 6.05294C7.94216 7.16325 8.395 8.17531 9.12325 8.90247C9.72538 9.5055 10.5235 9.91863 11.4111 10.0427V11.6982H9.58338V12.8215H11.4111V14.5954H12.5341V12.8215H14.3618V11.6982H12.5341V10.0427C13.4216 9.91863 14.2197 9.5055 14.8218 8.90247ZM11.9723 8.6225C11.6157 8.62225 11.2794 8.55059 10.9723 8.42081C10.5121 8.22638 10.1183 7.89944 9.84106 7.48903C9.56428 7.07819 9.40319 6.58766 9.40319 6.05294C9.40319 5.69606 9.47488 5.36006 9.60466 5.05313C9.79885 4.59278 10.1256 4.19919 10.5362 3.92194C10.9473 3.64494 11.4378 3.48384 11.9723 3.48338C12.329 3.48363 12.6652 3.55531 12.9724 3.68531C13.4325 3.8795 13.8263 4.20644 14.1036 4.61684C14.3803 5.02797 14.5414 5.51844 14.5419 6.05297C14.5414 6.40984 14.4698 6.74584 14.34 7.05281C14.1458 7.51313 13.8186 7.90697 13.4084 8.184C12.9973 8.46119 12.5073 8.62206 11.9723 8.6225Z" fill="#FE9F1E"/>
<path d="M4.591 6.32176V3.55458L5.70631 4.66967L6.50081 3.87561L4.02972 1.4043L1.55816 3.87561L2.35222 4.66967L3.46797 3.55436V6.32176C2.58044 6.44608 1.78231 6.85923 1.18019 7.46245C0.451938 8.18939 -0.000437183 9.20123 3.17049e-07 10.3116C-0.000437183 11.4224 0.451938 12.4342 1.18019 13.1611C1.90709 13.8894 2.91894 14.342 4.02972 14.3415C5.14003 14.342 6.15191 13.8894 6.87878 13.1611C7.60703 12.4342 8.05941 11.4223 8.05941 10.3116C8.05941 9.20127 7.60703 8.18939 6.87878 7.46248C6.27669 6.85927 5.47853 6.44608 4.591 6.32176ZM6.39738 11.3116C6.20272 11.772 5.87603 12.1656 5.46581 12.4428C5.05475 12.7201 4.56425 12.8812 4.02972 12.8812C3.67263 12.8812 3.33684 12.8095 3.02966 12.6797C2.56956 12.485 2.17569 12.1583 1.89847 11.7479C1.62122 11.3368 1.46016 10.8465 1.46016 10.3116C1.46016 9.95498 1.53184 9.61898 1.66159 9.31202C1.85625 8.85192 2.18297 8.45808 2.59359 8.18083C3.00422 7.90383 3.49472 7.74298 4.02969 7.74252C4.38634 7.74252 4.72209 7.8142 5.02975 7.9442C5.48941 8.13864 5.88325 8.46533 6.1605 8.87573C6.43772 9.28686 6.59881 9.77711 6.59881 10.3116C6.59884 10.6686 6.52713 11.0049 6.39738 11.3116Z" fill="#FE9F1E"/>
</g>
<defs>
<clipPath id="clip0_1754_19540">
<rect width="16" height="16" fill="white"/>
</clipPath>
</defs>
</svg>
