<svg width="26" height="26" viewBox="0 0 26 26" fill="none" xmlns="http://www.w3.org/2000/svg">
<path d="M13.426 6.42542C13.426 6.19047 13.2356 6 13.0006 6C12.7657 6 12.5752 6.19047 12.5752 6.42542V19.5746C12.5752 19.8095 12.7657 20 13.0006 20C13.2356 20 13.426 19.8095 13.426 19.5746V6.42542Z" fill="white" stroke="#14191C" stroke-width="0.934322" stroke-miterlimit="10"/>
<path d="M6.42542 12.5747C6.19047 12.5747 6 12.7652 6 13.0001C6 13.2351 6.19047 13.4255 6.42542 13.4255H19.5746C19.8095 13.4255 20 13.2351 20 13.0001C20 12.7652 19.8095 12.5747 19.5746 12.5747H6.42542Z" fill="white" stroke="#14191C" stroke-width="0.934322" stroke-miterlimit="10"/>
<path d="M21.2681 1H4.7319C2.67083 1 1 2.65749 1 4.70211V21.2979C1 23.3425 2.67083 25 4.7319 25H21.2681C23.3292 25 25 23.3425 25 21.2979V4.70211C25 2.65749 23.3292 1 21.2681 1Z" stroke="#14191C" stroke-width="0.934322" stroke-miterlimit="10"/>
</svg>
