<svg width="18" height="19" viewBox="0 0 18 19" fill="none" xmlns="http://www.w3.org/2000/svg">
<path d="M8.95499 14.9C9.26999 14.9 9.53639 14.7911 9.75419 14.5733C9.97199 14.3555 10.0806 14.0894 10.08 13.775C10.0794 13.4606 9.97079 13.1942 9.75419 12.9758C9.53759 12.7574 9.27119 12.6488 8.95499 12.65C8.63879 12.6512 8.37269 12.7601 8.15669 12.9767C7.9407 13.1933 7.8318 13.4594 7.83 13.775C7.8282 14.0906 7.9371 14.357 8.15669 14.5742C8.37629 14.7914 8.64239 14.9 8.95499 14.9ZM8.145 11.435H9.80999C9.80999 10.94 9.86639 10.55 9.97919 10.265C10.092 9.97999 10.4106 9.58999 10.935 9.09499C11.325 8.70499 11.6325 8.33359 11.8575 7.9808C12.0825 7.628 12.195 7.2044 12.195 6.71C12.195 5.87 11.8875 5.225 11.2725 4.775C10.6575 4.325 9.92999 4.1 9.08999 4.1C8.235 4.1 7.5414 4.325 7.0092 4.775C6.477 5.225 6.1056 5.765 5.895 6.395L7.38 6.98C7.455 6.71 7.6239 6.4175 7.8867 6.1025C8.14949 5.7875 8.5506 5.63 9.08999 5.63C9.56999 5.63 9.92999 5.7614 10.17 6.0242C10.41 6.287 10.53 6.5756 10.53 6.89C10.53 7.19 10.44 7.4714 10.26 7.7342C10.08 7.997 9.85499 8.2406 9.58499 8.46499C8.92499 9.04999 8.52 9.49249 8.37 9.79249C8.22 10.0925 8.145 10.64 8.145 11.435ZM8.99999 18.5C7.755 18.5 6.585 18.2639 5.49 17.7917C4.395 17.3195 3.4425 16.6781 2.6325 15.8675C1.8225 15.0569 1.1814 14.1044 0.709201 13.01C0.237001 11.9156 0.000601139 10.7456 1.13924e-06 9.49999C-0.00059886 8.25439 0.235801 7.0844 0.709201 5.99C1.1826 4.8956 1.8237 3.9431 2.6325 3.1325C3.4413 2.3219 4.3938 1.6808 5.49 1.2092C6.5862 0.737604 7.7562 0.501205 8.99999 0.500005C10.2438 0.498805 11.4138 0.735204 12.51 1.2092C13.6062 1.6832 14.5587 2.3243 15.3675 3.1325C16.1763 3.9407 16.8177 4.8932 17.2917 5.99C17.7657 7.0868 18.0018 8.25679 18 9.49999C17.9982 10.7432 17.7618 11.9132 17.2908 13.01C16.8198 14.1068 16.1787 15.0593 15.3675 15.8675C14.5563 16.6757 13.6038 17.3171 12.51 17.7917C11.4162 18.2663 10.2462 18.5024 8.99999 18.5ZM8.99999 16.7C11.01 16.7 12.7125 16.0025 14.1075 14.6075C15.5025 13.2125 16.2 11.51 16.2 9.49999C16.2 7.49 15.5025 5.7875 14.1075 4.3925C12.7125 2.9975 11.01 2.3 8.99999 2.3C6.99 2.3 5.2875 2.9975 3.8925 4.3925C2.4975 5.7875 1.8 7.49 1.8 9.49999C1.8 11.51 2.4975 13.2125 3.8925 14.6075C5.2875 16.0025 6.99 16.7 8.99999 16.7Z" fill="black"/>
</svg>
