<svg width="24" height="24" viewBox="0 0 24 24" fill="none" xmlns="http://www.w3.org/2000/svg">
<path d="M2.57143 22.44H8.37314V14.5201C8.37314 14.1634 8.49519 13.8644 8.73929 13.6231C8.98233 13.3808 9.28352 13.2597 9.64286 13.2597H14.3571C14.7165 13.2597 15.0182 13.3808 15.2623 13.6231C15.5053 13.8644 15.6269 14.1634 15.6269 14.5201V22.44H21.4286V8.88086C21.4286 8.7207 21.3935 8.57511 21.3233 8.44407C21.2531 8.31303 21.1572 8.19863 21.0357 8.10088L12.5751 1.77056C12.4138 1.6312 12.2221 1.56152 12 1.56152C11.7779 1.56152 11.5867 1.6312 11.4264 1.77056L2.96429 8.10088C2.84381 8.20071 2.74795 8.31511 2.67671 8.44407C2.60548 8.57303 2.57038 8.71862 2.57143 8.88086V22.44ZM1 22.44V8.88086C1 8.48151 1.0901 8.10348 1.27029 7.74677C1.45048 7.39006 1.69876 7.09626 2.01514 6.86539L10.4773 0.503868C10.9204 0.167956 11.4264 0 11.9953 0C12.5641 0 13.0733 0.167956 13.5227 0.503868L21.9849 6.86383C22.3023 7.0947 22.5506 7.38902 22.7297 7.74677C22.9099 8.10348 23 8.48151 23 8.88086V22.44C23 22.8581 22.8434 23.2226 22.5301 23.5336C22.2169 23.8445 21.8497 24 21.4286 24H15.3251C14.9648 24 14.663 23.8794 14.42 23.6381C14.177 23.3958 14.0554 23.0963 14.0554 22.7395V14.8212H9.94457V22.7395C9.94457 23.0973 9.82305 23.3968 9.58 23.6381C9.33695 23.8794 9.03576 24 8.67643 24H2.57143C2.15029 24 1.78309 23.8445 1.46986 23.5336C1.15662 23.2226 1 22.8581 1 22.44Z" fill="black"/>
</svg>
