<svg width="24" height="24" viewBox="0 0 24 24" fill="none" xmlns="http://www.w3.org/2000/svg">
<path d="M1 21.2571V8.91428C1 8.48 1.09762 8.06857 1.29287 7.68C1.48812 7.29143 1.75717 6.97143 2.1 6.72L10.35 0.548571C10.8312 0.182857 11.3812 0 12 0C12.6187 0 13.1687 0.182857 13.65 0.548571L21.9 6.72C22.2437 6.97143 22.5132 7.29143 22.7085 7.68C22.9037 8.06857 23.0009 8.48 23 8.91428V21.2571C23 22.0114 22.7305 22.6574 22.1915 23.195C21.6525 23.7326 21.0053 24.0009 20.25 24H16.125C15.7354 24 15.4091 23.8683 15.146 23.605C14.8829 23.3417 14.7509 23.0162 14.75 22.6286V15.7714C14.75 15.3829 14.618 15.0574 14.354 14.795C14.09 14.5326 13.7637 14.4009 13.375 14.4H10.625C10.2354 14.4 9.90908 14.5317 9.646 14.795C9.38291 15.0583 9.25091 15.3838 9.25 15.7714V22.6286C9.25 23.0171 9.118 23.3431 8.854 23.6064C8.59 23.8697 8.26366 24.0009 7.875 24H3.75C2.99375 24 2.34658 23.7317 1.8085 23.195C1.27042 22.6583 1.00092 22.0123 1 21.2571Z" fill="black"/>
</svg>
