<svg width="16" height="16" viewBox="0 0 16 16" fill="none" xmlns="http://www.w3.org/2000/svg">
<g clip-path="url(#clip0_1754_19557)">
<path d="M5.61907 1.36525C5.68024 1.41043 5.7385 1.45754 5.79655 1.50638C5.82156 1.52471 5.82156 1.52471 5.84708 1.5434C6.13984 1.76343 6.32414 2.10807 6.50734 2.41302C6.55441 2.49073 6.60162 2.56837 6.64883 2.64601C6.66066 2.66551 6.6725 2.68501 6.68469 2.70511C6.76479 2.83685 6.84638 2.96763 6.92915 3.09783C6.94011 3.1151 6.95108 3.13238 6.96237 3.15017C7.01405 3.23154 7.06592 3.31278 7.11806 3.39387C7.39408 3.82814 7.57599 4.25967 7.46779 4.7776C7.3575 5.17779 7.11229 5.4686 6.8112 5.754C6.78691 5.77736 6.76262 5.80071 6.7376 5.82477C6.66104 5.89829 6.5842 5.97152 6.50734 6.04473C6.45494 6.09496 6.40255 6.1452 6.35019 6.19546C6.22273 6.31773 6.09503 6.43975 5.96714 6.56159C6.00086 6.6446 6.03423 6.721 6.08397 6.79619C6.09584 6.81413 6.10772 6.83207 6.11994 6.85056C6.1393 6.87921 6.1393 6.87921 6.15905 6.90844C6.17956 6.93885 6.17956 6.93885 6.20049 6.96987C6.47326 7.36948 6.77184 7.74548 7.1044 8.10013C7.12651 8.12381 7.12651 8.12381 7.14906 8.14798C7.40453 8.42099 7.66649 8.68611 7.95735 8.92435C7.98385 8.94659 8.01035 8.96883 8.03765 8.99174C8.36977 9.2692 8.71826 9.51984 9.08573 9.752C9.10989 9.76729 9.13404 9.78259 9.15893 9.79835C9.18179 9.81259 9.20466 9.82683 9.22822 9.8415C9.2484 9.85408 9.26859 9.86666 9.28938 9.87962C9.35521 9.91601 9.42209 9.94174 9.49266 9.96836C9.50692 9.95433 9.52119 9.9403 9.53589 9.92584C9.67148 9.7926 9.80735 9.65964 9.94354 9.52697C10.0135 9.45878 10.0834 9.39049 10.153 9.32196C10.2334 9.24288 10.3142 9.16426 10.395 9.08565C10.4195 9.0614 10.444 9.03715 10.4693 9.01217C10.8176 8.67542 11.1901 8.49581 11.6854 8.48423C12.3072 8.48725 12.8439 8.89628 13.361 9.19471C13.4164 9.22667 13.4718 9.25857 13.5273 9.29045C13.6177 9.34252 13.708 9.3948 13.7982 9.44726C13.8321 9.46695 13.866 9.48659 13.8999 9.50617C14.0999 9.62183 14.2874 9.74368 14.4682 9.88593C14.4859 9.89907 14.5036 9.91221 14.5219 9.92575C14.9162 10.2187 15.1835 10.7479 15.2563 11.2176C15.3019 11.6144 15.2949 12.0094 15.1505 12.3861C15.1406 12.4143 15.1306 12.4425 15.1203 12.4716C14.973 12.8529 14.6999 13.1409 14.4067 13.4227C14.3736 13.4547 14.3406 13.4868 14.3076 13.519C14.2388 13.5857 14.1698 13.6522 14.1007 13.7186C14.0132 13.8027 13.9263 13.8873 13.8395 13.9721C13.7716 14.0384 13.7033 14.1044 13.6349 14.1702C13.6027 14.2012 13.5707 14.2324 13.5388 14.2636C13.0767 14.7152 12.5211 15.0586 11.843 15.0625C11.8121 15.0621 11.7812 15.0617 11.7494 15.0613C11.7162 15.0611 11.6831 15.0608 11.6489 15.0606C8.98715 15.0171 6.30871 13.8193 4.39014 12.0682C4.34719 12.0295 4.30365 11.9915 4.2598 11.9537C4.06196 11.7828 3.88018 11.6018 3.70291 11.411C3.6679 11.3735 3.63241 11.3364 3.59688 11.2993C3.41797 11.1117 3.25542 10.9129 3.09555 10.7102C3.08025 10.6908 3.06496 10.6715 3.04921 10.6516C1.81263 9.08361 1.07399 7.2661 0.764154 5.32526C0.760338 5.30202 0.756522 5.27878 0.75259 5.25484C0.634948 4.51697 0.638877 3.7588 1.08917 3.12501C1.29038 2.86817 1.5385 2.6489 1.77525 2.42332C1.84272 2.3589 1.91013 2.29443 1.97747 2.22987C2.0191 2.18998 2.0608 2.15016 2.1026 2.11043C2.21574 2.00215 2.32328 1.89104 2.42685 1.77414C3.22573 0.887067 4.609 0.705795 5.61907 1.36525Z" fill="#FE9F1E"/>
<path d="M10.3431 1.59616C10.5592 1.70736 10.6928 1.85015 10.7699 2.0759C10.7975 2.18287 10.8049 2.27477 10.8061 2.38481C10.8064 2.40416 10.8067 2.42352 10.8069 2.44346C10.8078 2.50675 10.8083 2.57003 10.8088 2.63332C10.8093 2.67748 10.8099 2.72163 10.8105 2.76579C10.8119 2.88148 10.8131 2.99717 10.8141 3.11287C10.8153 3.23114 10.8167 3.3494 10.8181 3.46766C10.8209 3.69933 10.8233 3.931 10.8255 4.16267C10.8386 4.14986 10.8517 4.13706 10.8652 4.12386C11.1851 3.81175 11.5053 3.50002 11.826 3.1887C11.9811 3.03815 12.136 2.88746 12.2907 2.73647C12.4255 2.60481 12.5606 2.47339 12.6959 2.34226C12.7676 2.27287 12.8391 2.20337 12.9103 2.13357C12.9899 2.0555 13.0701 1.97798 13.1503 1.9005C13.1737 1.87748 13.197 1.85445 13.221 1.83073C13.4177 1.6423 13.602 1.53222 13.8855 1.53252C14.1139 1.53936 14.2746 1.58816 14.4444 1.737C14.6488 1.94811 14.68 2.1171 14.6875 2.40088C14.6636 2.66986 14.4664 2.86584 14.2767 3.04516C14.2517 3.06936 14.2267 3.09356 14.2009 3.11849C14.1329 3.18413 14.0646 3.24944 13.9961 3.31462C13.9244 3.38306 13.8531 3.4519 13.7817 3.52069C13.6468 3.6506 13.5116 3.78016 13.3762 3.90959C13.222 4.05708 13.0682 4.20497 12.9144 4.35289C12.5983 4.6569 12.2817 4.9604 11.9648 5.26358C11.9898 5.26368 12.0148 5.26379 12.0405 5.26389C12.2772 5.26494 12.514 5.2665 12.7507 5.26865C12.8724 5.26973 12.994 5.27062 13.1157 5.27104C13.2333 5.27146 13.351 5.27242 13.4686 5.27372C13.5133 5.27413 13.5579 5.27435 13.6026 5.27437C13.8971 5.27468 14.1484 5.30047 14.4089 5.44592C14.6126 5.65962 14.6834 5.86807 14.68 6.1541C14.6574 6.39384 14.5296 6.54499 14.3507 6.70327C14.1129 6.84362 13.8566 6.84431 13.5853 6.84307C13.5456 6.84318 13.5059 6.84333 13.4662 6.84351C13.3591 6.84388 13.2521 6.84374 13.1451 6.84348C13.0326 6.84327 12.9201 6.84346 12.8076 6.84359C12.6187 6.84374 12.4299 6.84355 12.241 6.84315C12.0233 6.8427 11.8055 6.84285 11.5878 6.8433C11.4002 6.84368 11.2126 6.84373 11.025 6.84351C10.9133 6.84339 10.8015 6.84337 10.6898 6.84364C10.5846 6.84388 10.4795 6.84371 10.3744 6.84324C10.3179 6.84308 10.2613 6.84332 10.2048 6.84358C9.9289 6.8417 9.67862 6.81299 9.45833 6.63973C9.27 6.44504 9.19891 6.26859 9.1978 6.00582C9.1976 5.97249 9.19739 5.93916 9.19718 5.90482C9.1971 5.8681 9.19702 5.83139 9.19695 5.79468C9.19677 5.75583 9.19658 5.71698 9.19638 5.67814C9.19579 5.55078 9.19549 5.42341 9.1952 5.29605C9.19509 5.25209 9.19497 5.20812 9.19485 5.16416C9.19431 4.95753 9.19391 4.75089 9.19367 4.54426C9.19339 4.30632 9.19264 4.06838 9.19149 3.83043C9.19063 3.64615 9.19021 3.46186 9.19011 3.27757C9.19005 3.16768 9.18979 3.0578 9.18908 2.94791C9.18841 2.8444 9.18829 2.74089 9.18858 2.63738C9.1886 2.58173 9.18806 2.52608 9.1875 2.47043C9.18894 2.22364 9.22327 1.98952 9.37823 1.78538C9.63688 1.55211 10.0074 1.4567 10.3431 1.59616Z" fill="#FE9F1E"/>
</g>
<defs>
<clipPath id="clip0_1754_19557">
<rect width="16" height="16" fill="white"/>
</clipPath>
</defs>
</svg>
