<svg width="20" height="20" viewBox="0 0 20 20" fill="none" xmlns="http://www.w3.org/2000/svg">
<path d="M15.0002 11.6666V9.16658H12.5002V7.49992H15.0002V4.99992H16.6668V7.49992H19.1668V9.16658H16.6668V11.6666H15.0002ZM7.50016 9.99992C6.5835 9.99992 5.79877 9.67353 5.146 9.02075C4.49322 8.36797 4.16683 7.58325 4.16683 6.66658C4.16683 5.74992 4.49322 4.9652 5.146 4.31242C5.79877 3.65964 6.5835 3.33325 7.50016 3.33325C8.41683 3.33325 9.20155 3.65964 9.85433 4.31242C10.5071 4.9652 10.8335 5.74992 10.8335 6.66658C10.8335 7.58325 10.5071 8.36797 9.85433 9.02075C9.20155 9.67353 8.41683 9.99992 7.50016 9.99992ZM0.833496 16.6666V14.3333C0.833496 13.861 0.955024 13.427 1.19808 13.0312C1.44113 12.6353 1.76405 12.3333 2.16683 12.1249C3.02794 11.6944 3.90294 11.3714 4.79183 11.1562C5.68072 10.9409 6.5835 10.8333 7.50016 10.8333C8.41683 10.8333 9.31961 10.9409 10.2085 11.1562C11.0974 11.3714 11.9724 11.6944 12.8335 12.1249C13.2363 12.3333 13.5592 12.6353 13.8022 13.0312C14.0453 13.427 14.1668 13.861 14.1668 14.3333V16.6666H0.833496ZM2.50016 14.9999H12.5002V14.3333C12.5002 14.1805 12.462 14.0416 12.3856 13.9166C12.3092 13.7916 12.2085 13.6944 12.0835 13.6249C11.3335 13.2499 10.5766 12.9687 9.81266 12.7812C9.04877 12.5937 8.27794 12.4999 7.50016 12.4999C6.72239 12.4999 5.95155 12.5937 5.18766 12.7812C4.42377 12.9687 3.66683 13.2499 2.91683 13.6249C2.79183 13.6944 2.69114 13.7916 2.61475 13.9166C2.53836 14.0416 2.50016 14.1805 2.50016 14.3333V14.9999ZM7.50016 8.33325C7.9585 8.33325 8.35086 8.17006 8.67725 7.84367C9.00364 7.51728 9.16683 7.12492 9.16683 6.66658C9.16683 6.20825 9.00364 5.81589 8.67725 5.4895C8.35086 5.16311 7.9585 4.99992 7.50016 4.99992C7.04183 4.99992 6.64947 5.16311 6.32308 5.4895C5.99669 5.81589 5.8335 6.20825 5.8335 6.66658C5.8335 7.12492 5.99669 7.51728 6.32308 7.84367C6.64947 8.17006 7.04183 8.33325 7.50016 8.33325Z" fill="#241601"/>
</svg>
