<svg width="36" height="23" viewBox="0 0 36 23" fill="none" xmlns="http://www.w3.org/2000/svg">
<path d="M17.727 17.8659C16.9647 18.5536 14.3603 20.7305 10.358 20.9796C5.84325 21.2607 2.72449 18.8911 2 18.3095C2.70525 17.6906 5.89327 15.03 10.6107 15.2143" stroke="black" stroke-width="1.6728" stroke-miterlimit="10"/>
<path d="M18.2729 18.0451C19.0352 18.7328 21.6396 20.9098 25.642 21.1588C30.1567 21.4399 33.2754 19.0703 33.9999 18.4887C33.2947 17.8698 30.1067 15.2092 25.3892 15.3935" stroke="black" stroke-width="1.6728" stroke-miterlimit="10"/>
<path d="M15.3487 12.4693C15.3405 12.4333 15.3323 12.3972 15.3245 12.3607" stroke="black" stroke-width="1.6728" stroke-miterlimit="10"/>
<path d="M15.3237 12.3605C15.3141 12.317 15.3047 12.2731 15.2955 12.2292C15.0956 11.2666 14.997 10.2009 15.0709 9.04783C15.3083 5.34994 17.1861 2.85898 17.8999 2C18.5684 2.77936 20.6793 5.43743 20.8282 9.44478C20.9961 13.9652 18.5491 17.0236 17.9496 17.7333C17.508 17.2041 15.9981 15.3071 15.3479 12.469" stroke="black" stroke-width="1.6728" stroke-miterlimit="10"/>
<path d="M20.1872 13.7358C20.7788 12.5127 21.6535 11.2116 22.9493 10.0426C25.7007 7.56072 28.7842 7.08815 29.8949 6.97156C29.8295 7.99615 29.4852 11.373 26.7942 14.3461C23.7586 17.6999 19.8717 18.1813 18.9468 18.2708" stroke="black" stroke-width="1.6728" stroke-miterlimit="10"/>
<path d="M15.2957 12.2295C14.779 11.4406 14.1298 10.6516 13.3133 9.9152C10.5619 7.43328 7.47841 6.96071 6.36768 6.84412C6.43308 7.8687 6.77734 11.2456 9.46837 14.2186C12.504 17.5724 16.3909 18.0539 17.3158 18.1434C17.3141 18.1209 17.3121 18.0967 17.3099 18.0706" stroke="black" stroke-width="1.6728" stroke-miterlimit="10"/>
</svg>
