<svg width="25" height="24" viewBox="0 0 25 24" fill="none" xmlns="http://www.w3.org/2000/svg">
<path d="M2.5 3L2.76491 3.0883C4.08495 3.52832 4.74497 3.74832 5.12248 4.2721C5.5 4.79587 5.5 5.49159 5.5 6.88304V9.5C5.5 12.3284 5.5 13.7426 6.37868 14.6213C7.25736 15.5 8.67157 15.5 11.5 15.5H19.5" stroke="#1C274C" stroke-linecap="round"/>
<path d="M8 18C8.82843 18 9.5 18.6716 9.5 19.5C9.5 20.3284 8.82843 21 8 21C7.17157 21 6.5 20.3284 6.5 19.5C6.5 18.6716 7.17157 18 8 18Z" stroke="#1C274C"/>
<path d="M17 18.0001C17.8284 18.0001 18.5 18.6716 18.5 19.5001C18.5 20.3285 17.8284 21.0001 17 21.0001C16.1716 21.0001 15.5 20.3285 15.5 19.5001C15.5 18.6716 16.1716 18.0001 17 18.0001Z" stroke="#1C274C"/>
<path d="M5.5 6H16.9504C19.0054 6 20.0328 6 20.4775 6.67426C20.9221 7.34853 20.5173 8.29294 19.7078 10.1818L19.2792 11.1818C18.9013 12.0636 18.7123 12.5045 18.3366 12.7523C17.9609 13 17.4812 13 16.5218 13H5.5" stroke="#1C274C"/>
</svg>
