<svg width="36" height="23" viewBox="0 0 36 23" fill="none" xmlns="http://www.w3.org/2000/svg">
<path d="M17.727 17.8659C16.9647 18.5536 14.3603 20.7305 10.358 20.9796C5.84325 21.2607 2.72449 18.8911 2 18.3095C2.70525 17.6906 5.89327 15.03 10.6107 15.2143" fill="#241601"/>
<path d="M17.727 17.8659C16.9647 18.5536 14.3603 20.7305 10.358 20.9796C5.84325 21.2607 2.72449 18.8911 2 18.3095C2.70525 17.6906 5.89327 15.03 10.6107 15.2143" stroke="black" stroke-width="1.6728" stroke-miterlimit="10"/>
<path d="M18.2734 18.045C19.0357 18.7326 21.6401 20.9096 25.6424 21.1587C30.1572 21.4397 33.2759 19.0702 34.0004 18.4886C33.2952 17.8697 30.1071 15.2091 25.3897 15.3934" fill="#241601"/>
<path d="M18.2734 18.045C19.0357 18.7326 21.6401 20.9096 25.6424 21.1587C30.1572 21.4397 33.2759 19.0702 34.0004 18.4886C33.2952 17.8697 30.1071 15.2091 25.3897 15.3934" stroke="black" stroke-width="1.6728" stroke-miterlimit="10"/>
<path d="M15.3485 12.4693C15.3403 12.4333 15.3321 12.3972 15.3242 12.3607L15.3485 12.4693Z" fill="#241601"/>
<path d="M15.3485 12.4693C15.3403 12.4333 15.3321 12.3972 15.3242 12.3607" stroke="black" stroke-width="1.6728" stroke-miterlimit="10"/>
<path d="M15.3232 12.3605C15.3136 12.317 15.3043 12.2731 15.2951 12.2292C15.0952 11.2666 14.9965 10.2009 15.0704 9.04783C15.3078 5.34994 17.1857 2.85898 17.8994 2C18.5679 2.77936 20.6788 5.43743 20.8277 9.44478C20.9956 13.9652 18.5486 17.0236 17.9491 17.7333C17.5075 17.2041 15.9976 15.3071 15.3474 12.469" fill="#241601"/>
<path d="M15.3232 12.3605C15.3136 12.317 15.3043 12.2731 15.2951 12.2292C15.0952 11.2666 14.9965 10.2009 15.0704 9.04783C15.3078 5.34994 17.1857 2.85898 17.8994 2C18.5679 2.77936 20.6788 5.43743 20.8277 9.44478C20.9956 13.9652 18.5486 17.0236 17.9491 17.7333C17.5075 17.2041 15.9976 15.3071 15.3474 12.469" stroke="black" stroke-width="1.6728" stroke-miterlimit="10"/>
<path d="M20.1867 13.7357C20.7783 12.5126 21.653 11.2115 22.9488 10.0425C25.7002 7.56059 28.7837 7.08803 29.8944 6.97144C29.829 7.99602 29.4847 11.3729 26.7937 14.346C23.7581 17.6998 19.8712 18.1812 18.9463 18.2707" fill="#241601"/>
<path d="M20.1867 13.7357C20.7783 12.5126 21.653 11.2115 22.9488 10.0425C25.7002 7.56059 28.7837 7.08803 29.8944 6.97144C29.829 7.99602 29.4847 11.3729 26.7937 14.346C23.7581 17.6998 19.8712 18.1812 18.9463 18.2707" stroke="black" stroke-width="1.6728" stroke-miterlimit="10"/>
<path d="M15.2952 12.2294C14.7785 11.4405 14.1293 10.6514 13.3128 9.91508C10.5614 7.43315 7.47793 6.96059 6.36719 6.84399C6.43259 7.86858 6.77686 11.2455 9.46788 14.2185C12.5035 17.5723 16.3904 18.0537 17.3153 18.1432C17.3136 18.1208 17.3116 18.0966 17.3095 18.0705" fill="#241601"/>
<path d="M15.2952 12.2294C14.7785 11.4405 14.1293 10.6514 13.3128 9.91508C10.5614 7.43315 7.47793 6.96059 6.36719 6.84399C6.43259 7.86858 6.77686 11.2455 9.46788 14.2185C12.5035 17.5723 16.3904 18.0537 17.3153 18.1432C17.3136 18.1208 17.3116 18.0966 17.3095 18.0705" stroke="black" stroke-width="1.6728" stroke-miterlimit="10"/>
</svg>
