<svg width="512" height="512" viewBox="0 0 512 512" fill="none" xmlns="http://www.w3.org/2000/svg">
<g clip-path="url(#clip0_738_17)">
<path d="M302.998 512.998C202.023 512.998 101.547 512.998 1.03516 512.998C1.03516 342.398 1.03516 171.797 1.03516 1.09766C171.557 1.09766 342.116 1.09766 512.837 1.09766C512.837 171.665 512.837 342.332 512.837 512.998C443.131 512.998 373.315 512.998 302.998 512.998ZM250.737 141.003C251.343 139.738 251.949 138.472 252.888 136.56C252.921 109.323 252.979 82.0853 252.972 54.8478C252.97 45.8873 252.802 36.9269 253.011 27.2826C249.983 20.9665 246.825 19.7427 240.656 22.3585C239.634 22.7918 238.41 22.7222 237.308 22.9973C232.313 24.2436 227.183 25.6273 225.429 31.2082C224.173 35.2032 223.83 39.4782 222.965 43.6041C220.769 54.0773 218.721 64.5884 216.207 74.9858C214.105 83.6806 211.522 92.2647 208.975 100.845C206.204 110.183 203.361 119.503 200.308 128.751C197.006 138.752 193.541 148.703 189.933 158.599C185.819 169.885 181.463 181.084 177.221 192.324C173.81 201.361 169.787 210.225 167.143 219.481C162.428 235.991 160.463 252.967 160.96 270.18C160.994 271.339 161.033 272.525 160.844 273.661C158.918 285.214 157.143 296.797 154.938 308.297C152.001 323.613 146.345 338.059 137.598 350.866C133.819 356.399 132.324 360.398 134.792 367.001C140.377 381.944 145.221 397.171 150.786 412.14C153.185 418.594 154.84 425.322 157.148 431.814C158.355 435.209 160.244 438.361 161.813 441.599C166.714 439.003 170.531 436.756 174.531 434.903C187.942 428.693 201.411 422.609 214.87 416.505C226.352 411.297 238.386 406.946 246.741 395.811C246.792 395.203 246.842 394.596 247.163 393.758C247.163 393.758 247.176 393.403 247.759 393.022C248.126 392.012 248.494 391.002 249.146 389.772C249.146 389.772 249.192 389.414 249.733 389.092C250.101 387.39 250.47 385.688 251.133 383.771C251.133 383.771 251.193 383.411 251.745 383.065C252.216 381.257 253.097 379.449 253.099 377.64C253.175 302.38 253.174 227.119 253.179 151.858C253.18 146.632 251.276 145.65 245.249 148.186C244.864 148.491 244.478 148.796 243.501 148.977C242.546 149.591 241.592 150.205 240.271 150.827C240.271 150.827 240.018 151.092 239.427 151.115C238.951 151.455 238.476 151.796 237.294 152.134C229.418 157.82 231.523 167.181 229.054 174.84C227.866 178.525 227.668 182.525 226.954 186.37C225.441 194.523 224.036 202.702 222.299 210.808C220.727 218.149 219.138 225.522 216.898 232.674C213.765 242.681 210.084 252.521 206.433 262.357C206.084 263.295 204.283 263.693 203.156 264.342C202.471 262.963 200.897 261.284 201.245 260.253C203.898 252.378 207.126 244.697 209.773 236.82C211.838 230.674 213.481 224.371 215.024 218.067C216.263 213.005 217.101 207.844 218.062 202.716C219.731 193.806 221.394 184.894 222.986 175.97C223.817 171.317 223.942 166.455 225.408 162.025C226.61 158.392 229.315 155.254 231.367 151.905C235.192 145.662 241.894 143.692 248.64 140.844C249.099 140.796 249.559 140.747 250.737 141.003ZM270.369 142.626C272.3 143.526 274.458 144.126 276.119 145.383C281.706 149.607 287.469 153.845 288.962 161.327C290.304 168.052 291.347 174.836 292.573 181.585C293.328 185.739 294.224 189.868 294.978 194.022C296.379 201.731 297.43 209.518 299.177 217.146C300.732 223.935 302.885 230.601 305.041 237.234C307.567 245.003 310.443 252.657 313.003 260.414C313.375 261.54 312.834 262.966 312.715 264.254C311.451 264.092 309.649 264.397 309.029 263.679C307.427 261.826 305.93 259.666 305.135 257.37C302.656 250.209 300.323 242.984 298.302 235.681C295.699 226.274 293.27 216.808 291.125 207.286C289.944 202.05 289.592 196.633 288.698 191.325C287.562 184.581 286.595 177.779 284.922 171.161C283.377 165.047 284.426 157.739 278.051 153.54C275.079 151.583 272.006 149.691 268.763 148.257C263.586 145.968 261.304 147.566 260.825 153.406C260.717 154.731 260.78 156.07 260.78 157.402C260.779 229.056 260.707 300.71 260.861 372.363C260.882 382.473 264.607 391.656 271.073 399.475C276.987 406.628 285.361 410.16 293.546 413.925C310.612 421.774 327.634 429.718 344.687 437.595C347.761 439.015 350.897 440.302 353.903 441.606C358.563 428.559 362.873 416.674 367.052 404.744C371.549 391.906 376.119 379.087 380.214 366.12C381.212 362.957 383.396 359.8 380.564 355.669C375.468 348.236 370.629 340.421 367.117 332.157C361.618 319.218 358.111 305.614 356.952 291.45C355.935 279.037 353.808 266.698 353.184 254.275C352.591 242.477 351.149 230.973 347.155 219.85C341.687 204.62 336.225 189.388 330.629 174.206C327.6 165.989 323.99 157.976 321.199 149.684C318.187 140.736 316.017 131.508 313.126 122.515C309.987 112.751 305.979 103.248 303.187 93.3931C299.663 80.9574 296.918 68.2978 293.979 55.7018C292.801 50.6541 291.672 45.5554 291.095 40.4154C289.91 29.8546 287.194 25.8861 278.484 23.3339C276.459 22.7405 274.26 22.6058 272.351 21.7776C267.871 19.8351 264.513 21.084 261.732 26.7056C261.435 28.4535 260.891 30.2 260.882 31.9494C260.812 44.7633 260.851 57.5778 260.852 70.3921C260.854 92.1931 260.801 113.994 260.956 135.794C260.969 137.567 261.94 140.098 263.288 140.908C265.091 141.991 267.698 141.736 270.369 142.626ZM381.388 477.041C385.977 478.644 390.618 480.116 395.147 481.875C406.245 486.184 417.276 490.665 428.4 494.904C428.983 495.127 430.508 493.93 430.996 493.058C431.506 492.148 431.061 490.751 431.428 489.706C437.592 472.15 443.886 454.64 450.007 437.069C454.571 423.967 458.791 410.745 463.422 397.668C467.043 387.443 471.219 377.414 474.742 367.158C475.331 365.44 474.48 361.811 473.202 361.137C469.538 359.204 465.293 358.39 461.31 357.037C451.337 353.648 441.293 350.443 431.446 346.716C421.97 343.13 412.748 338.875 403.29 335.236C402.253 334.837 399.49 336.222 399.062 337.357C394.644 349.095 390.526 360.947 386.354 372.777C381.396 386.836 376.433 400.893 371.535 414.972C366.205 430.297 360.941 445.644 355.663 460.987C353.995 465.836 355.456 467.582 360.265 469.119C367.173 471.326 373.831 474.317 381.388 477.041ZM151.177 470.91C154.14 469.643 157.103 468.376 160.45 466.945C159.988 465.197 159.636 463.458 159.069 461.793C155.724 451.959 152.368 442.128 148.942 432.322C143.849 417.746 138.724 403.181 133.558 388.631C130.12 378.947 126.516 369.322 123.125 359.622C120.675 352.613 118.404 345.541 116.151 338.465C114.949 334.692 112.892 333.837 109.479 335.94C107.675 337.052 105.77 338.073 103.792 338.82C93.5218 342.696 83.2361 346.533 72.9104 350.257C66.3874 352.609 59.7208 354.573 53.2384 357.027C48.1956 358.936 43.3377 361.333 38.1795 363.61C39.4324 365.722 40.2068 366.645 40.5762 367.709C46.0941 383.591 51.6032 399.477 57.021 415.394C61.1001 427.378 64.9876 439.427 69.0695 451.41C72.4052 461.202 75.7968 470.979 79.3712 480.686C81.2245 485.719 83.5281 490.586 85.6093 495.484C91.306 493.037 95.8862 490.852 100.621 489.08C112.554 484.616 124.551 480.326 136.533 475.994C141.144 474.326 145.782 472.733 151.177 470.91Z" fill="white"/>
<path d="M262.121 25.9261C264.513 21.0845 267.871 19.8356 272.351 21.7781C274.26 22.6063 276.459 22.741 278.484 23.3345C287.193 25.8866 289.91 29.8551 291.095 40.4159C291.672 45.5559 292.801 50.6546 293.979 55.7023C296.918 68.2983 299.663 80.9579 303.186 93.3936C305.978 103.248 309.987 112.751 313.126 122.516C316.017 131.508 318.187 140.737 321.199 149.685C323.99 157.977 327.6 165.989 330.629 174.206C336.225 189.389 341.687 204.621 347.155 219.85C351.149 230.974 352.591 242.477 353.184 254.276C353.808 266.698 355.935 279.038 356.952 291.45C358.111 305.614 361.618 319.219 367.117 332.157C370.629 340.422 375.468 348.237 380.563 355.669C383.396 359.801 381.212 362.957 380.213 366.12C376.119 379.088 371.549 391.907 367.052 404.744C362.873 416.675 358.563 428.559 353.903 441.606C350.897 440.302 347.761 439.015 344.687 437.596C327.634 429.718 310.612 421.775 293.546 413.925C285.361 410.161 276.987 406.629 271.073 399.476C264.607 391.657 260.882 382.474 260.861 372.364C260.707 300.711 260.779 229.057 260.78 157.403C260.78 156.07 260.717 154.731 260.825 153.407C261.304 147.566 263.586 145.968 268.763 148.257C272.006 149.691 275.079 151.583 278.05 153.54C284.426 157.74 283.377 165.048 284.922 171.162C286.595 177.779 287.562 184.581 288.698 191.326C289.592 196.633 289.944 202.051 291.125 207.287C293.27 216.808 295.699 226.274 298.302 235.682C300.323 242.985 302.656 250.21 305.135 257.371C305.93 259.666 307.427 261.826 309.029 263.679C309.649 264.397 311.451 264.093 312.715 264.254C312.834 262.967 313.374 261.54 313.003 260.415C310.443 252.657 307.567 245.003 305.041 237.235C302.884 230.601 300.732 223.935 299.177 217.146C297.429 209.518 296.379 201.732 294.978 194.023C294.224 189.869 293.328 185.74 292.573 181.586C291.347 174.837 290.304 168.052 288.962 161.327C287.469 153.846 281.705 149.607 276.119 145.383C274.458 144.127 272.3 143.527 270.02 142.027C266.411 139.249 262.702 138.235 262.778 132.569C263.238 97.8505 263.184 63.1246 263.239 28.401C263.24 27.5766 262.51 26.7511 262.121 25.9261Z" fill="#FD8A00"/>
<path d="M251.196 383.411C251.196 383.411 251.137 383.771 250.672 384.059C249.87 386.037 249.533 387.726 249.196 389.415C249.196 389.415 249.149 389.772 248.705 390.036C247.9 391.335 247.539 392.369 247.179 393.403C247.179 393.403 247.167 393.758 246.799 393.941C246.343 394.772 246.253 395.42 246.164 396.069C238.389 406.947 226.355 411.297 214.873 416.505C201.414 422.609 187.945 428.693 174.534 434.903C170.534 436.756 166.717 439.003 161.816 441.599C160.247 438.361 158.358 435.209 157.151 431.814C154.843 425.322 153.188 418.594 150.789 412.14C145.224 397.171 140.38 381.944 134.795 367.001C132.327 360.398 133.822 356.4 137.602 350.866C146.348 338.06 152.004 323.613 154.941 308.297C157.146 296.797 158.921 285.214 160.847 273.661C161.036 272.525 160.997 271.34 160.963 270.18C160.466 252.967 162.431 235.991 167.146 219.482C169.79 210.225 173.813 201.361 177.224 192.324C181.467 181.084 185.822 169.885 189.937 158.599C193.544 148.704 197.009 138.752 200.311 128.751C203.365 119.503 206.208 110.183 208.979 100.846C211.525 92.2649 214.108 83.6808 216.21 74.9861C218.725 64.5887 220.772 54.0775 222.968 43.6044C223.833 39.4785 224.176 35.2034 225.432 31.2085C227.186 25.6275 232.316 24.2438 237.311 22.9976C238.413 22.7225 239.637 22.7921 240.659 22.3587C246.828 19.743 249.986 20.9667 252.679 27.4687C252.202 27.5679 252.07 27.4451 251.917 27.4046C251.767 27.365 251.455 27.3949 251.453 27.4189C251.286 29.0442 251.017 30.672 251.016 32.2997C250.991 65.2647 251.081 98.2304 250.864 131.194C250.843 134.388 248.965 137.57 247.949 140.758C241.897 143.692 235.195 145.662 231.37 151.905C229.318 155.254 226.613 158.392 225.411 162.025C223.946 166.455 223.82 171.317 222.989 175.97C221.397 184.894 219.734 193.806 218.065 202.716C217.104 207.844 216.266 213.006 215.027 218.068C213.484 224.371 211.842 230.674 209.776 236.82C207.129 244.697 203.901 252.378 201.248 260.253C200.9 261.284 202.475 262.963 203.159 264.342C204.286 263.693 206.088 263.295 206.436 262.357C210.087 252.522 213.768 242.682 216.902 232.674C219.141 225.522 220.73 218.149 222.303 210.809C224.039 202.702 225.444 194.524 226.958 186.37C227.671 182.525 227.869 178.525 229.057 174.84C231.526 167.181 229.421 157.82 237.86 152.234C238.956 151.92 239.489 151.506 240.021 151.092C240.021 151.092 240.274 150.827 240.769 150.844C242.207 150.274 243.151 149.687 244.095 149.101C244.481 148.796 244.867 148.491 245.95 148.32C251.265 149.134 251.09 152.549 251.087 156.01C251.058 191.828 251.053 227.646 251.074 263.464C251.097 303.446 251.154 343.428 251.196 383.411Z" fill="#FD8A00"/>
<path d="M380.991 477.009C373.83 474.319 367.173 471.328 360.265 469.12C355.456 467.583 353.995 465.837 355.663 460.988C360.94 445.646 366.205 430.298 371.535 414.974C376.432 400.894 381.396 386.837 386.353 372.779C390.525 360.948 394.643 349.097 399.062 337.359C399.489 336.224 402.253 334.839 403.29 335.238C412.748 338.877 421.97 343.132 431.446 346.718C441.293 350.444 451.337 353.65 461.31 357.038C465.293 358.392 469.537 359.206 473.202 361.139C474.48 361.813 475.331 365.442 474.741 367.16C471.219 377.416 467.042 387.445 463.422 397.669C458.791 410.747 454.571 423.969 450.007 437.07C443.886 454.641 437.592 472.151 431.428 489.707C431.061 490.753 431.506 492.15 430.996 493.06C430.508 493.932 428.982 495.128 428.399 494.906C417.275 490.667 406.244 486.186 395.147 481.876C390.618 480.118 385.977 478.645 380.991 477.009Z" fill="#FD8A00"/>
<path d="M150.793 471.008C145.782 472.733 141.144 474.326 136.533 475.993C124.551 480.326 112.554 484.616 100.621 489.08C95.8863 490.851 91.3062 493.037 85.6094 495.484C83.5283 490.586 81.2247 485.719 79.3713 480.686C75.7969 470.979 72.4054 461.202 69.0697 451.41C64.9877 439.427 61.1002 427.378 57.0211 415.394C51.6033 399.477 46.0943 383.591 40.5764 367.708C40.2069 366.645 39.4326 365.722 38.1797 363.61C43.3378 361.333 48.1957 358.936 53.2385 357.027C59.721 354.572 66.3876 352.609 72.9106 350.257C83.2362 346.532 93.522 342.696 103.792 338.82C105.77 338.073 107.675 337.052 109.479 335.94C112.892 333.836 114.949 334.691 116.151 338.465C118.405 345.54 120.675 352.613 123.125 359.622C126.516 369.322 130.121 378.947 133.558 388.63C138.724 403.181 143.85 417.746 148.942 432.322C152.368 442.128 155.724 451.959 159.069 461.792C159.636 463.458 159.988 465.197 160.45 466.945C157.104 468.376 154.14 469.643 150.793 471.008Z" fill="#FD8A00"/>
<path d="M251.47 383.241C251.151 343.431 251.095 303.449 251.072 263.467C251.051 227.648 251.056 191.83 251.085 156.012C251.088 152.551 251.263 149.136 246.32 148.295C251.277 145.653 253.18 146.635 253.18 151.861C253.174 227.122 253.176 302.383 253.099 377.643C253.098 379.452 252.217 381.259 251.47 383.241Z" fill="#E18200"/>
<path d="M261.926 26.3164C262.51 26.7514 263.24 27.5769 263.239 28.4013C263.184 63.1249 263.238 97.8508 262.777 132.57C262.702 138.235 266.411 139.249 269.815 141.742C267.698 141.737 265.091 141.992 263.288 140.908C261.94 140.099 260.969 137.568 260.956 135.795C260.801 113.995 260.854 92.1939 260.852 70.3929C260.85 57.5786 260.812 44.7641 260.882 31.9502C260.891 30.2008 261.435 28.4543 261.926 26.3164Z" fill="#E38900"/>
<path d="M248.293 140.802C248.962 137.571 250.84 134.389 250.861 131.195C251.078 98.2318 250.988 65.2661 251.013 32.3011C251.014 30.6734 251.283 29.0456 251.45 27.4203C251.452 27.3963 251.764 27.3664 251.914 27.406C252.067 27.4465 252.199 27.5693 252.525 27.8121C252.802 36.9285 252.97 45.889 252.972 54.8494C252.979 82.0869 252.921 109.324 252.538 137.214C251.465 138.811 250.741 139.756 250.018 140.701C249.559 140.749 249.099 140.797 248.293 140.802Z" fill="#FF9B00"/>
<path d="M249.465 389.254C249.532 387.726 249.869 386.037 250.524 384.168C250.473 385.689 250.104 387.391 249.465 389.254Z" fill="#E18200"/>
<path d="M243.796 149.039C243.148 149.687 242.204 150.274 240.949 150.84C241.592 150.206 242.546 149.591 243.796 149.039Z" fill="#E18200"/>
<path d="M250.379 140.855C250.743 139.758 251.466 138.813 252.373 137.539C251.951 138.476 251.344 139.741 250.379 140.855Z" fill="#FD8A00"/>
<path d="M247.469 393.214C247.537 392.371 247.898 391.337 248.56 390.148C248.495 391.004 248.128 392.014 247.469 393.214Z" fill="#E18200"/>
<path d="M246.455 395.942C246.254 395.423 246.343 394.775 246.664 394.059C246.846 394.598 246.795 395.206 246.455 395.942Z" fill="#E18200"/>
<path d="M239.723 151.105C239.486 151.508 238.953 151.922 238.211 152.238C238.476 151.798 238.952 151.457 239.723 151.105Z" fill="#E18200"/>
</g>
<defs>
<clipPath id="clip0_738_17">
<rect width="512" height="512" fill="white"/>
</clipPath>
</defs>
</svg>
