<?xml version="1.0" standalone="no"?>
<!DOCTYPE svg PUBLIC "-//W3C//DTD SVG 20010904//EN"
 "http://www.w3.org/TR/2001/REC-SVG-20010904/DTD/svg10.dtd">
<svg version="1.0" xmlns="http://www.w3.org/2000/svg"
 width="79.000000pt" height="79.000000pt" viewBox="0 0 79.000000 79.000000"
 preserveAspectRatio="xMidYMid meet">

<g transform="translate(0.000000,79.000000) scale(0.100000,-0.100000)"
fill="#000000" stroke="none">
<path d="M347 762 c-8 -9 -17 -42 -20 -74 -3 -31 -21 -103 -40 -160 -19 -56
-38 -123 -41 -146 -4 -24 -13 -60 -21 -80 -14 -31 -17 -33 -28 -19 -11 15 -18
15 -87 -11 -50 -19 -74 -33 -72 -43 6 -27 73 -204 81 -211 4 -5 42 4 84 18 62
21 76 29 74 45 -1 14 14 28 58 53 l61 33 59 -33 c45 -25 59 -38 58 -53 -2 -16
11 -24 74 -45 42 -14 80 -23 85 -18 14 14 86 217 79 224 -3 3 -37 18 -76 33
-65 24 -70 25 -82 9 -11 -16 -14 -13 -28 19 -8 21 -19 63 -24 95 -5 31 -23 97
-40 146 -18 49 -34 115 -38 147 -3 33 -12 64 -21 71 -23 19 -78 19 -95 0z m33
-79 c0 -46 -5 -72 -16 -84 -8 -9 -24 -59 -34 -110 -23 -110 -23 -109 -10 -109
10 0 24 42 44 140 14 64 14 61 15 -131 1 -147 -2 -199 -11 -206 -7 -5 -34 -22
-60 -36 l-47 -27 -21 56 -21 56 21 43 c11 24 25 68 30 98 5 31 22 96 39 144
17 48 35 121 42 161 7 39 16 72 20 72 5 0 9 -30 9 -67z m55 25 c11 -77 27
-140 52 -202 13 -33 28 -89 34 -125 5 -35 19 -82 31 -104 22 -43 22 -41 -13
-134 l-8 -22 -56 31 c-31 17 -59 36 -61 42 -2 6 -3 97 -2 201 3 184 3 188 15
125 20 -103 33 -140 48 -140 11 0 12 6 5 24 -5 14 -16 62 -25 107 -9 50 -21
87 -30 92 -11 6 -15 27 -15 77 0 78 15 94 25 28z m-247 -465 c5 -16 21 -59 36
-96 l26 -68 -33 -14 c-83 -35 -81 -36 -116 62 -17 48 -31 93 -31 98 0 8 76 41
102 44 3 1 10 -11 16 -26z m502 2 c40 -15 40 -11 -2 -123 -34 -92 -32 -90
-110 -58 l-36 15 36 96 c39 105 30 99 112 70z"/>
</g>
</svg>
