<svg width="14" height="17" viewBox="0 0 14 17" fill="none" xmlns="http://www.w3.org/2000/svg">
<path fill-rule="evenodd" clip-rule="evenodd" d="M3.09082 7.20036C3.09082 6.16367 3.50265 5.16943 4.2357 4.43638C4.96875 3.70333 5.96298 3.2915 6.99968 3.2915C8.03637 3.2915 9.0306 3.70333 9.76365 4.43638C10.4967 5.16943 10.9085 6.16367 10.9085 7.20036C10.9085 8.23705 10.4967 9.23129 9.76365 9.96434C9.0306 10.6974 8.03637 11.1092 6.99968 11.1092C5.96298 11.1092 4.96875 10.6974 4.2357 9.96434C3.50265 9.23129 3.09082 8.23705 3.09082 7.20036ZM6.99968 4.52588C6.29036 4.52588 5.6101 4.80765 5.10853 5.30922C4.60697 5.81078 4.3252 6.49104 4.3252 7.20036C4.3252 7.90968 4.60697 8.58994 5.10853 9.0915C5.6101 9.59307 6.29036 9.87484 6.99968 9.87484C7.70899 9.87484 8.38926 9.59307 8.89082 9.0915C9.39238 8.58994 9.67416 7.90968 9.67416 7.20036C9.67416 6.49104 9.39238 5.81078 8.89082 5.30922C8.38926 4.80765 7.70899 4.52588 6.99968 4.52588Z" fill="black"/>
<path fill-rule="evenodd" clip-rule="evenodd" d="M0.0249552 6.25993C0.165983 4.554 0.943175 2.96343 2.20231 1.80384C3.46145 0.644242 5.1105 0.00037507 6.82225 0H7.17775C8.8895 0.00037507 10.5386 0.644242 11.7977 1.80384C13.0568 2.96343 13.834 4.554 13.975 6.25993C14.1319 8.16032 13.5448 10.0474 12.3374 11.5233L8.3932 16.3464C8.2244 16.5528 8.01185 16.7192 7.7709 16.8334C7.52996 16.9476 7.26664 17.0069 7 17.0069C6.73336 17.0069 6.47004 16.9476 6.2291 16.8334C5.98815 16.7192 5.7756 16.5528 5.6068 16.3464L1.66256 11.5233C0.455204 10.0474 -0.13192 8.16032 0.0249552 6.25993ZM6.82225 1.23438C5.42051 1.23497 4.07019 1.7624 3.03914 2.71204C2.0081 3.66169 1.37165 4.96418 1.25604 6.36115C1.12543 7.94271 1.61401 9.5132 2.61879 10.7415L6.56303 15.5655C6.61605 15.6304 6.68284 15.6827 6.75855 15.7186C6.83427 15.7545 6.91702 15.7731 7.00082 15.7731C7.08462 15.7731 7.16738 15.7545 7.24309 15.7186C7.31881 15.6827 7.38559 15.6304 7.43861 15.5655L11.3829 10.7415C12.387 9.51295 12.875 7.94249 12.744 6.36115C12.6283 4.96404 11.9918 3.66143 10.9606 2.71177C9.92933 1.7621 8.57881 1.23476 7.17693 1.23438H6.82225Z" fill="black"/>
</svg>
