<svg width="17" height="22" viewBox="0 0 17 22" fill="none" xmlns="http://www.w3.org/2000/svg">
<path d="M13.5 11.0833H15.25C15.4489 11.0833 15.6397 11.1623 15.7803 11.3029C15.921 11.4436 16 11.6343 16 11.8333V20.3333C16 20.5322 15.921 20.7229 15.7803 20.8636C15.6397 21.0042 15.4489 21.0833 15.25 21.0833H1.75C1.55109 21.0833 1.36032 21.0042 1.21967 20.8636C1.07902 20.7229 1 20.5322 1 20.3333V11.8333C1 11.6343 1.07902 11.4436 1.21967 11.3029C1.36032 11.1623 1.55109 11.0833 1.75 11.0833H3.5M13.5 11.0833V6.08325C13.5 4.417 12.5 1.08325 8.5 1.08325C4.5 1.08325 3.5 4.417 3.5 6.08325V11.0833M13.5 11.0833H3.5" stroke="black" stroke-width="1.25" stroke-linecap="round" stroke-linejoin="round"/>
</svg>
