<svg width="19" height="19" viewBox="0 0 19 19" fill="none" xmlns="http://www.w3.org/2000/svg">
<path d="M16.1054 13.5821H14.801C14.7119 13.5821 14.6284 13.621 14.5728 13.6897C14.4429 13.8474 14.3037 13.9995 14.1572 14.1443C13.5576 14.7444 12.8475 15.2226 12.066 15.5526C11.2564 15.8945 10.3862 16.07 9.50735 16.0684C8.61858 16.0684 7.75764 15.894 6.94866 15.5526C6.16718 15.2226 5.45704 14.7444 4.85754 14.1443C4.25696 13.5462 3.77807 12.8373 3.44739 12.0569C3.10412 11.2479 2.93157 10.3888 2.93157 9.50003C2.93157 8.61126 3.10598 7.75218 3.44739 6.94319C3.77766 6.16204 4.25266 5.45882 4.85754 4.85579C5.46242 4.25276 6.16565 3.77776 6.94866 3.44749C7.75764 3.10608 8.61858 2.93167 9.50735 2.93167C10.3961 2.93167 11.2571 3.10423 12.066 3.44749C12.849 3.77776 13.5523 4.25276 14.1572 4.85579C14.3037 5.00237 14.441 5.15452 14.5728 5.31038C14.6284 5.37903 14.7138 5.418 14.801 5.418H16.1054C16.2223 5.418 16.2947 5.28811 16.2297 5.18977C14.8066 2.97806 12.3165 1.51409 9.48694 1.52151C5.04123 1.53265 1.47688 5.14153 1.52141 9.58167C1.56594 13.9513 5.12473 17.4785 9.50735 17.4785C12.3295 17.4785 14.8084 16.0164 16.2297 13.8103C16.2928 13.7119 16.2223 13.5821 16.1054 13.5821ZM17.7549 9.38313L15.122 7.30501C15.0237 7.22708 14.8808 7.29759 14.8808 7.4219V8.83206H9.05461C8.97297 8.83206 8.90617 8.89886 8.90617 8.9805V10.0196C8.90617 10.1012 8.97297 10.168 9.05461 10.168H14.8808V11.5782C14.8808 11.7025 15.0255 11.773 15.122 11.695L17.7549 9.61692C17.7726 9.60304 17.787 9.5853 17.7969 9.56504C17.8067 9.54479 17.8119 9.52256 17.8119 9.50003C17.8119 9.4775 17.8067 9.45527 17.7969 9.43501C17.787 9.41476 17.7726 9.39702 17.7549 9.38313Z" fill="black"/>
</svg>
