<svg width="20" height="20" viewBox="0 0 20 20" fill="none" xmlns="http://www.w3.org/2000/svg">
<path d="M3.3335 15.0003C3.3335 14.1163 3.68469 13.2684 4.30981 12.6433C4.93493 12.0182 5.78277 11.667 6.66683 11.667H13.3335C14.2176 11.667 15.0654 12.0182 15.6905 12.6433C16.3156 13.2684 16.6668 14.1163 16.6668 15.0003C16.6668 15.4424 16.4912 15.8663 16.1787 16.1788C15.8661 16.4914 15.4422 16.667 15.0002 16.667H5.00016C4.55814 16.667 4.13421 16.4914 3.82165 16.1788C3.50909 15.8663 3.3335 15.4424 3.3335 15.0003Z" stroke="black" stroke-width="1.25" stroke-linejoin="round"/>
<path d="M10 8.3335C11.3807 8.3335 12.5 7.21421 12.5 5.8335C12.5 4.45278 11.3807 3.3335 10 3.3335C8.61929 3.3335 7.5 4.45278 7.5 5.8335C7.5 7.21421 8.61929 8.3335 10 8.3335Z" stroke="black" stroke-width="1.25"/>
</svg>
