<svg width="17" height="21" viewBox="0 0 17 21" fill="none" xmlns="http://www.w3.org/2000/svg">
<path d="M0.166748 17.7913V15.708H2.25008V8.41634C2.25008 6.97537 2.68411 5.69499 3.55216 4.5752C4.42022 3.4554 5.54869 2.7219 6.93758 2.37467V1.64551C6.93758 1.21148 7.08949 0.842556 7.39331 0.538737C7.69713 0.234918 8.06605 0.0830078 8.50008 0.0830078C8.93411 0.0830078 9.30303 0.234918 9.60685 0.538737C9.91067 0.842556 10.0626 1.21148 10.0626 1.64551V2.37467C11.4515 2.7219 12.5799 3.4554 13.448 4.5752C14.3161 5.69499 14.7501 6.97537 14.7501 8.41634V15.708H16.8334V17.7913H0.166748ZM8.50008 20.9163C7.92716 20.9163 7.43671 20.7123 7.02873 20.3044C6.62074 19.8964 6.41675 19.4059 6.41675 18.833H10.5834C10.5834 19.4059 10.3794 19.8964 9.97144 20.3044C9.56345 20.7123 9.073 20.9163 8.50008 20.9163ZM4.33341 15.708H12.6667V8.41634C12.6667 7.27051 12.2588 6.28961 11.4428 5.47363C10.6268 4.65766 9.64591 4.24967 8.50008 4.24967C7.35425 4.24967 6.37335 4.65766 5.55737 5.47363C4.7414 6.28961 4.33341 7.27051 4.33341 8.41634V15.708Z" fill="#241601"/>
</svg>
