<svg width="20" height="20" viewBox="0 0 20 20" fill="none" xmlns="http://www.w3.org/2000/svg">
<path d="M15.7785 12.4835C15.5299 12.0863 15.3979 11.6271 15.3976 11.1585V7.68852C15.3976 6.25701 14.829 4.88413 13.8168 3.87191C12.8045 2.85968 11.4317 2.29102 10.0001 2.29102C8.56864 2.29102 7.19576 2.85968 6.18354 3.87191C5.17131 4.88413 4.60265 6.25701 4.60265 7.68852V11.1568C4.60271 11.626 4.47073 12.0858 4.22181 12.4835L3.31515 13.9335C3.23631 14.0597 3.19267 14.2046 3.18876 14.3533C3.18486 14.502 3.22083 14.6491 3.29294 14.7792C3.36505 14.9093 3.47068 15.0177 3.59885 15.0932C3.72701 15.1687 3.87306 15.2085 4.02181 15.2085H15.9785C16.1272 15.2085 16.2733 15.1687 16.4014 15.0932C16.5296 15.0177 16.6352 14.9093 16.7073 14.7792C16.7795 14.6491 16.8154 14.502 16.8115 14.3533C16.8076 14.2046 16.764 14.0597 16.6851 13.9335L15.7785 12.4835Z" stroke="#241601" stroke-width="1.25" stroke-linecap="round" stroke-linejoin="round"/>
<path d="M8.3335 17.7085H11.6668" stroke="#241601" stroke-width="1.25" stroke-linecap="round"/>
</svg>
