<svg width="107" height="107" viewBox="0 0 107 107" fill="none" xmlns="http://www.w3.org/2000/svg">
<g clip-path="url(#clip0_742_16)">
<path d="M47.4653 1.29999C44.932 3.29999 43.9986 5.29999 43.9986 8.49999C43.9986 11.9667 43.332 13.0333 40.932 13.7C36.2653 14.7667 27.332 23.1667 24.532 28.7667C22.932 32.2333 21.8653 38.6333 21.1986 49.3C20.2653 65.9667 17.4653 74.5 9.99864 84.5C4.13197 92.1 5.59864 93.1667 23.1986 93.1667C36.932 93.1667 38.532 93.4333 39.1986 95.5667C40.932 101.033 46.532 104.5 53.332 104.5C60.132 104.5 65.732 101.033 67.4653 95.5667C68.132 93.4333 69.732 93.1667 83.4653 93.1667C101.065 93.1667 102.532 92.1 96.6653 84.5C89.1986 74.5 86.3986 65.9667 85.4653 49.3C84.7986 38.6333 83.732 32.2333 82.132 28.7667C79.332 23.1667 70.3986 14.7667 65.732 13.7C63.332 13.0333 62.6653 11.9667 62.6653 8.49999C62.6653 3.69999 57.732 -1.50001 53.332 -1.50001C51.9986 -1.50001 49.4653 -0.300006 47.4653 1.29999ZM55.9986 7.83333C55.9986 9.56666 55.0653 10.5 53.332 10.5C51.5986 10.5 50.6653 9.56666 50.6653 7.83333C50.6653 6.09999 51.5986 5.16666 53.332 5.16666C55.0653 5.16666 55.9986 6.09999 55.9986 7.83333ZM62.3986 19.3C68.2653 21.7 74.132 27.0333 76.932 32.3667C78.2653 34.9 79.332 42.2333 79.9986 52.3667C80.932 68.7667 83.5986 78.2333 88.932 84.1C90.932 86.3667 89.4653 86.5 53.332 86.5C17.1986 86.5 15.732 86.3667 17.732 84.1C23.0653 78.2333 25.732 68.7667 26.6653 52.3667C27.732 35.1667 29.0653 31.0333 35.5986 24.9C43.332 17.5667 53.1986 15.4333 62.3986 19.3ZM61.0653 94.7667C60.132 97.5667 53.732 99.1667 49.732 97.7C42.7986 95.3 44.532 93.1667 53.332 93.1667C59.332 93.1667 61.4653 93.5667 61.0653 94.7667Z" fill="#FF9500"/>
<path d="M16.9333 15.3348C14.8 18.0015 12 22.8015 10.4 26.1348C7.19997 33.6015 5.7333 45.8681 7.86663 47.2015C10.6666 48.9348 12.9333 45.4681 13.6 38.8015C14.2666 32.0015 18.4 22.6681 22.9333 17.7348C25.7333 14.6681 25.4666 10.6681 22.4 10.6681C21.4666 10.6681 18.9333 12.8015 16.9333 15.3348Z" fill="#FF9500"/>
<path d="M81.7347 12.8015C81.3347 13.8681 82.1347 16.1348 83.7347 17.7348C88.2681 22.6681 92.4014 32.0015 93.0681 38.8015C93.7347 45.4681 96.0014 48.9348 98.8014 47.2015C100.935 45.8681 99.4681 33.6015 96.2681 26.1348C92.9347 18.9348 86.6681 10.6681 84.2681 10.6681C83.3347 10.6681 82.2681 11.6015 81.7347 12.8015Z" fill="#FF9500"/>
</g>
<path d="M39.5 19L54 16L68 19L78.5 33L84.5 62L94 91.5H15L29 33L39.5 19Z" fill="#FF9500"/>
<defs>
<clipPath id="clip0_742_16">
<rect width="106.667" height="106.667" fill="white"/>
</clipPath>
</defs>
</svg>
