<?xml version="1.0" standalone="no"?>
<!DOCTYPE svg PUBLIC "-//W3C//DTD SVG 20010904//EN"
 "http://www.w3.org/TR/2001/REC-SVG-20010904/DTD/svg10.dtd">
<svg version="1.0" xmlns="http://www.w3.org/2000/svg"
 width="80.000000pt" height="80.000000pt" viewBox="0 0 80.000000 80.000000"
 preserveAspectRatio="xMidYMid meet">

<g transform="translate(0.000000,80.000000) scale(0.100000,-0.100000)"
fill="#000000" stroke="none">
<path d="M356 779 c-19 -15 -26 -30 -26 -54 0 -26 -5 -34 -23 -39 -35 -8 -102
-71 -123 -113 -12 -26 -20 -74 -25 -154 -7 -125 -28 -189 -84 -264 -44 -57
-33 -65 99 -65 103 0 115 -2 120 -18 13 -41 55 -67 106 -67 51 0 93 26 106 67
5 16 17 18 120 18 132 0 143 8 99 65 -56 75 -77 139 -84 264 -5 80 -13 128
-25 154 -21 42 -88 105 -123 113 -18 5 -23 13 -23 39 0 36 -37 75 -70 75 -10
0 -29 -9 -44 -21z m64 -49 c0 -13 -7 -20 -20 -20 -13 0 -20 7 -20 20 0 13 7
20 20 20 13 0 20 -7 20 -20z m48 -86 c44 -18 88 -58 109 -98 10 -19 18 -74 23
-150 7 -123 27 -194 67 -238 15 -17 4 -18 -267 -18 -271 0 -282 1 -267 18 40
44 60 115 67 238 8 129 18 160 67 206 58 55 132 71 201 42z m-10 -566 c-7 -21
-55 -33 -85 -22 -52 18 -39 34 27 34 45 0 61 -3 58 -12z"/>
<path d="M127 685 c-16 -20 -37 -56 -49 -81 -24 -56 -35 -148 -19 -158 21 -13
38 13 43 63 5 51 36 121 70 158 21 23 19 53 -4 53 -7 0 -26 -16 -41 -35z"/>
<path d="M613 704 c-3 -8 3 -25 15 -37 34 -37 65 -107 70 -158 5 -50 22 -76
43 -63 16 10 5 102 -19 158 -25 54 -72 116 -90 116 -7 0 -15 -7 -19 -16z"/>
</g>
</svg>
