<svg width="20" height="20" viewBox="0 0 20 20" fill="none" xmlns="http://www.w3.org/2000/svg">
<path d="M8.85418 14.6875H10.8125V8.81252H8.85418V14.6875ZM9.83335 6.85418C10.1108 6.85418 10.3433 6.76035 10.531 6.57267C10.7187 6.385 10.8125 6.15245 10.8125 5.87501C10.8125 5.59758 10.7187 5.36503 10.531 5.17736C10.3433 4.98968 10.1108 4.89585 9.83335 4.89585C9.55592 4.89585 9.32337 4.98968 9.1357 5.17736C8.94802 5.36503 8.85418 5.59758 8.85418 5.87501C8.85418 6.15245 8.94802 6.385 9.1357 6.57267C9.32337 6.76035 9.55592 6.85418 9.83335 6.85418ZM9.83335 19.5834C7.56494 19.0122 5.69228 17.7107 4.21537 15.6789C2.73846 13.6472 2 11.391 2 8.91044V2.93751L9.83335 0L17.6667 2.93751V8.91044C17.6667 11.391 16.9282 13.6472 15.4513 15.6789C13.9744 17.7107 12.1018 19.0122 9.83335 19.5834ZM9.83335 17.5271C11.5306 16.9886 12.9341 15.9115 14.0438 14.2959C15.1535 12.6802 15.7084 10.8851 15.7084 8.91044V4.28386L9.83335 2.08073L3.95834 4.28386V8.91044C3.95834 10.8851 4.5132 12.6802 5.62293 14.2959C6.73265 15.9115 8.13613 16.9886 9.83335 17.5271Z" fill="#241601"/>
</svg>
