<svg width="20" height="20" viewBox="0 0 20 20" fill="none" xmlns="http://www.w3.org/2000/svg">
<g clip-path="url(#clip0_1754_22624)">
<path d="M6.12389 -0.0112445C6.21749 -0.0114145 6.3111 -0.0116171 6.40471 -0.0118495C6.63159 -0.0123165 6.85847 -0.0124178 7.08536 -0.012326C7.27004 -0.0122561 7.45472 -0.0123254 7.6394 -0.012491C7.6658 -0.0125143 7.69219 -0.0125375 7.71939 -0.0125615C7.77304 -0.0126088 7.82669 -0.0126563 7.88033 -0.0127038C8.38229 -0.0131276 8.88424 -0.0130446 9.38619 -0.0128059C9.8439 -0.0126042 10.3016 -0.0130433 10.7593 -0.0137863C11.2309 -0.0145458 11.7024 -0.0148654 12.1739 -0.014719C12.438 -0.0146447 12.7021 -0.0147379 12.9662 -0.0152938C13.2148 -0.015788 13.4634 -0.0157065 13.712 -0.0151996C13.8027 -0.0151078 13.8934 -0.0152118 13.9841 -0.0155365C15.6673 -0.0211211 17.1434 0.536875 18.3593 1.71823C18.4561 1.81831 18.5452 1.92259 18.6328 2.03073C18.6624 2.06674 18.6921 2.10274 18.7227 2.13983C19.3252 2.88629 19.7266 3.7484 19.9218 4.68698C19.9286 4.71886 19.9354 4.75073 19.9424 4.78357C20.0237 5.22751 20.0112 5.67368 20.0107 6.1234C20.0109 6.21701 20.0111 6.31061 20.0113 6.40422C20.0118 6.6311 20.0119 6.85799 20.0118 7.08487C20.0117 7.26955 20.0118 7.45423 20.0119 7.63891C20.012 7.66531 20.012 7.6917 20.012 7.7189C20.0121 7.77255 20.0121 7.8262 20.0122 7.87985C20.0126 8.3818 20.0125 8.88375 20.0123 9.3857C20.0121 9.84341 20.0125 10.3011 20.0132 10.7588C20.014 11.2304 20.0143 11.7019 20.0142 12.1734C20.0141 12.4375 20.0142 12.7016 20.0148 12.9657C20.0152 13.2143 20.0152 13.4629 20.0147 13.7115C20.0146 13.8022 20.0147 13.8929 20.015 13.9837C20.0202 15.5428 19.5585 16.9136 18.5156 18.0854C18.474 18.1358 18.4325 18.1862 18.3911 18.2368C18.2633 18.3844 18.1196 18.5088 17.9687 18.6323C17.9145 18.677 17.9145 18.677 17.8592 18.7226C17.1126 19.3248 16.2509 19.7261 15.3125 19.9214C15.2806 19.9281 15.2487 19.9349 15.2159 19.9419C14.7719 20.0232 14.3258 20.0108 13.8761 20.0102C13.7825 20.0104 13.6888 20.0106 13.5952 20.0108C13.3684 20.0113 13.1415 20.0114 12.9146 20.0113C12.7299 20.0112 12.5452 20.0113 12.3605 20.0115C12.3341 20.0115 12.3078 20.0115 12.2806 20.0115C12.2269 20.0116 12.1733 20.0116 12.1196 20.0117C11.6177 20.0121 11.1157 20.012 10.6138 20.0118C10.156 20.0116 9.69834 20.012 9.24063 20.0128C8.7691 20.0135 8.29756 20.0138 7.82603 20.0137C7.56192 20.0136 7.29782 20.0137 7.03372 20.0143C6.78514 20.0148 6.53656 20.0147 6.28798 20.0142C6.19725 20.0141 6.10652 20.0142 6.0158 20.0145C4.45668 20.0197 3.08581 19.558 1.91404 18.5151C1.86367 18.4735 1.81323 18.432 1.76267 18.3906C1.61507 18.2628 1.49062 18.1191 1.36716 17.9682C1.32245 17.914 1.32245 17.914 1.27683 17.8587C0.674688 17.1121 0.27332 16.2505 0.0780979 15.312C0.071314 15.2801 0.0645302 15.2482 0.0575408 15.2154C-0.023705 14.7715 -0.0112971 14.3253 -0.010756 13.8756C-0.010926 13.782 -0.0111286 13.6884 -0.011361 13.5947C-0.011828 13.3679 -0.0119296 13.141 -0.0118378 12.9141C-0.0117678 12.7294 -0.0118367 12.5447 -0.0120023 12.3601C-0.0120372 12.3205 -0.0120377 12.3205 -0.0120732 12.2801C-0.0121206 12.2264 -0.0121676 12.1728 -0.0122151 12.1191C-0.012639 11.6172 -0.0125563 11.1152 -0.0123176 10.6133C-0.0121159 10.1556 -0.0125551 9.69785 -0.0132981 9.24014C-0.0140576 8.76861 -0.0143767 8.29707 -0.0142303 7.82554C-0.014156 7.56144 -0.0142496 7.29734 -0.0148055 7.03323C-0.0152997 6.78465 -0.0152183 6.53607 -0.0147113 6.28749C-0.0146196 6.19676 -0.0147234 6.10603 -0.0150481 6.01531C-0.0200347 4.51244 0.403922 3.13586 1.40622 1.99167C1.43276 1.9604 1.4593 1.92913 1.48664 1.89691C1.65483 1.70184 1.83145 1.52907 2.03122 1.36667C2.06728 1.33696 2.10333 1.30725 2.14048 1.27664C2.88697 0.674244 3.74893 0.272847 4.68747 0.0776093C4.71935 0.0708255 4.75122 0.0640416 4.78406 0.0570522C5.228 -0.0241936 5.67417 -0.0117856 6.12389 -0.0112445ZM9.96091 3.59323C9.87409 3.76587 9.7874 3.93857 9.7008 4.11132C9.67155 4.16961 9.64228 4.22789 9.61298 4.28615C9.52328 4.46451 9.43444 4.64328 9.34611 4.82233C9.29465 4.92577 9.24217 5.02865 9.18969 5.13158C9.01506 5.47963 8.86153 5.81592 8.758 6.19221C8.60167 6.75247 8.39963 7.43269 7.8906 7.77292C7.1122 8.16869 6.07262 8.1553 5.21875 8.20731C4.79265 8.23347 4.37231 8.28109 3.94986 8.34223C3.92037 8.34638 3.89088 8.35052 3.86049 8.3548C3.77806 8.36648 3.69571 8.37862 3.61339 8.39101C3.56695 8.39799 3.52051 8.40497 3.47266 8.41216C3.3525 8.43128 3.3525 8.43128 3.24216 8.51511C3.39208 8.666 3.54213 8.81675 3.69229 8.96739C3.74324 9.01853 3.79416 9.06971 3.84504 9.12093C3.91864 9.19501 3.99238 9.26897 4.06613 9.3429C4.08845 9.36541 4.11076 9.38793 4.13375 9.41112C4.24925 9.52664 4.36706 9.63726 4.49071 9.74404C4.64814 9.88025 4.79519 10.0247 4.94138 10.1728C4.96794 10.1995 4.9945 10.2262 5.02187 10.2538C5.13405 10.3666 5.24598 10.4796 5.35794 10.5926C5.44036 10.6758 5.5229 10.7588 5.60544 10.8418C5.63019 10.8668 5.65494 10.8919 5.68044 10.9177C5.88248 11.1209 6.09065 11.3166 6.32108 11.4874C6.42547 11.5711 6.49181 11.6431 6.56247 11.7573C6.56554 11.8817 6.56554 11.8817 6.54243 12.0259C6.53834 12.0528 6.53424 12.0797 6.53003 12.1075C6.51575 12.1992 6.5001 12.2907 6.48435 12.3823C6.4732 12.4502 6.46208 12.5182 6.451 12.5862C6.41942 12.7772 6.38646 12.9679 6.35311 13.1586C6.33097 13.2852 6.30902 13.4118 6.28712 13.5384C6.23281 13.8523 6.1782 14.166 6.12357 14.4798C6.07713 14.7465 6.03083 15.0133 5.98471 15.2801C5.96311 15.4047 5.94132 15.5292 5.91953 15.6538C5.90634 15.7299 5.89317 15.8061 5.88 15.8822C5.87392 15.9167 5.86783 15.9512 5.86156 15.9867C5.83506 16.1411 5.81242 16.2874 5.82029 16.4448C6.26604 16.2229 6.71029 15.9983 7.15329 15.771C7.18497 15.7547 7.21665 15.7385 7.24928 15.7217C7.61351 15.5348 7.97652 15.3463 8.33493 15.1484C8.47316 15.0725 8.61152 14.9968 8.74997 14.9214C8.77368 14.9084 8.79738 14.8955 8.82181 14.8821C8.98473 14.7933 9.14815 14.7054 9.31214 14.6186C9.36658 14.5896 9.42088 14.5603 9.47502 14.5307C9.55075 14.4894 9.62696 14.4491 9.70334 14.409C9.74738 14.3854 9.79141 14.3618 9.83678 14.3374C10.0303 14.2734 10.1375 14.347 10.3141 14.4309C10.3556 14.4526 10.3971 14.4742 10.4399 14.4966C10.4627 14.5084 10.4855 14.5202 10.5089 14.5324C10.5827 14.5707 10.6563 14.6093 10.73 14.6479C10.7815 14.6748 10.833 14.7016 10.8846 14.7285C11.0325 14.8056 11.1803 14.883 11.3281 14.9604C11.3951 14.9954 11.4622 15.0304 11.5292 15.0654C11.8647 15.2409 12.1985 15.4197 12.5321 15.5989C12.9263 15.8106 13.3214 16.0207 13.7182 16.2275C13.7602 16.2495 13.8022 16.2714 13.8455 16.294C13.8838 16.3139 13.9221 16.3338 13.9616 16.3543C13.9954 16.3719 14.0291 16.3894 14.0639 16.4075C14.1322 16.4476 14.1322 16.4476 14.1797 16.4448C14.1575 16.1576 14.1214 15.8764 14.071 15.5929C14.0641 15.5532 14.0571 15.5134 14.05 15.4725C14.0351 15.387 14.0201 15.3015 14.0051 15.2161C13.9812 15.0808 13.9577 14.9455 13.9342 14.8102C13.8674 14.4257 13.8003 14.0414 13.7328 13.6571C13.6914 13.4213 13.6504 13.1855 13.6096 12.9497C13.594 12.86 13.5782 12.7703 13.5624 12.6807C13.5402 12.5556 13.5186 12.4305 13.497 12.3054C13.4903 12.2684 13.4837 12.2315 13.4768 12.1934C13.4228 11.8759 13.4228 11.8759 13.4765 11.7182C13.5262 11.6502 13.5262 11.6502 13.589 11.5891C13.6121 11.5663 13.6353 11.5435 13.6591 11.52C13.6835 11.4968 13.7078 11.4736 13.7329 11.4497C13.7562 11.4268 13.7795 11.4039 13.8035 11.3803C13.9225 11.2641 14.0444 11.1524 14.1706 11.0441C14.3302 10.9049 14.4802 10.758 14.6289 10.6074C14.6687 10.5673 14.6687 10.5673 14.7094 10.5265C14.7933 10.442 14.8771 10.3575 14.9609 10.2729C15.0715 10.1613 15.1822 10.0498 15.2929 9.93845C15.3177 9.91338 15.3424 9.8883 15.3679 9.86247C15.5152 9.71439 15.6675 9.57498 15.8255 9.4385C15.927 9.34941 16.0217 9.25556 16.1169 9.15979C16.1355 9.14111 16.1542 9.12242 16.1734 9.10316C16.2316 9.04477 16.2896 8.98624 16.3476 8.92771C16.3876 8.88754 16.4276 8.84739 16.4676 8.80724C16.5644 8.70997 16.6611 8.61257 16.7578 8.51511C16.6365 8.43426 16.602 8.42621 16.4632 8.41973C16.4267 8.41776 16.3903 8.4158 16.3528 8.41378C16.3129 8.4119 16.2729 8.41001 16.2318 8.40807C12.4499 8.19222 12.4499 8.19222 11.7757 7.50326C11.2889 6.95104 11.0765 6.19878 10.9028 5.49834C10.8045 5.10358 10.6299 4.75085 10.441 4.39255C10.3697 4.25643 10.3018 4.11867 10.2337 3.98092C10.1695 3.85133 10.1043 3.72228 10.039 3.59323C10.0133 3.59323 9.98747 3.59323 9.96091 3.59323Z" fill="#EC9111"/>
</g>
<defs>
<clipPath id="clip0_1754_22624">
<rect width="20" height="20" fill="white"/>
</clipPath>
</defs>
</svg>
