<svg width="107" height="107" viewBox="0 0 107 107" fill="none" xmlns="http://www.w3.org/2000/svg">
<g clip-path="url(#clip0_10_13)">
<path d="M16.5335 12C9.46683 14.8 9.3335 16 9.3335 60.9334V102.667L12.6668 104.8C17.2002 107.733 19.0668 106.8 34.2668 93.3334L46.6668 82.5334L60.6668 93.8667C75.3335 105.733 79.2002 107.333 83.0668 102.933C85.0668 100.8 85.3335 95.8667 85.3335 60.9334C85.3335 33.2 84.8002 20.4 83.7335 18C80.6668 11.3334 77.2002 10.6667 47.0668 10.8C31.8668 10.8 18.0002 11.3334 16.5335 12ZM76.0002 20C78.5335 22.5334 78.6668 24.4 78.6668 60.8C78.6668 82.2667 78.1335 98.5334 77.4668 98.1334C76.8002 97.7334 70.4002 92.5334 63.2002 86.6667C54.5335 79.6 48.9335 76 46.6668 76C44.4002 76 39.2002 79.6 30.0002 87.6L16.6668 99.0667L16.2668 60.5334C16.0002 22.5334 16.0002 22 18.8002 19.6C21.3335 17.6 24.8002 17.3334 47.4668 17.3334C71.6002 17.3334 73.4668 17.4667 76.0002 20Z" fill="black"/>
<path d="M15.5 15H81V102L44.5 81L15.5 102V15Z" fill="#181717"/>
</g>
<defs>
<clipPath id="clip0_10_13">
<rect width="106.667" height="106.667" fill="white"/>
</clipPath>
</defs>
</svg>
