<?xml version="1.0" encoding="UTF-8"?>
<svg version="1.1" xmlns="http://www.w3.org/2000/svg" width="107" height="107">
<path d="M0 0 C35.31 0 70.62 0 107 0 C107 35.31 107 70.62 107 107 C71.69 107 36.38 107 0 107 C0 71.69 0 36.38 0 0 Z " fill="#FBFBFB" transform="translate(0,0)"/>
<path d="M0 0 C35.31 0 70.62 0 107 0 C107 35.31 107 70.62 107 107 C71.69 107 36.38 107 0 107 C0 71.69 0 36.38 0 0 Z M13.30996704 13.14227295 C8.27763807 18.57888459 8.84979674 25.93595277 8.82299805 32.90722656 C8.81642685 33.66420837 8.80985565 34.42119019 8.80308533 35.20111084 C8.78353181 37.68095013 8.77173807 40.16072978 8.76171875 42.640625 C8.75764322 43.4910009 8.7535677 44.3413768 8.74936867 45.21752167 C8.72859731 49.70783743 8.71425015 54.19812332 8.70483398 58.68847656 C8.69371164 63.32802422 8.65922038 67.96709991 8.61966228 72.60647964 C8.59358019 76.17690955 8.58515031 79.74722459 8.58155251 83.31774139 C8.57667467 85.02902206 8.56502671 86.7402972 8.54651451 88.45148468 C8.52227272 90.83816422 8.52305842 93.2235877 8.5300293 95.61035156 C8.51721924 96.31792603 8.50440918 97.02550049 8.49121094 97.7545166 C8.52508528 100.92696274 8.60122175 102.57508604 10.81575012 104.93475342 C14.0751479 106.52434368 16.42231054 106.43306819 20 106 C22.83085086 104.40512106 22.83085086 104.40512106 25.3125 102.0625 C26.24964844 101.24523437 27.18679687 100.42796875 28.15234375 99.5859375 C29.56193359 98.30589844 29.56193359 98.30589844 31 97 C31.90878906 96.18789062 32.81757812 95.37578125 33.75390625 94.5390625 C35.41436046 93.04935544 37.06765721 91.55159899 38.7109375 90.04296875 C41.07317846 87.93468885 43.5113576 85.95661814 46 84 C48.8561761 85.3234885 51.16371497 86.80893038 53.57421875 88.828125 C54.23752197 89.37831299 54.9008252 89.92850098 55.58422852 90.49536133 C56.27830811 91.07439209 56.9723877 91.65342285 57.6875 92.25 C67.27532297 100.90117554 67.27532297 100.90117554 78.875 105.625 C81.98198223 105.28621156 81.98198223 105.28621156 83.67105103 103.45481873 C85.51711429 100.04479263 85.41902225 96.87878078 85.38818359 93.09790039 C85.39344055 92.30555496 85.39869751 91.51320953 85.40411377 90.69685364 C85.41730655 88.08025336 85.40857757 85.46426261 85.3984375 82.84765625 C85.40045865 81.02688989 85.40337043 79.20612431 85.40713501 77.38536072 C85.41155755 73.56973563 85.40513032 69.75432129 85.39111328 65.9387207 C85.37403357 61.05158462 85.38385528 56.16494323 85.40183067 51.27782536 C85.41268078 47.51769802 85.40921633 43.75768758 85.4014473 39.99755669 C85.39944805 38.1958555 85.40189489 36.39414364 85.40888596 34.59245491 C85.41651929 32.07184952 85.40486971 29.55204036 85.38818359 27.03149414 C85.39425629 26.28899414 85.40032898 25.54649414 85.40658569 24.78149414 C85.35242928 20.35746335 84.79255411 17.47856772 82 14 C75.63724344 10.73362476 69.90526767 10.58471059 62.8515625 10.671875 C61.79899261 10.67374817 60.74642273 10.67562134 59.66195679 10.67755127 C57.44485283 10.68424593 55.22776016 10.69810858 53.01074219 10.71875 C49.64246443 10.74983881 46.27465697 10.75972242 42.90625 10.765625 C40.74218188 10.77479979 38.57811845 10.78517707 36.4140625 10.796875 C34.92140366 10.80324982 34.92140366 10.80324982 33.39859009 10.80975342 C22.9245238 10.26898468 22.9245238 10.26898468 13.30996704 13.14227295 Z " fill="#FCFCFC" transform="translate(0,0)"/>
<path d="M0 0 C1.58172501 -0.00855011 1.58172501 -0.00855011 3.19540405 -0.01727295 C5.40890518 -0.02665731 7.62241987 -0.03323055 9.8359375 -0.03710938 C13.20857927 -0.04686818 16.58062434 -0.07797552 19.953125 -0.109375 C22.11457975 -0.11590163 24.27603881 -0.12115343 26.4375 -0.125 C27.93623154 -0.1435202 27.93623154 -0.1435202 29.46524048 -0.16241455 C35.52407572 -0.14323674 40.1530722 0.41411735 45.5859375 3.203125 C48.88283363 7.30993046 49.01557255 11.16640501 48.97412109 16.23461914 C48.97937805 17.02871689 48.98463501 17.82281464 48.99005127 18.64097595 C49.00321875 21.25694645 48.99452574 23.87230493 48.984375 26.48828125 C48.98639647 28.310014 48.98930852 30.13174597 48.99307251 31.95347595 C48.99749128 35.76732098 48.99107846 39.58095493 48.97705078 43.39477539 C48.95994698 48.28310192 48.96981042 53.17093472 48.98776817 58.0592432 C48.99860773 61.81932802 48.99515909 65.57929574 48.9873848 69.33938408 C48.98538389 71.14191178 48.98783821 72.94445013 48.99482346 74.74696541 C49.00244214 77.26527212 48.99082886 79.78277831 48.97412109 82.30102539 C48.98019379 83.04554962 48.98626648 83.79007385 48.99252319 84.55715942 C48.95412444 87.68114936 48.75983949 89.88478905 47.24917603 92.65013123 C45.5859375 94.203125 45.5859375 94.203125 42.5859375 94.953125 C36.57301793 94.54059621 32.06432177 89.84086126 27.5859375 86.203125 C26.90595703 85.6570459 26.22597656 85.1109668 25.52539062 84.54833984 C20.85408514 80.79660712 16.20978826 77.01315709 11.5859375 73.203125 C8.89346301 74.45728384 6.71301989 75.782554 4.484375 77.7421875 C3.91662354 78.23686523 3.34887207 78.73154297 2.76391602 79.24121094 C1.87144165 80.0267334 1.87144165 80.0267334 0.9609375 80.828125 C-0.29233726 81.90958641 -1.54624706 82.99031232 -2.80078125 84.0703125 C-4.98378204 85.95716755 -7.15086436 87.8573971 -9.30859375 89.7734375 C-15.4420286 95.03066737 -15.4420286 95.03066737 -20.2890625 95.890625 C-23.66416368 95.14810274 -25.04021271 94.6828547 -27.4140625 92.203125 C-27.80722906 89.60994365 -27.94127657 87.43844455 -27.89990234 84.84521484 C-27.90369904 84.0984549 -27.90749573 83.35169495 -27.91140747 82.58230591 C-27.91882642 80.10913292 -27.89740121 77.63713152 -27.875 75.1640625 C-27.87261474 73.44113299 -27.87171043 71.71820086 -27.8722229 69.99526978 C-27.86909186 66.37868018 -27.85251262 62.76248612 -27.82568359 59.14599609 C-27.79185606 54.5294487 -27.78405067 49.91333914 -27.78557396 45.29668236 C-27.78502742 41.73454675 -27.77401245 38.17250526 -27.75957108 34.61040115 C-27.75324071 32.90970191 -27.74927306 31.20899208 -27.74778366 29.50828171 C-27.71024429 9.03009464 -27.71024429 9.03009464 -23.9140625 2.703125 C-17.37593734 -1.2197501 -7.42600244 0.03171482 0 0 Z M-20.4140625 12.203125 C-20.88505104 14.93418922 -21.05221649 17.0297121 -20.98168945 19.74731445 C-20.98241959 20.48931595 -20.98314972 21.23131744 -20.98390198 21.99580383 C-20.98043166 24.43676073 -20.941601 26.87578477 -20.90234375 29.31640625 C-20.89301354 31.01318825 -20.88589841 32.70998375 -20.88090515 34.40678406 C-20.86185144 38.86395725 -20.81276535 43.32031051 -20.75738525 47.77716064 C-20.70615724 52.32854115 -20.68338357 56.88005467 -20.65820312 61.43164062 C-20.60464449 70.3558282 -20.51935188 79.27940831 -20.4140625 88.203125 C-17.61332984 86.84645318 -15.41024662 85.49568958 -13.09375 83.41015625 C-12.48063965 82.86504395 -11.8675293 82.31993164 -11.23583984 81.75830078 C-10.59340332 81.18321777 -9.9509668 80.60813477 -9.2890625 80.015625 C4.16520349 68.21254955 4.16520349 68.21254955 8.5859375 66.203125 C18.76520855 66.93021579 28.23203703 77.59578436 35.546875 83.890625 C38.18598493 86.43282887 38.18598493 86.43282887 41.5859375 87.203125 C43.04544289 84.28411422 42.72939785 81.70605404 42.74707031 78.44604492 C42.75203522 77.75152725 42.75700012 77.05700958 42.76211548 76.34144592 C42.77674591 74.03881852 42.78354108 71.73626004 42.7890625 69.43359375 C42.79481392 67.83417254 42.80057166 66.23475136 42.80633545 64.6353302 C42.81684842 61.27861204 42.82268891 57.92191786 42.82617188 54.56518555 C42.83165249 50.26767151 42.8556698 45.97047497 42.88414383 41.67306042 C42.9027862 38.36761049 42.90797669 35.06223672 42.90950775 31.75673866 C42.912532 30.17272522 42.92055288 28.58871304 42.93369293 27.00475121 C42.95078481 24.78571973 42.94886577 22.56745961 42.94238281 20.34838867 C42.94602844 19.08645187 42.94967407 17.82451508 42.95343018 16.52433777 C42.5568122 12.93990528 41.74841258 11.05803433 39.5859375 8.203125 C37.09309976 6.95670613 35.36252937 7.04916265 32.57299805 7.01025391 C31.52818771 6.99419098 30.48337738 6.97812805 29.40690613 6.96157837 C24.62650144 6.91718694 19.84623634 6.8760662 15.06567383 6.85302734 C12.54279358 6.83646044 10.01996041 6.80916116 7.49731445 6.77099609 C3.8638468 6.71629311 0.23147997 6.69436251 -3.40234375 6.6796875 C-4.52957352 6.65701813 -5.65680328 6.63434875 -6.81819153 6.61099243 C-8.39959175 6.61526749 -8.39959175 6.61526749 -10.01293945 6.61962891 C-10.93734329 6.61154205 -11.86174713 6.6034552 -12.81416321 6.59512329 C-16.63429571 7.4884837 -18.08222602 9.08923406 -20.4140625 12.203125 Z " fill="#0A0A0A" transform="translate(36.4140625,10.796875)"/>
</svg>
