<svg width="24" height="24" viewBox="0 0 24 24" fill="none" xmlns="http://www.w3.org/2000/svg">
<path d="M4 4.5H10M10 4.5C10 5.60457 10.8954 6.5 12 6.5C13.1046 6.5 14 5.60457 14 4.5M10 4.5C10 3.39543 10.8954 2.5 12 2.5C13.1046 2.5 14 3.39543 14 4.5M14 4.5H20M4 11.5H16M16 11.5C16 12.6046 16.8954 13.5 18 13.5C19.1046 13.5 20 12.6046 20 11.5C20 10.3954 19.1046 9.5 18 9.5C16.8954 9.5 16 10.3954 16 11.5ZM8 18.5H20M8 18.5C8 17.3954 7.10457 16.5 6 16.5C4.89543 16.5 4 17.3954 4 18.5C4 19.6046 4.89543 20.5 6 20.5C7.10457 20.5 8 19.6046 8 18.5Z" stroke="#898A8D" stroke-width="2" stroke-linecap="round"/>
</svg>
