<svg width="24" height="24" viewBox="0 0 24 24" fill="none" xmlns="http://www.w3.org/2000/svg">
<path d="M10 0.25C15.3848 0.25 19.75 4.61522 19.75 10C19.75 12.4225 18.8666 14.6386 17.4043 16.3438L23.3945 22.334C23.6871 22.6269 23.6873 23.1017 23.3945 23.3945C23.1283 23.6608 22.7116 23.6846 22.418 23.4668L22.334 23.3945L16.3438 17.4043C14.6386 18.8666 12.4225 19.75 10 19.75C4.61522 19.75 0.25 15.3848 0.25 10C0.25 4.61522 4.61522 0.25 10 0.25ZM10 1.75C5.44365 1.75 1.75 5.44365 1.75 10C1.75 14.5563 5.44365 18.25 10 18.25C14.5563 18.25 18.25 14.5563 18.25 10C18.25 5.44365 14.5563 1.75 10 1.75Z" fill="#262626"/>
</svg>
