<svg width="20" height="20" viewBox="0 0 20 20" fill="none" xmlns="http://www.w3.org/2000/svg">
<path fill-rule="evenodd" clip-rule="evenodd" d="M10.0002 2.2915C9.50289 2.2915 9.02598 2.48905 8.67435 2.84068C8.32271 3.19231 8.12517 3.66922 8.12517 4.1665V4.38317C8.58934 4.37484 9.0985 4.37484 9.6585 4.37484H10.3427C10.901 4.37484 11.411 4.37484 11.876 4.38317V4.1665C11.876 3.92021 11.8275 3.67632 11.7332 3.44878C11.6389 3.22124 11.5007 3.0145 11.3265 2.84038C11.1523 2.66626 10.9455 2.52817 10.718 2.43399C10.4904 2.33981 10.2465 2.29139 10.0002 2.2915ZM13.1252 4.43984V4.1665C13.1252 3.3377 12.7959 2.54285 12.2099 1.9568C11.6238 1.37074 10.829 1.0415 10.0002 1.0415C9.17137 1.0415 8.37651 1.37074 7.79046 1.9568C7.20441 2.54285 6.87517 3.3377 6.87517 4.1665V4.43984C6.75628 4.44984 6.64128 4.46178 6.53017 4.47567C5.6885 4.57984 4.99517 4.79817 4.40517 5.28734C3.81517 5.7765 3.4735 6.41817 3.21684 7.2265C2.96684 8.00984 2.7785 9.01567 2.54184 10.2815L2.52434 10.3732C2.18934 12.159 1.926 13.5665 1.87684 14.6757C1.82684 15.8132 1.99684 16.7548 2.6385 17.5273C3.28017 18.3007 4.17434 18.6407 5.301 18.8015C6.401 18.9582 7.83184 18.9582 9.64934 18.9582H10.3535C12.1702 18.9582 13.6018 18.9582 14.701 18.8015C15.8277 18.6407 16.7227 18.3007 17.3643 17.5273C18.006 16.754 18.1743 15.8132 18.1252 14.6757C18.0768 13.5665 17.8127 12.159 17.4777 10.3732L17.461 10.2815C17.2235 9.01567 17.0343 8.009 16.786 7.2265C16.5277 6.41817 16.186 5.7765 15.596 5.28734C15.0068 4.79817 14.3127 4.579 13.471 4.47567C13.3562 4.46155 13.2412 4.4496 13.126 4.43984M6.6835 5.7165C5.971 5.804 5.54017 5.96984 5.2035 6.24984C4.86767 6.52817 4.62517 6.92067 4.40684 7.60567C4.18434 8.30567 4.0085 9.23734 3.76184 10.5532C3.41517 12.4007 3.16934 13.7198 3.12517 14.7307C3.08184 15.7223 3.24184 16.2973 3.59934 16.7298C3.95767 17.1607 4.4935 17.4232 5.47684 17.5632C6.47684 17.7065 7.82017 17.7082 9.70017 17.7082H10.3002C12.181 17.7082 13.5227 17.7065 14.5235 17.564C15.5068 17.4232 16.0427 17.1607 16.401 16.7298C16.7593 16.2982 16.9185 15.7232 16.876 14.7298C16.831 13.7207 16.5852 12.4007 16.2385 10.5532C15.9918 9.2365 15.8168 8.3065 15.5935 7.60567C15.3752 6.92067 15.1335 6.52817 14.7968 6.249C14.4602 5.96984 14.0302 5.804 13.3168 5.71567C12.5868 5.62567 11.6393 5.62484 10.3002 5.62484H9.70017C8.361 5.62484 7.4135 5.62567 6.6835 5.7165Z" fill="#241601"/>
</svg>
