<svg width="20" height="25" viewBox="0 0 20 25" fill="none" xmlns="http://www.w3.org/2000/svg">
<g clip-path="url(#clip0_6721_6462)">
<path d="M16.0534 5.12036C16.0477 5.1037 16.042 5.0871 16.0361 5.07056L16.0534 5.12036Z" fill="#FEFEFE"/>
<path d="M16.0534 5.12036C16.0477 5.1037 16.042 5.0871 16.0361 5.07056" stroke="#080808" stroke-width="0.0841208" stroke-miterlimit="10"/>
<path d="M19.9591 16.9844C19.7673 18.8615 18.844 20.1031 17.895 21.3794C17.2175 22.2904 16.0312 23.6572 14.1498 24.8733H6.06362C4.93949 24.0497 2.72268 22.278 1.19073 19.8412C0.334044 18.4786 0.0799993 17.5258 0.0203296 16.6988C-0.0415833 15.8413 0.108937 15.1666 0.211789 14.7211C0.377338 14.0045 0.77422 12.7363 1.82904 11.4028H18.3205C18.6698 11.8616 19.1237 12.5585 19.4696 13.4904C19.6374 13.9421 20.1299 15.3119 19.9591 16.9845V16.9844Z" fill="black" stroke="#080808" stroke-width="0.0112161" stroke-miterlimit="10"/>
<path d="M15.7961 8.91571C15.6929 9.44276 15.5685 9.97137 15.5423 10.5153C14.979 10.5133 14.4157 10.5133 13.8524 10.5153C13.2511 10.5174 12.65 10.5217 12.0488 10.5282C12.6356 8.93293 13.2876 7.67555 13.808 6.78151C13.808 6.78151 15.1558 4.46567 17.2885 3.22971C17.3134 3.21529 17.3823 3.20503 17.4615 3.19056C17.6782 3.15097 17.8404 3.37742 17.762 3.62182C17.6979 3.82192 17.3767 4.27056 17.2598 4.50167C16.5587 5.88888 16.1022 7.35101 15.796 8.91566L15.7961 8.91571Z" fill="black" stroke="#080808" stroke-width="0.0112161" stroke-miterlimit="10"/>
<path d="M4.62863 8.91566C4.32237 7.35101 3.86588 5.88888 3.16476 4.50167C3.04789 4.27056 2.72671 3.82186 2.66261 3.62182C2.58427 3.37742 2.7464 3.15097 2.96309 3.19056C3.04239 3.20503 3.11114 3.21529 3.13604 3.22971C5.26873 4.46567 6.61663 6.78151 6.61663 6.78151C7.13694 7.67555 7.78899 8.93287 8.37576 10.5282C7.77463 10.5217 7.17351 10.5174 6.57221 10.5153C6.00888 10.5133 5.44555 10.5133 4.88234 10.5153C4.85609 9.97137 4.73181 9.44264 4.62863 8.91566Z" fill="black" stroke="#080808" stroke-width="0.0112161" stroke-miterlimit="10"/>
<path d="M14.0545 4.82616C14.0403 4.84428 14.0311 4.93019 13.9906 4.98296C12.7161 6.64407 11.7846 8.55927 11.0663 10.5437H10.9699C8.98536 8.17911 8.29961 4.96418 9.18563 1.94132C9.33424 1.4343 9.56557 0.966981 9.71677 0.462761C10.2935 0.154094 10.5755 0.345385 11.0409 0.714899C11.7777 1.29993 12.5658 2.19694 13.1012 2.98442C13.4828 3.54556 13.8437 4.17075 14.0545 4.82611H14.0545V4.82616Z" fill="black" stroke="#080808" stroke-width="0.0112161" stroke-miterlimit="10"/>
<path d="M10.9697 10.5436C10.4082 10.5427 9.84433 10.5427 9.2828 10.5436C9.29025 10.319 8.96263 9.56283 8.85748 9.30599C8.27194 7.87582 7.27747 6.01731 6.34277 4.82605C6.79164 3.5773 7.64025 2.36759 8.55919 1.43996C8.83914 1.15737 9.3852 0.640029 9.71658 0.462646C9.56539 0.966867 9.33405 1.43419 9.18544 1.94121C8.29942 4.96412 8.98518 8.17899 10.9697 10.5436Z" fill="black" stroke="#080808" stroke-width="0.0112161" stroke-miterlimit="10"/>
<path d="M3.64774 8.91448C3.74706 9.44679 3.87301 9.98191 3.87436 10.5279C3.28776 10.5311 2.69235 10.5071 2.1067 10.5279C1.777 9.61885 1.2817 8.78482 0.711699 7.99223C0.545028 7.76045 0.191776 7.53787 0.449747 7.25584C0.703175 6.97875 1.30352 7.3583 1.59323 7.50607C2.34331 7.88871 2.99984 8.40123 3.64774 8.91448Z" fill="black" stroke="#080808" stroke-width="0.0112161" stroke-miterlimit="10"/>
<path d="M18.2769 10.531C17.6957 10.5101 17.1047 10.5342 16.5225 10.531C16.5245 9.98562 16.6491 9.45106 16.7474 8.91914C17.417 8.39074 18.1019 7.86034 18.8765 7.46962C19.0861 7.36385 19.5893 7.08693 19.7944 7.16942C20.328 7.38416 19.647 7.99033 19.4731 8.24421C18.9878 8.9525 18.5704 9.73326 18.2769 10.5311V10.531Z" fill="black" stroke="#080808" stroke-width="0.0112161" stroke-miterlimit="10"/>
</g>
<defs>
<clipPath id="clip0_6721_6462">
<rect width="20" height="24.5762" fill="white" transform="translate(0 0.302734)"/>
</clipPath>
</defs>
</svg>
