<svg width="22" height="27" viewBox="0 0 22 27" fill="none" xmlns="http://www.w3.org/2000/svg">
<path d="M19.406 13.3357C19.3824 13.3023 19.3909 13.256 19.4248 13.2332C20.4517 12.5427 20.0746 10.8967 18.8313 10.7786C18.7882 10.7745 18.7583 10.7333 18.7677 10.6911C18.8351 10.3906 19.3607 9.41694 19.4536 9.25719C19.7201 8.79874 20.0295 8.37109 20.3552 7.9539C20.3612 7.94603 20.3658 7.93709 20.3683 7.92757C20.5428 7.25777 20.1625 6.78944 19.4593 6.93791C19.2537 6.98129 18.7946 7.24049 18.5881 7.35275C18.1333 7.60007 17.7157 7.90876 17.2889 8.19947C17.2344 8.23661 17.1624 8.18794 17.1768 8.12353C17.4847 6.75712 17.9982 5.48369 18.645 4.24376C18.9152 3.72583 19.4982 3.20649 19.0878 2.61592C18.6464 1.98103 17.9117 2.54174 17.4386 2.83927C16.5506 3.39763 15.7842 4.11704 15.0557 4.8649C15.0215 4.90005 14.9629 4.89206 14.9396 4.8488C14.3039 3.66729 13.4455 2.58218 12.4399 1.69667C11.2247 0.62649 10.7045 0.694316 9.52046 1.74616C8.53132 2.62474 7.6979 3.6834 7.07016 4.84903C7.04689 4.89217 6.98848 4.90028 6.95416 4.86525C6.29928 4.19521 5.61371 3.54774 4.83848 3.01736C4.29419 2.64495 3.29 1.85113 2.8509 2.74229C2.58834 3.27479 3.12546 3.78496 3.36498 4.24388C4.01082 5.48157 4.52373 6.75923 4.83284 8.12329C4.84741 8.18771 4.77525 8.23638 4.72071 8.19923C4.29407 7.90853 3.8766 7.59996 3.42187 7.35263C3.06622 7.15926 2.58411 6.86973 2.1758 6.91487C1.68675 6.96894 1.48401 7.50697 1.64244 7.93133C1.64503 7.93827 1.64867 7.94462 1.65314 7.95049C2.16475 8.6049 2.63206 9.31067 2.98595 10.0639C3.0473 10.1945 3.23746 10.5859 3.24181 10.6993C3.24616 10.8137 3.03378 10.7796 2.9159 10.8211C1.8285 11.2038 1.65067 12.6337 2.60832 13.2268C2.62971 13.24 2.64264 13.2916 2.64264 13.2938C2.64158 13.3076 2.63664 13.3209 2.6283 13.3321C1.47837 14.8667 0.737686 16.797 1.08699 18.7398C1.27645 19.7939 1.92005 21.068 2.53674 21.9395L4.00776 23.7332C4.04631 23.8175 4.85716 24.5987 4.99444 24.7246C5.63699 25.3138 6.40611 25.975 7.23471 26.253C7.24223 26.2555 7.25011 26.2568 7.2581 26.2568H14.7544C14.7604 26.2568 14.7665 26.256 14.7724 26.2546C15.2923 26.1242 15.6558 25.8288 16.072 25.5127C17.9157 24.1127 20.1266 21.5858 20.7725 19.3315C21.3987 17.1451 20.6637 15.1153 19.4059 13.3356L19.406 13.3357ZM17.6372 8.87491C18.1674 8.45643 18.748 8.08332 19.3636 7.80297C19.4297 7.77299 19.4941 7.84787 19.4547 7.90888L18.7141 9.05535C18.7125 9.05782 18.7111 9.06041 18.7098 9.06311L17.9241 10.6837C17.9119 10.7087 17.8865 10.7246 17.8586 10.7246H16.8069C16.766 10.7246 16.7333 10.691 16.7342 10.6499C16.7402 10.3887 16.8759 9.5399 16.9606 9.43457C17.0582 9.31314 17.4856 8.99458 17.6373 8.87491H17.6372ZM15.3584 5.6559C16.1442 4.73595 17.1158 3.8475 18.1935 3.27385C18.2587 3.23917 18.3282 3.31206 18.2902 3.37553C16.9742 5.57526 16.2394 8.10613 16.006 10.6586C16.0026 10.6961 15.9712 10.7248 15.9336 10.7248H12.5397C12.49 10.7248 12.4548 10.676 12.4707 10.6289C12.6114 10.2119 12.7949 9.80568 12.9745 9.40518C13.1657 8.81073 14.9597 6.02666 15.3584 5.6559ZM7.57367 5.56609C8.08881 4.37037 8.95055 3.2534 9.91607 2.38916C10.2896 2.05485 10.7797 1.50965 11.2965 1.75192C11.6817 1.93248 12.5983 2.85584 12.9096 3.20532C13.5308 3.90216 14.075 4.70821 14.4352 5.57162C14.4444 5.59383 14.442 5.61923 14.4288 5.63944C14.4288 5.63944 11.8061 10.2224 11.6584 10.6687C11.6485 10.6985 11.6207 10.7188 11.5894 10.7188H10.4184C10.3877 10.7188 10.3605 10.6997 10.35 10.6709C9.69535 8.86563 8.77061 7.14774 7.58331 5.63991C7.56674 5.61899 7.56297 5.59066 7.57355 5.56621L7.57367 5.56609ZM4.6348 5.15372C4.63409 5.15196 4.63327 5.1502 4.63244 5.14843L3.72122 3.37024C3.68808 3.30559 3.75966 3.23788 3.82253 3.27409C6.57512 4.85926 8.40438 7.71551 9.53245 10.6252C9.5509 10.6731 9.51588 10.7245 9.46452 10.7245H6.07644C6.03871 10.7245 6.00733 10.6955 6.00404 10.658C5.83855 8.76912 5.36784 6.90041 4.63491 5.15361L4.6348 5.15372ZM2.5539 7.90723C2.51453 7.84634 2.5787 7.77146 2.64475 7.8012C3.25709 8.07757 3.84968 8.46207 4.37258 8.87491C4.5242 8.9947 4.95178 9.31314 5.04933 9.43457C5.20905 9.63335 5.22339 10.306 5.2583 10.6445C5.26277 10.6874 5.22903 10.7246 5.1859 10.7246H4.15127C4.12342 10.7246 4.09791 10.7087 4.08581 10.6837L3.30011 9.06311C3.29881 9.06041 3.2974 9.05782 3.29576 9.05535L2.55402 7.90712L2.5539 7.90723ZM3.55633 11.4642C3.55832 11.4644 3.56032 11.4644 3.56232 11.4644L18.5903 11.4729C19.3463 11.4678 19.5572 12.4363 18.8531 12.6961C18.8451 12.6992 18.8365 12.7006 18.8281 12.7006L10.3384 12.7013C10.3362 12.7013 10.3341 12.7013 10.332 12.7015L3.14485 12.693C3.1331 12.693 3.12134 12.6901 3.111 12.6845C2.38336 12.2946 2.76193 11.392 3.55633 11.4641V11.4642ZM20.2027 18.4253C20.0252 20.1082 19.1705 21.2214 18.292 22.3656C17.6648 23.1824 16.5666 24.4077 14.825 25.4981H7.33966C6.29904 24.7597 4.24694 23.1713 2.82881 20.9865C2.03582 19.7649 1.80064 18.9106 1.7454 18.1692C1.68805 17.4004 1.82744 16.7955 1.92264 16.396C2.0759 15.7536 2.4433 14.6166 3.41975 13.4211H18.6859C19.0092 13.8324 19.4293 14.4573 19.7497 15.2927C19.905 15.6977 20.361 16.9257 20.2028 18.4253H20.2027Z" fill="#070116" stroke="#080808" stroke-width="0.492766" stroke-miterlimit="10"/>
</svg>
