<svg width="26" height="24" viewBox="0 0 26 24" fill="none" xmlns="http://www.w3.org/2000/svg">
<g clip-path="url(#clip0_3799_9418)">
<path d="M9.79961 1.63501H2.33212C1.77601 1.63501 1.3252 2.08266 1.3252 2.63486V21.3764C1.3252 21.9286 1.77601 22.3762 2.33212 22.3762H9.79961C10.3557 22.3762 10.8065 21.9286 10.8065 21.3764V2.63486C10.8065 2.08266 10.3557 1.63501 9.79961 1.63501Z" fill="#241601" stroke="#1E0202" stroke-width="2" stroke-miterlimit="10"/>
<path d="M23.7229 1.31592H15.5133C14.9877 1.31592 14.5615 1.73906 14.5615 2.26102V9.20626C14.5615 9.72822 14.9877 10.1514 15.5133 10.1514H23.7229C24.2486 10.1514 24.6747 9.72822 24.6747 9.20626V2.26102C24.6747 1.73906 24.2486 1.31592 23.7229 1.31592Z" fill="#241601" stroke="#1E0202" stroke-width="2" stroke-miterlimit="10"/>
<path d="M23.7229 13.8485H15.5133C14.9877 13.8485 14.5615 14.2716 14.5615 14.7936V21.7388C14.5615 22.2608 14.9877 22.684 15.5133 22.684H23.7229C24.2486 22.684 24.6747 22.2608 24.6747 21.7388V14.7936C24.6747 14.2716 24.2486 13.8485 23.7229 13.8485Z" fill="#241601" stroke="#1E0202" stroke-width="2" stroke-miterlimit="10"/>
</g>
<defs>
<clipPath id="clip0_3799_9418">
<rect width="26" height="24" fill="white"/>
</clipPath>
</defs>
</svg>
