<svg width="17" height="17" viewBox="0 0 17 17" fill="none" xmlns="http://www.w3.org/2000/svg">
<path d="M8.5 6.83333C8.88302 6.83333 9.26229 6.75789 9.61616 6.61132C9.97003 6.46474 10.2916 6.2499 10.5624 5.97906C10.8332 5.70822 11.0481 5.38669 11.1946 5.03283C11.3412 4.67896 11.4167 4.29969 11.4167 3.91667C11.4167 3.53364 11.3412 3.15437 11.1946 2.80051C11.0481 2.44664 10.8332 2.12511 10.5624 1.85427C10.2916 1.58343 9.97003 1.36859 9.61616 1.22202C9.26229 1.07544 8.88302 1 8.5 1C7.72645 1 6.98459 1.30729 6.43761 1.85427C5.89062 2.40125 5.58333 3.14312 5.58333 3.91667C5.58333 4.69021 5.89062 5.43208 6.43761 5.97906C6.98459 6.52604 7.72645 6.83333 8.5 6.83333ZM1 15.5V16H16V15.5C16 13.6333 16 12.7 15.6367 11.9867C15.3171 11.3595 14.8072 10.8496 14.18 10.53C13.4667 10.1667 12.5333 10.1667 10.6667 10.1667H6.33333C4.46667 10.1667 3.53333 10.1667 2.82 10.53C2.19282 10.8496 1.68291 11.3595 1.36333 11.9867C1 12.7 1 13.6333 1 15.5Z" stroke="black" stroke-linecap="round" stroke-linejoin="round"/>
</svg>
