<svg width="24" height="24" viewBox="0 0 24 24" fill="none" xmlns="http://www.w3.org/2000/svg">
<path d="M15.3109 4.56477C14.6069 3.84817 13.7679 3.27806 12.8423 2.88737C11.9166 2.49668 10.9227 2.29315 9.91792 2.28853C8.91313 2.28392 7.91738 2.47831 6.98818 2.86048C6.05899 3.24266 5.21476 3.80504 4.50426 4.51514C3.79376 5.22525 3.23106 6.069 2.84868 6.99768C2.46629 7.92636 2.27179 8.92155 2.27641 9.92578C2.28102 10.93 2.48467 11.9234 2.87558 12.8485C3.26649 13.7736 3.83691 14.6122 4.55391 15.3157C5.98484 16.7198 7.91264 17.5024 9.91792 17.4932C11.9232 17.484 13.8437 16.6837 15.2617 15.2666C16.6796 13.8494 17.4803 11.9299 17.4895 9.92578C17.4987 7.92162 16.7157 5.9949 15.3109 4.56477ZM2.89918 2.91096C4.69296 1.11862 7.10407 0.0788594 9.63946 0.00430449C12.1748 -0.0702504 14.6429 0.826031 16.5391 2.50987C18.4352 4.1937 19.6161 6.53787 19.8402 9.06302C20.0644 11.5882 19.3149 14.1035 17.745 16.0947L24 22.3462L22.3453 24L16.0903 17.7485C14.0973 19.3117 11.5827 20.0561 9.05946 19.8299C6.53617 19.6037 4.1943 18.4238 2.51156 16.5311C0.828823 14.6383 -0.0680034 12.1752 0.00402567 9.64422C0.0760548 7.11324 1.11151 4.70507 2.89918 2.91096Z" fill="black"/>
</svg>
